<?xml version="1.0" standalone="no"?>
<!DOCTYPE svg PUBLIC "-//W3C//DTD SVG 20010904//EN"
 "http://www.w3.org/TR/2001/REC-SVG-20010904/DTD/svg10.dtd">
<svg version="1.0" xmlns="http://www.w3.org/2000/svg"
 width="1829.000000pt" height="1829.000000pt" viewBox="0 0 1829.000000 1829.000000"
 preserveAspectRatio="xMidYMid meet">
<metadata>
Created by potrace 1.11, written by Peter Selinger 2001-2013
</metadata>
<g transform="translate(0.000000,1829.000000) scale(0.100000,-0.100000)"
fill="#000000" stroke="none">
<path d="M9938 18279 c-72 -8 -151 -47 -219 -110 -30 -27 -57 -49 -61 -49 -3
0 -16 -19 -27 -43 -18 -36 -19 -48 -10 -82 6 -22 19 -53 29 -70 l18 -30 -86 0
c-74 0 -92 -3 -119 -23 -32 -22 -59 -81 -50 -106 7 -18 -20 -56 -40 -56 -21 0
-103 62 -130 98 -12 17 -25 43 -29 58 -11 45 -61 146 -87 176 -67 77 -172 88
-290 29 -128 -64 -201 -151 -196 -234 3 -41 25 -95 44 -109 5 -4 -16 -31 -46
-60 -65 -63 -92 -114 -95 -184 -4 -95 50 -174 205 -296 82 -65 90 -118 32
-210 -34 -54 -144 -148 -207 -178 -64 -30 -100 -26 -139 13 -47 47 -56 90 -64
287 -5 155 -9 180 -29 222 -26 52 -54 74 -109 86 -42 9 -136 -11 -164 -35 -13
-11 -18 -9 -29 14 -99 196 -309 220 -564 65 -35 -21 -61 -31 -63 -25 -11 31
-71 108 -116 149 -56 51 -148 98 -212 109 -22 3 -72 6 -111 6 -57 -1 -77 3
-97 19 -48 38 -138 72 -202 78 -53 4 -71 1 -116 -21 -30 -14 -66 -37 -81 -51
l-28 -27 -71 22 c-73 22 -189 30 -262 18 -61 -11 -137 -68 -173 -131 -9 -17
-15 -10 -47 55 -21 43 -54 90 -77 111 -45 40 -30 38 -262 37 l-146 0 -16 40
c-22 53 -90 125 -132 139 -95 32 -217 -28 -268 -129 -24 -48 -41 -102 -45
-149 -1 -8 -8 -11 -18 -8 -36 11 -96 21 -177 30 -83 9 -198 -26 -243 -76 -46
-50 -65 -186 -41 -291 5 -23 11 -49 13 -57 2 -8 11 -34 20 -58 10 -24 15 -46
11 -49 -3 -3 -27 -7 -53 -9 -168 -10 -277 -33 -340 -70 -64 -37 -66 -53 -20
-201 14 -45 28 -95 30 -110 3 -15 23 -56 46 -89 71 -106 85 -179 42 -218 -17
-16 -85 -43 -128 -50 -85 -16 -186 -54 -236 -88 -64 -45 -90 -166 -62 -286 8
-31 13 -58 12 -59 -1 0 -34 -4 -73 -7 -218 -19 -398 -123 -434 -252 -8 -26
-13 -71 -12 -100 l1 -52 -77 -32 c-178 -74 -348 -205 -403 -310 -53 -101 -19
-295 55 -320 47 -15 104 -66 111 -99 4 -19 0 -41 -11 -62 -26 -52 -15 -150 26
-228 19 -35 48 -74 65 -87 64 -49 167 -69 229 -45 58 23 78 -2 71 -92 -14
-177 -42 -213 -165 -211 -79 1 -189 34 -191 57 -3 52 -42 129 -82 163 -104 88
-271 93 -331 11 -9 -12 -22 -30 -29 -41 -13 -17 -16 -14 -46 39 -73 130 -195
220 -314 232 -107 11 -245 -33 -281 -90 -28 -43 -21 -113 16 -174 l19 -32 -58
-17 c-183 -53 -277 -143 -260 -250 13 -77 93 -151 205 -190 30 -11 58 -27 64
-37 12 -24 -4 -74 -40 -116 -26 -32 -31 -33 -92 -33 -132 2 -241 -34 -285 -93
-34 -44 -54 -110 -50 -166 6 -81 32 -122 102 -157 47 -24 155 -31 236 -14 26
5 47 7 47 5 0 -11 -63 -129 -94 -177 -36 -53 -147 -166 -163 -166 -5 0 -19 14
-31 30 -28 38 -75 40 -147 6 -42 -19 -175 -111 -175 -121 0 -1 16 -29 35 -61
43 -71 51 -98 39 -133 -16 -44 -47 -53 -159 -45 -163 11 -219 7 -271 -16 -59
-26 -93 -62 -139 -154 -22 -42 -55 -88 -83 -113 -45 -40 -46 -42 -32 -70 23
-45 110 -125 203 -186 31 -20 57 -38 57 -40 0 -1 -55 -1 -123 0 -158 3 -234
-16 -286 -71 -28 -30 -30 -69 -5 -142 21 -61 48 -101 77 -110 12 -4 69 -8 127
-8 88 -1 112 -5 151 -24 63 -31 119 -88 119 -122 0 -48 -23 -57 -165 -64 -141
-7 -190 -12 -247 -27 -36 -9 -68 -32 -68 -48 0 -24 58 -54 230 -118 169 -64
267 -139 274 -210 4 -45 -29 -99 -79 -128 -80 -47 -123 -122 -111 -190 11 -55
101 -137 215 -194 32 -17 40 -26 32 -34 -17 -17 -13 -35 9 -42 35 -11 181 39
371 129 42 20 79 36 82 36 3 0 16 -19 30 -42 58 -99 181 -184 283 -196 66 -7
128 14 168 58 18 20 36 43 39 51 14 35 88 -98 89 -159 1 -69 -35 -103 -127
-118 -105 -17 -206 -65 -270 -131 -118 -121 -131 -218 -41 -306 47 -47 150
-104 234 -132 52 -17 54 -18 91 -99 76 -161 171 -254 246 -240 44 8 71 31 133
117 104 143 258 284 390 357 l43 24 29 -34 c42 -49 80 -129 96 -202 1 -5 2
-26 3 -47 3 -95 91 -134 308 -135 l132 -1 -5 -22 c-11 -43 41 -99 151 -167 98
-60 167 -84 245 -84 116 0 218 55 305 166 l45 56 90 1 c57 1 90 -3 90 -9 -1
-6 -7 -37 -14 -68 -30 -125 5 -237 95 -301 102 -74 222 -75 327 -4 53 35 125
108 160 161 l26 38 13 -37 c67 -193 226 -234 418 -109 149 97 164 211 49 370
-17 25 -23 18 81 109 38 33 76 67 84 76 24 25 53 36 86 33 68 -6 115 -16 120
-25 4 -5 12 -9 20 -9 42 0 253 -118 455 -254 123 -83 420 -301 496 -365 17
-14 40 -33 50 -41 126 -101 235 -189 259 -211 17 -15 80 -69 140 -120 164
-139 165 -141 215 -185 25 -22 79 -62 120 -89 68 -43 177 -123 206 -150 95
-89 130 -124 175 -177 30 -35 57 -65 60 -68 4 -3 31 -43 61 -90 76 -117 142
-256 180 -380 l32 -105 0 -3128 c1 -1721 -1 -3132 -4 -3135 -6 -8 -6 -8 -100
-17 -41 -3 -91 -8 -110 -10 -19 -2 -64 -6 -100 -10 -36 -3 -81 -8 -100 -10
-19 -2 -59 -7 -87 -10 -29 -3 -74 -7 -100 -10 -27 -3 -73 -7 -103 -10 -30 -3
-71 -8 -90 -10 -19 -2 -64 -7 -100 -10 -36 -3 -76 -8 -90 -10 -14 -2 -54 -7
-90 -10 -36 -3 -81 -8 -100 -10 -19 -2 -60 -7 -90 -10 -30 -4 -66 -8 -80 -10
-14 -2 -54 -6 -90 -10 -36 -3 -81 -8 -100 -10 -19 -3 -60 -7 -90 -10 -71 -7
-226 -25 -335 -39 -16 -2 -57 -7 -90 -10 -121 -13 -273 -32 -335 -41 -14 -2
-52 -6 -85 -10 -33 -3 -71 -8 -85 -10 -23 -3 -62 -8 -170 -21 -25 -3 -56 -7
-70 -9 -14 -2 -65 -9 -115 -15 -49 -6 -135 -17 -190 -25 -55 -8 -125 -17 -155
-20 -30 -3 -62 -8 -70 -10 -8 -2 -40 -7 -70 -10 -46 -5 -163 -21 -280 -40 -87
-13 -117 -18 -131 -20 -9 -2 -40 -6 -70 -10 -30 -3 -61 -8 -69 -10 -8 -2 -31
-7 -50 -10 -278 -44 -454 -85 -524 -121 -124 -65 -221 -214 -228 -353 l-3 -46
5075 0 c4537 0 5076 -1 5087 -15 11 -13 15 -13 40 0 59 32 38 101 -62 205 -48
49 -82 74 -138 100 -62 29 -301 107 -364 119 -10 2 -45 11 -78 20 -50 13 -247
57 -320 72 -11 2 -31 6 -45 9 -14 3 -36 7 -50 10 -14 3 -79 16 -145 30 -66 13
-136 27 -155 30 -32 5 -68 12 -190 36 -25 4 -61 11 -80 14 -19 2 -48 7 -65 10
-70 13 -192 35 -220 39 -16 3 -100 17 -185 31 -85 14 -184 30 -220 35 -36 5
-74 11 -85 14 -11 2 -41 6 -66 10 -25 4 -57 9 -70 11 -13 2 -42 6 -64 10 -35
5 -107 16 -185 29 -14 2 -47 7 -75 11 -77 10 -118 16 -145 21 -57 10 -184 28
-274 40 -27 3 -56 7 -65 9 -9 1 -41 6 -71 10 -30 4 -62 9 -71 10 -9 2 -40 6
-70 10 -30 3 -79 10 -109 15 -30 5 -80 12 -110 15 -30 4 -98 13 -150 21 -52 8
-107 14 -122 14 -16 0 -29 3 -29 8 -1 4 -2 1236 -3 2739 -1 2171 -4 2735 -13
2745 -20 19 -16 34 25 81 20 24 55 66 77 93 148 180 266 304 362 376 69 52
331 257 350 273 31 27 186 133 593 402 401 266 466 305 655 398 116 56 244
117 285 135 41 18 98 43 125 55 28 12 109 46 180 75 124 50 288 126 330 152
132 84 226 147 255 168 19 15 82 62 140 105 58 43 186 142 285 220 206 161
267 206 312 229 40 20 43 20 43 -3 0 -26 71 -81 145 -113 68 -30 217 -79 315
-103 174 -44 451 38 609 181 l39 34 43 -36 c163 -136 376 -144 599 -21 91 50
205 161 242 235 l26 52 47 -70 c43 -65 96 -116 153 -148 42 -24 131 -12 218
27 108 50 134 65 187 105 l45 35 69 -22 c53 -17 93 -21 183 -22 104 0 120 3
170 27 63 30 111 74 145 132 35 60 72 181 80 258 l7 68 32 0 c39 0 147 34 301
95 66 26 121 49 123 50 1 1 14 58 28 126 17 84 27 164 29 247 3 142 -8 191
-71 311 -34 65 -39 82 -39 141 0 107 29 156 134 232 225 162 418 364 436 458
2 11 7 25 10 30 4 6 7 39 7 74 2 111 -64 213 -217 337 -36 29 -72 64 -81 77
-35 54 -12 144 60 228 37 44 47 77 80 274 26 152 38 268 38 375 1 70 -12 186
-22 205 -4 8 -8 18 -9 23 -6 50 -59 112 -130 148 -82 42 -231 31 -338 -25 -37
-18 -37 -18 -23 20 6 15 13 50 16 78 3 28 7 52 9 54 8 9 -28 127 -48 160 -35
54 -97 106 -153 128 -53 20 -208 26 -292 11 -90 -17 -197 -58 -229 -89 l-32
-31 -43 26 c-131 76 -231 177 -244 242 -7 39 -1 51 83 166 57 79 68 89 96 90
99 1 255 36 333 74 59 29 116 83 140 133 22 47 16 199 -11 255 -23 48 -80 105
-114 113 -41 10 -41 12 1 54 70 73 74 128 13 192 -20 21 -42 53 -50 71 -12 30
-12 37 5 65 11 18 24 32 30 32 16 0 11 62 -9 105 -35 77 -111 131 -192 136
l-35 3 1 115 c0 90 -4 123 -17 146 -24 45 -59 81 -96 100 -34 17 -39 18 -126
35 -58 12 -212 12 -241 1 -16 -7 -30 2 -73 50 -70 77 -161 124 -229 117 -94
-9 -165 -64 -249 -191 -86 -129 -147 -183 -191 -166 -27 10 -25 -2 -27 138 -1
108 0 117 22 140 67 73 79 190 30 314 -12 30 -54 57 -88 57 -45 0 -154 -68
-204 -126 l-19 -23 -40 60 c-43 64 -110 129 -130 125 -7 -2 -28 -11 -48 -21
-36 -17 -67 -16 -97 3 -10 7 -9 16 3 45 44 106 52 267 17 347 -23 53 -79 107
-145 139 -119 58 -199 223 -213 441 -7 112 -13 142 -40 177 -29 38 -84 56
-147 49 -43 -6 -138 -35 -176 -55 -20 -11 -21 -10 -22 56 -1 89 -3 98 -33 144
-54 82 -173 106 -271 56 -44 -22 -101 -74 -157 -145 -16 -20 -29 -24 -73 -24
-8 0 -19 0 -25 1 -15 2 -32 40 -37 85 -8 70 -72 153 -143 183 -102 43 -218 8
-335 -100 -26 -25 -86 -55 -119 -61 -39 -7 -82 34 -101 96 -8 27 -14 53 -14
56 6 39 -4 53 -52 77 -126 64 -245 10 -316 -145 -23 -49 -75 -191 -73 -198 1
-1 -4 -26 -10 -56 -18 -86 -107 -159 -197 -159 -35 0 -57 10 -133 62 -50 33
-98 62 -106 62 -8 1 -20 2 -26 3 -35 6 -103 -55 -122 -108 -5 -14 -9 -16 -20
-7 -11 9 -18 8 -31 -6 -15 -15 -17 -31 -11 -122 3 -58 8 -132 11 -164 6 -52 3
-63 -19 -97 -46 -69 -118 -65 -191 10 l-38 39 14 58 c14 60 19 214 7 270 -23
113 -141 178 -286 156 l-61 -10 0 51 c2 154 -58 293 -156 362 -47 34 -151 60
-232 59 -71 -1 -73 0 -74 25 -2 85 -47 163 -114 197 -16 9 -53 15 -84 15 -51
0 -59 3 -96 37 -89 82 -192 122 -287 110z m-7786 -5487 c-4 -23 40 -102 70
-123 62 -44 132 -52 294 -34 138 17 184 -72 119 -233 -14 -34 -21 -41 -36 -37
-22 7 -33 -2 -77 -67 -111 -162 -117 -285 -16 -304 22 -4 34 -12 35 -23 1 -22
1 -302 0 -323 -1 -17 -3 -17 -43 -1 -54 21 -53 20 -38 39 8 8 14 39 14 68 0
79 -39 149 -138 248 l-82 83 12 35 c28 78 12 167 -41 223 -27 28 -114 77 -138
77 -19 0 -247 136 -280 168 -58 55 -68 110 -31 168 16 23 15 24 -7 24 -12 0
-20 2 -18 4 2 3 76 8 164 12 88 3 161 7 162 8 1 1 19 1 40 1 25 0 37 -4 35
-13z m9735 -1311 c14 -1 28 -12 37 -30 19 -35 32 -41 123 -51 150 -18 224 -92
226 -229 1 -71 -3 -101 -24 -170 -12 -39 -11 -45 6 -57 20 -15 26 -11 -85 -51
-32 -11 -70 -41 -136 -107 -249 -250 -497 -433 -700 -515 -115 -46 -132 -45
-161 4 -60 105 -93 328 -69 481 3 22 8 59 11 84 3 25 13 80 22 123 l16 77 71
36 c39 20 100 57 136 82 66 47 250 224 286 275 17 25 30 29 104 40 47 7 92 12
100 11 8 -1 25 -3 37 -3z m2035 -250 c45 -22 97 -42 113 -44 44 -6 131 19 202
58 l62 34 12 -41 c33 -126 -25 -255 -165 -362 l-43 -33 -59 13 c-78 16 -308
10 -393 -10 -181 -46 -375 -198 -478 -377 -52 -90 -59 -184 -22 -265 13 -27
54 -80 91 -117 l68 -69 -46 -44 c-45 -44 -87 -121 -99 -179 -10 -50 -6 -137 9
-191 7 -29 11 -56 7 -60 -3 -5 -35 -34 -71 -64 -35 -30 -77 -66 -92 -79 -116
-101 -390 -298 -533 -383 -141 -84 -392 -202 -422 -199 -2 0 -21 -6 -44 -14
-23 -8 -68 -15 -99 -15 l-58 0 -6 38 c-29 183 -22 312 20 393 7 14 38 53 69
85 152 162 353 526 421 762 24 86 25 98 14 152 -10 49 -10 66 5 116 54 191
266 492 400 569 33 19 144 52 239 71 45 9 117 37 131 51 17 16 20 79 5 88 -14
8 -13 51 2 78 14 27 31 41 82 68 l39 21 24 -30 c51 -66 143 -100 258 -97 125
4 115 0 110 47 -11 110 62 118 247 29z m-3234 -298 c-1 -5 3 -51 7 -103 27
-289 -18 -531 -129 -698 -101 -152 -219 -217 -501 -278 -11 -2 -51 -7 -90 -10
l-70 -6 -20 38 c-11 22 -39 69 -63 106 -35 52 -42 70 -34 85 16 29 201 263
272 344 91 104 273 286 348 347 83 69 249 178 275 181 4 1 6 -2 5 -6z m-2198
-458 l48 -16 32 -97 c18 -53 36 -113 41 -132 4 -19 10 -45 12 -56 3 -12 8 -38
11 -59 4 -20 8 -40 10 -44 2 -3 7 -35 10 -71 4 -36 9 -78 13 -94 15 -80 9
-420 -11 -568 -28 -206 -123 -428 -250 -583 -45 -55 -157 -165 -168 -165 -4 0
-18 16 -32 36 l-25 36 -148 3 c-160 2 -200 10 -323 68 -286 134 -558 470 -773
958 -31 70 -73 174 -93 233 -26 75 -41 106 -53 107 -9 0 -34 9 -56 19 -30 14
-33 18 -12 14 22 -5 27 -3 27 13 0 20 39 60 101 106 44 33 47 33 41 2 -15 -79
54 -150 200 -209 165 -65 331 -85 382 -45 35 28 36 90 1 159 -28 55 -26 59 13
32 77 -53 179 -82 270 -77 76 4 85 7 219 71 204 99 292 180 297 277 6 101 77
128 216 82z m3325 -412 c-7 -16 -41 -91 -75 -168 -34 -77 -68 -153 -75 -170
-91 -199 -334 -791 -365 -889 -11 -34 -19 -42 -55 -49 -5 -1 -49 -55 -98 -120
-222 -295 -487 -575 -669 -709 -29 -21 -58 -42 -64 -47 -25 -21 -131 -74 -187
-96 -34 -12 -93 -26 -132 -29 -38 -4 -77 -9 -85 -11 -14 -3 -46 -8 -157 -20
-27 -3 -59 -8 -73 -10 -14 -2 -50 -7 -80 -11 -30 -3 -58 -8 -61 -10 -4 -2 -12
3 -19 11 -7 8 -18 15 -25 15 -8 0 -16 13 -20 28 -5 25 14 48 252 288 250 252
298 303 453 483 246 285 415 532 485 706 39 99 45 121 50 202 8 118 41 195
123 279 133 138 397 256 737 329 17 4 46 10 65 15 19 4 47 8 62 9 26 1 26 0
13 -26z m-5128 11 c-3 -3 -12 -4 -19 -1 -8 3 -5 6 6 6 11 1 17 -2 13 -5z
m3383 -698 c37 -12 60 -36 60 -62 0 -38 -98 -218 -203 -374 -188 -278 -167
-255 -327 -347 -79 -46 -147 -83 -151 -83 -8 0 5 46 63 235 74 238 172 471
245 581 33 49 36 52 80 52 25 1 48 3 50 5 7 7 156 1 183 -7z"/>
</g>
</svg>
