<svg id="rundsav" xmlns="http://www.w3.org/2000/svg" width="194.25mm" height="174.62mm" viewBox="0 0 550.64 494.98">
  <defs>
    <style>
      .cls-1 {
        fill: #363347;
      }

      .cls-2 {
        fill: #fff;
      }

      .cls-3 {
        fill: #070102;
      }
    </style>
  </defs>
  <title>rundsav</title>
  <g>
    <g>
      <g>
        <circle class="cls-1" cx="298.99" cy="165.16" r="117.78"/>
        <path class="cls-1" d="M388.88,133.06s-1.32-27.16,16.57-46.38c0,0,12.92-13.25,22-14.58L424,125.77Z" transform="translate(-129.8 -72.1)"/>
        <path class="cls-1" d="M424.47,126.77s5.31-26.68,27.33-41c0,0,15.75-9.71,24.91-8.79L460.3,128.22Z" transform="translate(-129.8 -72.1)"/>
        <path class="cls-1" d="M457.89,129.84s15.33-22.47,41.19-27c0,0,18.3-2.78,26.37,1.66L490.3,145.21Z" transform="translate(-129.8 -72.1)"/>
        <path class="cls-1" d="M490.35,146.61s21.49-16.66,47.49-13c0,0,18.27,3,24.58,9.69l-46,27.93Z" transform="translate(-129.8 -72.1)"/>
        <path class="cls-1" d="M356.43,150s-7.66-26.1,5.23-49c0,0,9.46-15.91,18-19.33l9.2,53Z" transform="translate(-129.8 -72.1)"/>
        <path class="cls-1" d="M331.79,177.75s-15.58-22.29-10.66-48.08c0,0,3.89-18.1,10.89-24.07l25.63,47.29Z" transform="translate(-129.8 -72.1)"/>
        <path class="cls-1" d="M535.7,271.85s22.65,15.06,27.49,40.86c0,0,3,18.27-1.34,26.39l-41.13-34.67Z" transform="translate(-129.8 -72.1)"/>
        <path class="cls-1" d="M519.65,304.22s18.31,20.11,16.74,46.32c0,0-1.53,18.44-7.72,25.26L497.2,332.19Z" transform="translate(-129.8 -72.1)"/>
        <path class="cls-1" d="M497.33,329.29s9,25.68-2.72,49.18c0,0-8.64,16.37-17,20.23l-11.89-52.46Z" transform="translate(-129.8 -72.1)"/>
        <path class="cls-1" d="M464.56,345.45s.66,27.19-17.71,46c0,0-13.24,12.92-22.38,14l4.81-53.57Z" transform="translate(-129.8 -72.1)"/>
        <path class="cls-1" d="M541.35,235.68S566.9,245,577.66,269c0,0,7.19,17,4.87,26l-48.11-24.06Z" transform="translate(-129.8 -72.1)"/>
        <path class="cls-1" d="M533.63,199.37s27.2.7,45,20c0,0,12.25,13.87,12.9,23l-53.27-7.45Z" transform="translate(-129.8 -72.1)"/>
        <path class="cls-1" d="M514.76,169.64s25-10.7,49.24-.61c0,0,16.93,7.5,21.34,15.58L533.81,200Z" transform="translate(-129.8 -72.1)"/>
        <path class="cls-1" d="M335.76,303.79s-25.61,9.15-49.19-2.39c0,0-16.43-8.52-20.34-16.85L318.6,272.3Z" transform="translate(-129.8 -72.1)"/>
        <path class="cls-1" d="M319.41,271.57s-27.07,2.65-47.14-14.27c0,0-13.87-12.25-15.64-21.29l53.78.84Z" transform="translate(-129.8 -72.1)"/>
        <path class="cls-1" d="M312.65,238.69s-25.95-8.15-37.79-31.58c0,0-8-16.71-6.06-25.72L318,203.22Z" transform="translate(-129.8 -72.1)"/>
        <path class="cls-1" d="M319.28,202.76S297.1,187,293,161.09c0,0-2.45-18.35,2.13-26.33l40.08,35.88Z" transform="translate(-129.8 -72.1)"/>
        <path class="cls-1" d="M361.38,329.93s-22.75,14.91-48.38,9.21c0,0-18-4.43-23.73-11.61l48-24.19Z" transform="translate(-129.8 -72.1)"/>
        <path class="cls-1" d="M395.1,345.45s-16.81,21.38-42.92,24.16c0,0-18.44,1.54-26.19-3.44l37.82-38.24Z" transform="translate(-129.8 -72.1)"/>
        <path class="cls-1" d="M430.22,348.09s-6.37,26.44-29,39.85c0,0-16.13,9.08-25.24,7.79l18.44-50.53Z" transform="translate(-129.8 -72.1)"/>
      </g>
      <circle class="cls-2" cx="296.6" cy="171.46" r="101.89"/>
      <circle cx="296.61" cy="170.99" r="22.21"/>
    </g>
    <rect y="166.59" width="550.64" height="83.2" rx="10.46" ry="10.46"/>
    <rect x="22.97" y="76.26" width="273" height="108.8" rx="11.77" ry="11.77"/>
    <rect class="cls-1" x="17.23" y="174.54" width="524.13" height="65.53" rx="8.24" ry="8.24"/>
    <path class="cls-1" d="M187.45,179.24V203.6h55.16s21.37-1,20.38-24.36Z" transform="translate(-129.8 -72.1)"/>
    <path class="cls-1" d="M187.45,222.22v14.9H405.12v-7.45H336.54s-14.41-8.95,0-20.38h68.58V175H283.86s-3,44.23-37.27,44.73l-59.14-.5Z" transform="translate(-129.8 -72.1)"/>
    <rect class="cls-3" x="65.6" y="249.79" width="29.83" height="245.19"/>
    <rect class="cls-3" x="447.27" y="249.79" width="29.83" height="245.19"/>
    <rect class="cls-3" x="80.52" y="372.38" width="381.24" height="13.26"/>
  </g>
</svg>
