<svg id="Layer_2" data-name="Layer 2" xmlns="http://www.w3.org/2000/svg" width="95.25mm" height="86.75mm" viewBox="0 0 270 245.9">
  <defs>
    <style>
      .cls-1 {
        fill: #fff;
      }

      .cls-2 {
        fill: #363347;
      }

      .cls-3 {
        fill: #bbb8d0;
      }
    </style>
  </defs>
  <title>skrivedims</title>
  <rect class="cls-1" x="185" y="125.9" width="85" height="3" rx="1.5" ry="1.5"/>
  <g>
    <rect class="cls-2" width="158" height="245.9" rx="12" ry="12"/>
    <rect class="cls-1" x="25" y="54.9" width="109" height="3" rx="1.5" ry="1.5"/>
    <rect class="cls-1" x="25" y="72.9" width="109" height="3" rx="1.5" ry="1.5"/>
    <rect class="cls-1" x="25" y="88.9" width="109" height="3" rx="1.5" ry="1.5"/>
    <rect class="cls-1" x="25" y="104.9" width="109" height="3" rx="1.5" ry="1.5"/>
    <rect class="cls-1" x="25" y="120.9" width="109" height="3" rx="1.5" ry="1.5"/>
    <rect class="cls-1" x="25" y="136.9" width="109" height="3" rx="1.5" ry="1.5"/>
    <rect class="cls-1" x="25" y="152.9" width="109" height="3" rx="1.5" ry="1.5"/>
    <rect class="cls-1" x="25" y="168.9" width="109" height="3" rx="1.5" ry="1.5"/>
    <rect class="cls-1" x="25" y="184.9" width="109" height="3" rx="1.5" ry="1.5"/>
  </g>
  <g>
    <path class="cls-3" d="M312.44,259l4.77-8.92s4.14-15.6,15-38.2l28.65-50.62s5.41-10.19,16.55-3.82,8.28,13.37,8.28,13.37L351.6,232.2S338.23,249.77,330,259l-4.46,7.64Z" transform="translate(-211 -124.1)"/>
    <polygon class="cls-3" points="99.85 137.13 88.39 145.73 88.39 171.2 89.82 172.15 111.94 158.62 113.22 144.46 99.85 137.13"/>
    <path class="cls-1" d="M299.7,295.62l10.35-17.83s-3-5.41,3-4.62c0,0,4,4.14-1.92,4.78l-10.5,18.62Z" transform="translate(-211 -124.1)"/>
    <polygon class="cls-1" points="99.69 136.82 101.12 135.22 114.17 142.55 113.38 144.62 99.69 136.82"/>
    <polygon class="cls-1" points="109.4 120.74 116.88 101.48 135.18 111.98 122.29 128.22 109.4 120.74"/>
    <path class="cls-1" d="M341.73,217.78l26.74-47.12a2.54,2.54,0,0,1,3.34-1.43c2.55.79-.79,5.25-.79,5.25l-25.63,45.69a4,4,0,0,1-3.66,2.07S339.18,220.48,341.73,217.78Z" transform="translate(-211 -124.1)"/>
  </g>
</svg>
