<svg id="Step_2" data-name="Step 2" xmlns="http://www.w3.org/2000/svg" width="554.4" height="432.75" viewBox="0 0 554.4 432.75">
  <defs>
    <style>
      .cls-1 {
        fill: #fffdf6;
      }

      .cls-2 {
        font-size: 38px;
        font-family: Raleway-Bold, Raleway;
      }

      .cls-3 {
        font-weight: 700;
      }

      .cls-4 {
        letter-spacing: -0.03em;
      }

      .cls-5 {
        font-size: 36px;
        font-family: Raleway-Regular, Raleway;
      }

      .cls-6 {
        letter-spacing: -0.02em;
      }

      .cls-7 {
        letter-spacing: -0.01em;
      }

      .cls-8 {
        letter-spacing: -0.02em;
      }

      .cls-9 {
        letter-spacing: -0.03em;
      }

      .cls-10 {
        letter-spacing: -0.02em;
      }

      .cls-11 {
        letter-spacing: -0.03em;
      }

      .cls-12 {
        letter-spacing: -0.05em;
      }

      .cls-13 {
        letter-spacing: -0.02em;
      }

      .cls-14 {
        letter-spacing: 0em;
      }

      .cls-15 {
        letter-spacing: -0.01em;
      }

      .cls-16 {
        letter-spacing: -0.02em;
      }

      .cls-17 {
        letter-spacing: -0.02em;
      }

      .cls-18 {
        letter-spacing: 0em;
      }

      .cls-19 {
        letter-spacing: -0.03em;
      }

      .cls-20 {
        letter-spacing: 0em;
      }

      .cls-21 {
        fill: #41444e;
      }

      .cls-22 {
        fill: #fff;
      }

      .cls-23 {
        fill: #a7afb7;
      }
    </style>
  </defs>
  <title>step2</title>
  <polygon class="cls-1" points="272.2 432.75 242.58 374.24 177.59 365.47 224.09 319.22 212.35 254.7 270.7 284.63 328.44 253.52 318 318.27 365.43 363.56 300.63 373.65 272.2 432.75"/>
  <rect class="cls-1" width="554.4" height="378" rx="12" ry="12"/>
  <text class="cls-2" transform="translate(50.45 66.74)"><tspan class="cls-3"><tspan xml:space="preserve">                 </tspan><tspan class="cls-4" x="155.03" y="0"> </tspan><tspan x="163.09" y="0">Tilbud</tspan></tspan><tspan class="cls-5"><tspan class="cls-6" x="0" y="88.8">E</tspan><tspan x="21.31" y="88.8">f</tspan><tspan class="cls-7" x="33.19" y="88.8">t</tspan><tspan x="44.78" y="88.8">e</tspan><tspan class="cls-8" x="65.92" y="88.8">r</tspan><tspan class="cls-9" x="77.69" y="88.8"> </tspan><tspan class="cls-10" x="85.9" y="88.8">v</tspan><tspan x="104.44" y="88.8">o</tspan><tspan class="cls-11" x="125.85" y="88.8">r</tspan><tspan x="137.55" y="88.8">es indledende snak </tspan><tspan x="0" y="132">om mulighederne og je</tspan><tspan class="cls-11" x="389.69" y="132">r</tspan><tspan x="401.39" y="132">es </tspan><tspan x="0" y="175.2">øns</tspan><tspan class="cls-9" x="59.94" y="175.2">k</tspan><tspan x="78.05" y="175.2">e</tspan><tspan class="cls-12" x="99.18" y="175.2">r</tspan><tspan x="110.16" y="175.2">, udarbejde</tspan><tspan class="cls-13" x="298.44" y="175.2">r</tspan><tspan class="cls-9" x="310.21" y="175.2"> </tspan><tspan x="318.42" y="175.2">vi </tspan><tspan class="cls-14" x="354.63" y="175.2">e</tspan><tspan x="375.62" y="175.2">t </tspan><tspan x="0" y="218.4">u</tspan><tspan class="cls-11" x="21.38" y="218.4">f</tspan><tspan x="32.33" y="218.4">orplig</tspan><tspan class="cls-15" x="128.48" y="218.4">t</tspan><tspan x="140.07" y="218.4">ende </tspan><tspan class="cls-16" x="234.9" y="218.4">o</tspan><tspan class="cls-17" x="255.63" y="218.4">v</tspan><tspan x="274.17" y="218.4">erslag på </tspan><tspan class="cls-9" x="0" y="261.6">k</tspan><tspan x="18.11" y="261.6">øk</tspan><tspan class="cls-9" x="58.61" y="261.6">k</tspan><tspan x="76.72" y="261.6">en</tspan><tspan class="cls-18" x="118.84" y="261.6">e</tspan><tspan x="139.82" y="261.6">t ti</tspan><tspan class="cls-19" x="180.97" y="261.6">l</tspan><tspan x="189.65" y="261.6" xml:space="preserve"> je</tspan><tspan class="cls-12" x="228.06" y="261.6">r</tspan><tspan class="cls-20" x="239.04" y="261.6">.</tspan></tspan></text>
  <g>
    <rect class="cls-21" x="366.2" y="28.55" width="43.34" height="67.45" rx="12" ry="12"/>
    <rect class="cls-22" x="373.06" y="43.61" width="29.9" height="0.82" rx="0.41" ry="0.41"/>
    <rect class="cls-22" x="373.06" y="48.55" width="29.9" height="0.82" rx="0.41" ry="0.41"/>
    <rect class="cls-22" x="373.06" y="52.94" width="29.9" height="0.82" rx="0.41" ry="0.41"/>
    <rect class="cls-22" x="373.06" y="57.32" width="29.9" height="0.82" rx="0.41" ry="0.41"/>
    <rect class="cls-22" x="373.06" y="61.71" width="29.9" height="0.82" rx="0.41" ry="0.41"/>
    <rect class="cls-22" x="373.06" y="66.1" width="29.9" height="0.82" rx="0.41" ry="0.41"/>
    <rect class="cls-22" x="373.06" y="70.49" width="29.9" height="0.82" rx="0.41" ry="0.41"/>
    <rect class="cls-22" x="373.06" y="74.88" width="29.9" height="0.82" rx="0.41" ry="0.41"/>
    <rect class="cls-22" x="373.06" y="79.27" width="29.9" height="0.82" rx="0.41" ry="0.41"/>
    <path class="cls-23" d="M634.82,228.55l1.31-2.44a66.82,66.82,0,0,1,4.11-10.48l7.86-13.88a3.1,3.1,0,0,1,4.54-1.05c3.06,1.74,2.27,3.67,2.27,3.67l-9.34,16.83s-3.67,4.82-5.94,7.35l-1.23,2.1Z" transform="translate(-240.8 -163)"/>
    <polygon class="cls-23" points="393.59 66.17 390.44 68.52 390.44 75.51 390.84 75.77 396.91 72.06 397.26 68.17 393.59 66.17"/>
    <path class="cls-22" d="M631.33,238.6l2.84-4.89s-.83-1.49.83-1.27c0,0,1.09,1.14-.52,1.31l-2.89,5.11Z" transform="translate(-240.8 -163)"/>
    <polygon class="cls-22" points="393.54 66.08 393.94 65.64 397.52 67.65 397.3 68.22 393.54 66.08"/>
    <polygon class="cls-22" points="396.21 61.67 398.26 56.38 403.28 59.27 399.74 63.72 396.21 61.67"/>
    <path class="cls-22" d="M642.86,217.25l7.33-12.93a.7.7,0,0,1,.92-.39c.7.22-.22,1.44-.22,1.44l-7,12.53a1.09,1.09,0,0,1-1,.57S642.16,218,642.86,217.25Z" transform="translate(-240.8 -163)"/>
  </g>
</svg>
