<svg id="Step_2" data-name="Step 2" xmlns="http://www.w3.org/2000/svg" width="560" height="424.66" viewBox="0 0 560 424.66">
  <defs>
    <style>
      .cls-1 {
        fill: #fffdf6;
      }

      .cls-2 {
        font-size: 38px;
        font-family: Raleway-Bold, Raleway;
      }

      .cls-3 {
        font-weight: 700;
      }

      .cls-4 {
        letter-spacing: -0.03em;
      }

      .cls-5 {
        font-size: 36px;
        font-family: Raleway-Regular, Raleway;
      }

      .cls-6 {
        letter-spacing: -0.02em;
      }

      .cls-7 {
        letter-spacing: -0.01em;
      }

      .cls-8 {
        letter-spacing: -0.02em;
      }

      .cls-9 {
        letter-spacing: -0.03em;
      }

      .cls-10 {
        letter-spacing: -0.02em;
      }

      .cls-11 {
        letter-spacing: -0.03em;
      }

      .cls-12 {
        letter-spacing: -0.05em;
      }

      .cls-13 {
        letter-spacing: -0.02em;
      }

      .cls-14 {
        letter-spacing: 0em;
      }

      .cls-15 {
        letter-spacing: -0.01em;
      }

      .cls-16 {
        letter-spacing: -0.02em;
      }

      .cls-17 {
        letter-spacing: -0.02em;
      }

      .cls-18 {
        letter-spacing: 0em;
      }

      .cls-19 {
        letter-spacing: -0.03em;
      }

      .cls-20 {
        letter-spacing: 0em;
      }
    </style>
  </defs>
  <title>step2</title>
  <g>
    <polygon class="cls-1" points="281 424.66 251.38 366.15 186.39 357.38 232.89 311.13 221.15 246.61 279.5 276.53 337.24 245.43 326.8 310.18 374.23 355.47 309.43 365.56 281 424.66"/>
    <rect class="cls-1" width="560" height="369.91" rx="12" ry="12"/>
  </g>
  <text class="cls-2" transform="translate(59.25 58.65)"><tspan class="cls-3"><tspan xml:space="preserve">                 </tspan><tspan class="cls-4" x="155.03" y="0"> </tspan><tspan x="163.09" y="0">Tilbud</tspan></tspan><tspan class="cls-5"><tspan class="cls-6" x="0" y="43.2">E</tspan><tspan x="21.31" y="43.2">f</tspan><tspan class="cls-7" x="33.19" y="43.2">t</tspan><tspan x="44.78" y="43.2">e</tspan><tspan class="cls-8" x="65.92" y="43.2">r</tspan><tspan class="cls-9" x="77.69" y="43.2"> </tspan><tspan class="cls-10" x="85.9" y="43.2">v</tspan><tspan x="104.44" y="43.2">o</tspan><tspan class="cls-11" x="125.85" y="43.2">r</tspan><tspan x="137.55" y="43.2">es indledende snak </tspan><tspan x="0" y="86.4">om mulighederne og je</tspan><tspan class="cls-11" x="389.69" y="86.4">r</tspan><tspan x="401.39" y="86.4">es </tspan><tspan x="0" y="129.6">øns</tspan><tspan class="cls-9" x="59.94" y="129.6">k</tspan><tspan x="78.05" y="129.6">e</tspan><tspan class="cls-12" x="99.18" y="129.6">r</tspan><tspan x="110.16" y="129.6">, udarbejde</tspan><tspan class="cls-13" x="298.44" y="129.6">r</tspan><tspan class="cls-9" x="310.21" y="129.6"> </tspan><tspan x="318.42" y="129.6">vi </tspan><tspan class="cls-14" x="354.63" y="129.6">e</tspan><tspan x="375.62" y="129.6">t </tspan><tspan x="0" y="172.8">u</tspan><tspan class="cls-11" x="21.38" y="172.8">f</tspan><tspan x="32.33" y="172.8">orplig</tspan><tspan class="cls-15" x="128.48" y="172.8">t</tspan><tspan x="140.07" y="172.8">ende </tspan><tspan class="cls-16" x="234.9" y="172.8">o</tspan><tspan class="cls-17" x="255.63" y="172.8">v</tspan><tspan x="274.17" y="172.8">erslag på </tspan><tspan class="cls-9" x="0" y="216">k</tspan><tspan x="18.11" y="216">øk</tspan><tspan class="cls-9" x="58.61" y="216">k</tspan><tspan x="76.72" y="216">en</tspan><tspan class="cls-18" x="118.84" y="216">e</tspan><tspan x="139.82" y="216">t ti</tspan><tspan class="cls-19" x="180.97" y="216">l</tspan><tspan x="189.65" y="216" xml:space="preserve"> je</tspan><tspan class="cls-12" x="228.06" y="216">r</tspan><tspan class="cls-20" x="239.04" y="216">.</tspan></tspan></text>
</svg>
