<svg id="Step_6" data-name="Step 6" xmlns="http://www.w3.org/2000/svg" width="560" height="424.66" viewBox="0 0 560 424.66">
  <defs>
    <style>
      .cls-1 {
        fill: #fffdf6;
      }

      .cls-2 {
        font-size: 38px;
        font-family: Raleway-Bold, Raleway;
      }

      .cls-3 {
        font-weight: 700;
      }

      .cls-4 {
        letter-spacing: -0.01em;
      }

      .cls-5 {
        letter-spacing: 0em;
      }

      .cls-6 {
        letter-spacing: -0.01em;
      }

      .cls-7 {
        letter-spacing: 0em;
      }

      .cls-8 {
        font-size: 36px;
        font-family: Raleway-Regular, Raleway;
      }

      .cls-9 {
        letter-spacing: -0.01em;
      }

      .cls-10 {
        letter-spacing: 0em;
      }

      .cls-11 {
        letter-spacing: -0.01em;
      }

      .cls-12 {
        letter-spacing: -0.02em;
      }

      .cls-13 {
        letter-spacing: -0.03em;
      }

      .cls-14 {
        letter-spacing: -0.03em;
      }

      .cls-15 {
        letter-spacing: -0.02em;
      }

      .cls-16 {
        letter-spacing: -0.03em;
      }

      .cls-17 {
        letter-spacing: -0.03em;
      }

      .cls-18 {
        letter-spacing: -0.03em;
      }

      .cls-19 {
        letter-spacing: 0em;
      }

      .cls-20 {
        letter-spacing: -0.02em;
      }

      .cls-21 {
        letter-spacing: 0em;
      }

      .cls-22 {
        letter-spacing: 0em;
      }

      .cls-23 {
        letter-spacing: -0.02em;
      }

      .cls-24 {
        letter-spacing: 0em;
      }

      .cls-25 {
        letter-spacing: -0.05em;
      }
    </style>
  </defs>
  <title>step6</title>
  <g>
    <polygon class="cls-1" points="281 424.66 251.38 366.15 186.39 357.38 232.89 311.13 221.15 246.61 279.5 276.53 337.24 245.43 326.8 310.18 374.23 355.47 309.43 365.56 281 424.66"/>
    <rect class="cls-1" width="560" height="369.91" rx="12" ry="12"/>
  </g>
  <text class="cls-2" transform="translate(59.25 47.65)"><tspan class="cls-3"><tspan xml:space="preserve">              </tspan><tspan class="cls-4" x="127.67" y="0">M</tspan><tspan x="160.28" y="0">o</tspan><tspan class="cls-5" x="183.31" y="0">n</tspan><tspan class="cls-6" x="206.07" y="0">t</tspan><tspan class="cls-7" x="220.17" y="0">ering</tspan></tspan><tspan class="cls-8"><tspan class="cls-9" x="0" y="43.2">M</tspan><tspan x="31.32" y="43.2">o</tspan><tspan class="cls-10" x="52.74" y="43.2">n</tspan><tspan class="cls-11" x="73.55" y="43.2">t</tspan><tspan x="85.14" y="43.2">eringen e</tspan><tspan class="cls-12" x="242.42" y="43.2">r</tspan><tspan x="254.19" y="43.2" xml:space="preserve"> sids</tspan><tspan class="cls-11" x="328.68" y="43.2">t</tspan><tspan x="340.27" y="43.2">e s</tspan><tspan class="cls-11" x="388.11" y="43.2">t</tspan><tspan x="399.71" y="43.2">ep, </tspan><tspan x="0" y="86.4">inden je</tspan><tspan class="cls-13" x="131.76" y="86.4">r</tspan><tspan x="143.46" y="86.4">es </tspan><tspan class="cls-14" x="191.3" y="86.4">k</tspan><tspan x="209.41" y="86.4">øk</tspan><tspan class="cls-14" x="249.91" y="86.4">k</tspan><tspan x="268.02" y="86.4">en stå</tspan><tspan class="cls-15" x="368.53" y="86.4">r</tspan><tspan x="380.3" y="86.4" xml:space="preserve"> kla</tspan><tspan class="cls-12" x="437.97" y="86.4">r</tspan><tspan x="449.74" y="86.4"> </tspan><tspan x="0" y="129.6">ti</tspan><tspan class="cls-16" x="19.91" y="129.6">l</tspan><tspan x="28.58" y="129.6" xml:space="preserve"> brug.</tspan><tspan class="cls-17" x="123.05" y="129.6"> </tspan><tspan x="131" y="129.6">Vi </tspan><tspan class="cls-18" x="172.47" y="129.6">k</tspan><tspan class="cls-19" x="190.58" y="129.6">omme</tspan><tspan class="cls-15" x="299.3" y="129.6">r</tspan><tspan x="311.07" y="129.6" xml:space="preserve"> og </tspan><tspan x="0" y="172.8">sø</tspan><tspan class="cls-13" x="38.95" y="172.8">r</tspan><tspan x="50.65" y="172.8">ge</tspan><tspan class="cls-15" x="94.03" y="172.8">r</tspan><tspan x="105.8" y="172.8"> </tspan><tspan class="cls-13" x="114.98" y="172.8">f</tspan><tspan x="125.93" y="172.8">o</tspan><tspan class="cls-20" x="147.35" y="172.8">r</tspan><tspan x="159.12" y="172.8" xml:space="preserve"> mo</tspan><tspan class="cls-21" x="222.8" y="172.8">n</tspan><tspan class="cls-11" x="243.61" y="172.8">t</tspan><tspan x="255.2" y="172.8">eringen </tspan><tspan class="cls-22" x="391.35" y="172.8">a</tspan><tspan class="cls-23" x="410.83" y="172.8">f</tspan><tspan x="421.95" y="172.8"> </tspan><tspan x="0" y="216">je</tspan><tspan class="cls-13" x="29.23" y="216">r</tspan><tspan x="40.93" y="216">es </tspan><tspan class="cls-14" x="88.78" y="216">k</tspan><tspan x="106.88" y="216">øk</tspan><tspan class="cls-14" x="147.38" y="216">k</tspan><tspan x="165.49" y="216">en og sik</tspan><tspan class="cls-13" x="314.1" y="216">r</tspan><tspan x="325.8" y="216">e</tspan><tspan class="cls-15" x="346.93" y="216">r</tspan><tspan x="358.7" y="216" xml:space="preserve">      </tspan><tspan class="cls-14" x="0" y="259.2">k</tspan><tspan x="18.11" y="259.2">or</tspan><tspan class="cls-13" x="52.16" y="259.2">r</tspan><tspan x="63.86" y="259.2">ekt install</tspan><tspan class="cls-22" x="222.95" y="259.2">a</tspan><tspan x="242.42" y="259.2">tion </tspan><tspan class="cls-24" x="313.92" y="259.2">a</tspan><tspan class="cls-23" x="333.39" y="259.2">f</tspan><tspan x="344.52" y="259.2" xml:space="preserve"> sa</tspan><tspan class="cls-10" x="390.85" y="259.2">m</tspan><tspan x="423.75" y="259.2">t</tspan><tspan x="435.81" y="259.2">-</tspan><tspan x="0" y="302.4">lige </tspan><tspan class="cls-14" x="70.2" y="302.4">k</tspan><tspan x="88.31" y="302.4">øk</tspan><tspan class="cls-14" x="128.81" y="302.4">k</tspan><tspan x="146.92" y="302.4">eneleme</tspan><tspan class="cls-10" x="295.31" y="302.4">n</tspan><tspan class="cls-11" x="316.11" y="302.4">t</tspan><tspan x="327.71" y="302.4">e</tspan><tspan class="cls-25" x="348.84" y="302.4">r</tspan><tspan x="359.82" y="302.4">. </tspan></tspan></text>
</svg>
