<svg id="step_3" data-name="step 3" xmlns="http://www.w3.org/2000/svg" width="560" height="434.91" viewBox="0 0 560 434.91">
  <defs>
    <style>
      .cls-1 {
        fill: #fffdf6;
      }

      .cls-2 {
        font-size: 38px;
        font-family: Raleway-Bold, Raleway;
      }

      .cls-3 {
        font-weight: 700;
      }

      .cls-4 {
        font-size: 36px;
        font-family: Raleway-Regular, Raleway;
      }

      .cls-5 {
        letter-spacing: 0em;
      }

      .cls-6 {
        letter-spacing: -0.02em;
      }

      .cls-7 {
        letter-spacing: -0.02em;
      }

      .cls-8 {
        letter-spacing: -0.03em;
      }

      .cls-9 {
        letter-spacing: 0em;
      }

      .cls-10 {
        letter-spacing: -0.03em;
      }

      .cls-11 {
        letter-spacing: 0em;
      }

      .cls-12 {
        letter-spacing: -0.02em;
      }

      .cls-13 {
        letter-spacing: -0.01em;
      }

      .cls-14 {
        letter-spacing: -0.01em;
      }

      .cls-15 {
        letter-spacing: -0.02em;
      }

      .cls-16 {
        letter-spacing: -0.01em;
      }

      .cls-17 {
        letter-spacing: -0.05em;
      }

      .cls-18 {
        fill: #41444e;
      }

      .cls-19 {
        fill: none;
        stroke: #fff;
        stroke-miterlimit: 10;
        stroke-width: 2px;
      }
    </style>
  </defs>
  <title>step3</title>
  <polygon class="cls-1" points="281 0 251.38 59.92 186.39 68.91 232.89 116.27 221.15 182.35 279.5 151.7 337.24 183.55 326.8 117.25 374.23 70.86 309.43 60.52 281 0"/>
  <rect class="cls-1" y="56.07" width="560" height="378.84" rx="12" ry="12"/>
  <text class="cls-2" transform="translate(55.25 121.65)"><tspan class="cls-3"><tspan xml:space="preserve">               Opmåling</tspan></tspan><tspan class="cls-4"><tspan class="cls-5" x="0" y="88.8">N</tspan><tspan x="27.61" y="88.8">å</tspan><tspan class="cls-6" x="47.23" y="88.8">r</tspan><tspan x="59" y="88.8" xml:space="preserve"> I ha</tspan><tspan class="cls-7" x="126.9" y="88.8">r</tspan><tspan x="138.67" y="88.8" xml:space="preserve"> god</tspan><tspan class="cls-8" x="213.91" y="88.8">k</tspan><tspan class="cls-9" x="232.02" y="88.8">endt je</tspan><tspan class="cls-10" x="347" y="88.8">r</tspan><tspan x="358.7" y="88.8">es </tspan><tspan x="0" y="132">tilbud, </tspan><tspan class="cls-8" x="112.96" y="132">k</tspan><tspan x="131.07" y="132">omme</tspan><tspan class="cls-6" x="239.79" y="132">r</tspan><tspan class="cls-8" x="251.56" y="132"> </tspan><tspan x="259.77" y="132">vi </tspan><tspan class="cls-10" x="295.99" y="132">f</tspan><tspan x="306.93" y="132" xml:space="preserve">orbi    </tspan><tspan x="0" y="175.2">hjemm</tspan><tspan class="cls-11" x="116.39" y="175.2">e</tspan><tspan x="137.37" y="175.2">t og måle</tspan><tspan class="cls-12" x="295.09" y="175.2">r</tspan><tspan x="306.86" y="175.2" xml:space="preserve"> p</tspan><tspan class="cls-13" x="338.25" y="175.2">r</tspan><tspan x="350.64" y="175.2">æcist </tspan><tspan x="0" y="218.4">op, så de</tspan><tspan class="cls-6" x="150.77" y="218.4">r</tspan><tspan x="162.54" y="218.4" xml:space="preserve"> e</tspan><tspan class="cls-7" x="192.85" y="218.4">r</tspan><tspan x="204.62" y="218.4" xml:space="preserve"> sty</tspan><tspan class="cls-6" x="262.9" y="218.4">r</tspan><tspan x="274.68" y="218.4" xml:space="preserve"> på </tspan><tspan class="cls-14" x="334.87" y="218.4">h</tspan><tspan class="cls-15" x="355.35" y="218.4">v</tspan><tspan x="373.89" y="218.4">e</tspan><tspan class="cls-6" x="395.02" y="218.4">r</tspan><tspan x="406.8" y="218.4" xml:space="preserve"> en </tspan><tspan x="0" y="261.6">millim</tspan><tspan class="cls-11" x="101.45" y="261.6">e</tspan><tspan class="cls-16" x="122.43" y="261.6">t</tspan><tspan x="134.03" y="261.6">e</tspan><tspan class="cls-17" x="155.16" y="261.6">r</tspan><tspan x="166.14" y="261.6">. </tspan></tspan></text>
  <g>
    <rect class="cls-18" x="675.66" y="237.18" width="26.69" height="158.57" transform="translate(1204.18 22.44) rotate(146)"/>
    <line class="cls-19" x1="411.62" y1="89.99" x2="405.39" y2="94.19"/>
    <line class="cls-19" x1="416.4" y1="97.08" x2="410.17" y2="101.28"/>
    <line class="cls-19" x1="421.18" y1="104.17" x2="414.95" y2="108.37"/>
    <line class="cls-19" x1="425.96" y1="111.26" x2="419.73" y2="115.46"/>
    <line class="cls-19" x1="434.02" y1="116.13" x2="424.51" y2="122.55"/>
    <line class="cls-19" x1="435.52" y1="125.43" x2="429.29" y2="129.63"/>
    <line class="cls-19" x1="440.31" y1="132.52" x2="434.08" y2="136.72"/>
    <line class="cls-19" x1="444.58" y1="138.86" x2="438.35" y2="143.06"/>
    <line class="cls-19" x1="448.85" y1="145.19" x2="442.62" y2="149.4"/>
    <line class="cls-19" x1="456.4" y1="149.32" x2="446.9" y2="155.73"/>
    <line class="cls-19" x1="457.4" y1="157.87" x2="451.17" y2="162.07"/>
    <line class="cls-19" x1="461.68" y1="164.21" x2="455.45" y2="168.41"/>
    <line class="cls-19" x1="465.95" y1="170.54" x2="459.72" y2="174.74"/>
    <line class="cls-19" x1="470.22" y1="176.88" x2="464" y2="181.08"/>
    <line class="cls-19" x1="477.77" y1="181.01" x2="468.27" y2="187.42"/>
    <line class="cls-19" x1="478.77" y1="189.55" x2="472.54" y2="193.75"/>
    <line class="cls-19" x1="483.05" y1="195.89" x2="476.82" y2="200.09"/>
    <line class="cls-19" x1="487.32" y1="202.23" x2="481.09" y2="206.43"/>
    <line class="cls-19" x1="491.6" y1="208.56" x2="485.37" y2="212.76"/>
  </g>
</svg>
