<svg id="Step_5" data-name="Step 5" xmlns="http://www.w3.org/2000/svg" width="560" height="425.16" viewBox="0 0 560 425.16">
  <defs>
    <style>
      .cls-1 {
        fill: #fffdf6;
      }

      .cls-2 {
        font-size: 38px;
        font-family: Raleway-Bold, Raleway;
      }

      .cls-3 {
        font-weight: 700;
      }

      .cls-4 {
        letter-spacing: -0.03em;
      }

      .cls-5 {
        font-size: 36px;
        font-family: Raleway-Regular, Raleway;
      }

      .cls-6 {
        letter-spacing: -0.02em;
      }

      .cls-7 {
        letter-spacing: -0.01em;
      }

      .cls-8 {
        letter-spacing: -0.02em;
      }

      .cls-9 {
        letter-spacing: -0.02em;
      }

      .cls-10 {
        letter-spacing: -0.03em;
      }

      .cls-11 {
        letter-spacing: 0em;
      }

      .cls-12 {
        letter-spacing: -0.03em;
      }

      .cls-13 {
        letter-spacing: -0.03em;
      }

      .cls-14 {
        letter-spacing: 0em;
      }

      .cls-15 {
        letter-spacing: 0em;
      }

      .cls-16 {
        letter-spacing: -0.02em;
      }

      .cls-17 {
        fill: #41444e;
      }

      .cls-18 {
        fill: #353247;
      }

      .cls-19 {
        fill: #030103;
      }
    </style>
  </defs>
  <title>step5</title>
  <g>
    <polygon class="cls-1" points="281 0 251.38 58.51 186.39 67.28 232.89 113.53 221.15 178.05 279.5 148.13 337.24 179.23 326.8 114.48 374.23 69.19 309.43 59.1 281 0"/>
    <rect class="cls-1" y="54.75" width="560" height="369.91" rx="12" ry="12"/>
  </g>
  <text class="cls-2" transform="translate(58.25 119.65)"><tspan class="cls-3"><tspan xml:space="preserve">              P</tspan><tspan class="cls-4" x="151.35" y="0">r</tspan><tspan x="165.07" y="0">oduktion</tspan></tspan><tspan class="cls-5"><tspan class="cls-6" x="0" y="88.8">E</tspan><tspan x="21.31" y="88.8">f</tspan><tspan class="cls-7" x="33.19" y="88.8">t</tspan><tspan x="44.78" y="88.8">e</tspan><tspan class="cls-8" x="65.92" y="88.8">r</tspan><tspan x="77.69" y="88.8" xml:space="preserve"> I ha</tspan><tspan class="cls-9" x="145.58" y="88.8">r</tspan><tspan x="157.35" y="88.8" xml:space="preserve"> god</tspan><tspan class="cls-10" x="232.59" y="88.8">k</tspan><tspan x="250.7" y="88.8">endt d</tspan><tspan class="cls-11" x="358.84" y="88.8">e</tspan><tspan x="379.83" y="88.8" xml:space="preserve">t      </tspan><tspan x="0" y="132">endelige design, påbegyn</tspan><tspan x="433.18" y="132">-</tspan><tspan x="0" y="175.2">de</tspan><tspan class="cls-8" x="43.52" y="175.2">r</tspan><tspan class="cls-12" x="55.3" y="175.2"> </tspan><tspan x="63.5" y="175.2">vi p</tspan><tspan class="cls-13" x="121.93" y="175.2">r</tspan><tspan class="cls-14" x="133.63" y="175.2">oduktionen </tspan><tspan class="cls-15" x="331.52" y="175.2">a</tspan><tspan class="cls-16" x="350.99" y="175.2">f</tspan><tspan x="362.12" y="175.2" xml:space="preserve"> je</tspan><tspan class="cls-13" x="400.53" y="175.2">r</tspan><tspan x="412.23" y="175.2">es </tspan><tspan class="cls-10" x="0" y="218.4">k</tspan><tspan x="18.11" y="218.4">øk</tspan><tspan class="cls-10" x="58.61" y="218.4">k</tspan><tspan x="76.72" y="218.4">en på</tspan><tspan class="cls-10" x="169.85" y="218.4"> </tspan><tspan class="cls-7" x="178.06" y="218.4">v</tspan><tspan x="196.77" y="218.4">ærks</tspan><tspan class="cls-7" x="279.58" y="218.4">t</tspan><tspan x="291.17" y="218.4">ed</tspan><tspan class="cls-11" x="334.69" y="218.4">e</tspan><tspan x="355.68" y="218.4">t.</tspan></tspan></text>
  <g>
    <circle class="cls-17" cx="454.66" cy="99.11" r="20.11"/>
    <path class="cls-17" d="M679.85,252.41a11.93,11.93,0,0,1,2.82-7.92s2.21-2.26,3.77-2.49l-.6,9.17Z" transform="translate(-232 -171.09)"/>
    <path class="cls-17" d="M685.92,251.34a12,12,0,0,1,4.67-7s2.69-1.66,4.25-1.5l-2.8,8.74Z" transform="translate(-232 -171.09)"/>
    <path class="cls-17" d="M691.63,251.86a11.92,11.92,0,0,1,7-4.61s3.13-.48,4.51.28l-6,6.95Z" transform="translate(-232 -171.09)"/>
    <path class="cls-17" d="M697.17,254.72a12,12,0,0,1,8.11-2.22s3.12.51,4.2,1.65l-7.85,4.77Z" transform="translate(-232 -171.09)"/>
    <path class="cls-17" d="M674.3,255.3a12,12,0,0,1,.9-8.36s1.61-2.72,3.07-3.3l1.57,9.05Z" transform="translate(-232 -171.09)"/>
    <path class="cls-17" d="M670.1,260a11.9,11.9,0,0,1-1.83-8.21s.67-3.09,1.86-4.11l4.38,8.08Z" transform="translate(-232 -171.09)"/>
    <path class="cls-17" d="M704.92,276.11a11.9,11.9,0,0,1,4.69,7s.51,3.12-.23,4.51l-7-5.92Z" transform="translate(-232 -171.09)"/>
    <path class="cls-17" d="M702.18,281.64a12,12,0,0,1,2.86,7.91s-.27,3.15-1.32,4.32l-5.38-7.45Z" transform="translate(-232 -171.09)"/>
    <path class="cls-17" d="M698.37,285.92a12,12,0,0,1-.47,8.4s-1.47,2.8-2.9,3.46l-2-9Z" transform="translate(-232 -171.09)"/>
    <path class="cls-17" d="M692.77,288.68a11.94,11.94,0,0,1-3,7.85s-2.26,2.21-3.82,2.4l.82-9.15Z" transform="translate(-232 -171.09)"/>
    <path class="cls-18" d="M705.88,269.94a11.9,11.9,0,0,1,6.2,5.68s1.23,2.91.84,4.43L704.7,276Z" transform="translate(-232 -171.09)"/>
    <path class="cls-17" d="M704.57,263.73a11.92,11.92,0,0,1,7.68,3.41s2.1,2.37,2.21,3.94l-9.1-1.27Z" transform="translate(-232 -171.09)"/>
    <path class="cls-17" d="M701.34,258.66a11.93,11.93,0,0,1,8.41-.11s2.89,1.28,3.65,2.66l-8.8,2.64Z" transform="translate(-232 -171.09)"/>
    <path class="cls-18" d="M670.77,281.57a12,12,0,0,1-8.4-.41s-2.8-1.46-3.47-2.88l8.94-2.09Z" transform="translate(-232 -171.09)"/>
    <path class="cls-18" d="M668,276.06a11.92,11.92,0,0,1-8.05-2.43s-2.37-2.1-2.67-3.64l9.18.14Z" transform="translate(-232 -171.09)"/>
    <path class="cls-18" d="M666.83,270.45a11.92,11.92,0,0,1-6.46-5.39s-1.36-2.86-1-4.4l8.39,3.73Z" transform="translate(-232 -171.09)"/>
    <path class="cls-17" d="M668,264.31a11.93,11.93,0,0,1-4.49-7.11s-.41-3.14.37-4.5l6.84,6.13Z" transform="translate(-232 -171.09)"/>
    <path class="cls-17" d="M675.15,286a11.9,11.9,0,0,1-8.26,1.57s-3.07-.75-4.06-2l8.21-4.13Z" transform="translate(-232 -171.09)"/>
    <path class="cls-17" d="M680.91,288.68a12,12,0,0,1-7.33,4.13s-3.15.26-4.48-.59l6.46-6.53Z" transform="translate(-232 -171.09)"/>
    <path class="cls-17" d="M686.9,289.13a11.9,11.9,0,0,1-4.94,6.81s-2.75,1.55-4.31,1.33l3.15-8.63Z" transform="translate(-232 -171.09)"/>
    <circle class="cls-1" cx="454.25" cy="100.19" r="17.4"/>
    <circle cx="454.25" cy="100.11" r="3.79"/>
    <rect x="403.6" y="99.36" width="94.04" height="14.21" rx="7.1" ry="7.1"/>
    <rect x="407.52" y="83.93" width="46.62" height="18.58" rx="9.29" ry="9.29"/>
    <rect class="cls-17" x="406.01" y="100.98" width="89.51" height="11.19" rx="5.6" ry="5.6"/>
    <path class="cls-17" d="M645.44,259v4.16h9.43a3.71,3.71,0,0,0,3.47-4.16Z" transform="translate(-232 -171.09)"/>
    <path class="cls-17" d="M645.44,266.57v2.55h37.18v-1.27H670.91s-2.47-1.53,0-3.48h11.71v-5.86H661.91s-.51,7.55-6.37,7.64l-10.1-.09Z" transform="translate(-232 -171.09)"/>
    <rect class="cls-19" x="414.8" y="113.57" width="5.1" height="41.87"/>
    <rect class="cls-19" x="479.98" y="113.57" width="5.1" height="41.87"/>
    <rect class="cls-19" x="417.35" y="134.5" width="65.11" height="2.26"/>
  </g>
</svg>
