<svg xmlns="http://www.w3.org/2000/svg" viewBox="0 0 237.1 179.8"><title>step6</title><g id="Layer_2" data-name="Layer 2"><g id="Layer_1-2" data-name="Layer 1"><polygon points="118.97 179.8 106.43 155.03 78.92 151.31 98.6 131.73 93.63 104.41 118.34 117.08 142.78 103.91 138.37 131.33 158.45 150.5 131.01 154.78 118.97 179.8" fill="#fffef8"/><rect width="237.1" height="156.62" rx="5.08" ry="5.08" fill="#fffef8"/><g style="isolation:isolate"><g style="isolation:isolate"><path d="M89.65,20.17V12.61l-3,5.63H85.5l-3-5.63v7.56H80.33V8.75h2.38l3.38,6.5,3.41-6.5h2.37V20.17Z" fill="#010101"/></g><g style="isolation:isolate"><path d="M97.82,20.34A4.59,4.59,0,0,1,96,20a3.93,3.93,0,0,1-1.39-1,4.27,4.27,0,0,1-.88-1.39A4.6,4.6,0,0,1,93.4,16a4.72,4.72,0,0,1,.3-1.68,4.38,4.38,0,0,1,.88-1.39A4.21,4.21,0,0,1,96,12a4.77,4.77,0,0,1,1.85-.35,4.64,4.64,0,0,1,1.84.35,4.12,4.12,0,0,1,2.26,2.35,4.52,4.52,0,0,1,.31,1.68,4.4,4.4,0,0,1-.31,1.65,4.22,4.22,0,0,1-.86,1.39,3.93,3.93,0,0,1-1.39,1A4.52,4.52,0,0,1,97.82,20.34ZM95.62,16a2.8,2.8,0,0,0,.17,1,2.38,2.38,0,0,0,.46.79,2.07,2.07,0,0,0,3.14,0,2.52,2.52,0,0,0,.47-.8,3.09,3.09,0,0,0,.17-1,3,3,0,0,0-.17-1,2.58,2.58,0,0,0-.47-.81,2.1,2.1,0,0,0-.7-.52,2.13,2.13,0,0,0-.87-.19,2,2,0,0,0-.87.2,2.13,2.13,0,0,0-.7.53,2.33,2.33,0,0,0-.46.8A2.8,2.8,0,0,0,95.62,16Z" fill="#010101"/></g><g style="isolation:isolate"><path d="M111.5,20.17h-2.16V15.44A2.54,2.54,0,0,0,109,14a1.16,1.16,0,0,0-1-.46,1.72,1.72,0,0,0-.66.13,2.14,2.14,0,0,0-.64.36,2.82,2.82,0,0,0-.54.55,2.14,2.14,0,0,0-.35.71v4.92h-2.16V11.74h2V13.3A3.21,3.21,0,0,1,107,12.05a4.36,4.36,0,0,1,2-.45,2.55,2.55,0,0,1,1.28.29,2.08,2.08,0,0,1,.78.75,3.31,3.31,0,0,1,.37,1.07,6.87,6.87,0,0,1,.11,1.2Z" fill="#010101"/></g><g style="isolation:isolate"><path d="M118.37,19.74a9.66,9.66,0,0,1-1.07.39,4.55,4.55,0,0,1-1.33.19,3.22,3.22,0,0,1-.84-.11,2,2,0,0,1-.7-.36,2,2,0,0,1-.47-.65,2.28,2.28,0,0,1-.18-1V13.4h-1.09V11.74h1.09V9h2.16v2.73h1.78V13.4h-1.78v4.12a.77.77,0,0,0,.24.64.93.93,0,0,0,.58.18,2.17,2.17,0,0,0,.66-.11l.51-.19Z" fill="#010101"/></g><g style="isolation:isolate"><path d="M123.2,20.34a4.71,4.71,0,0,1-1.84-.35,4.16,4.16,0,0,1-1.4-.94,4.3,4.3,0,0,1-.89-1.39,4.36,4.36,0,0,1-.31-1.65,4.79,4.79,0,0,1,.3-1.7,4,4,0,0,1,.89-1.4,4.25,4.25,0,0,1,1.4-1,4.85,4.85,0,0,1,1.86-.35,4.64,4.64,0,0,1,1.84.35,4.34,4.34,0,0,1,1.39,1,4.09,4.09,0,0,1,.87,1.39,4.76,4.76,0,0,1,.29,1.64v.4a2.13,2.13,0,0,1,0,.32H121a2.29,2.29,0,0,0,.74,1.55,2,2,0,0,0,.69.41,2.24,2.24,0,0,0,.81.15,2.59,2.59,0,0,0,1.21-.31,1.68,1.68,0,0,0,.78-.83l1.85.51a3.84,3.84,0,0,1-1.49,1.59A4.62,4.62,0,0,1,123.2,20.34Zm2.18-5.09a2.2,2.2,0,0,0-.7-1.52,2.13,2.13,0,0,0-1.5-.57,2.16,2.16,0,0,0-.81.15,2,2,0,0,0-.67.43,2.2,2.2,0,0,0-.69,1.51Z" fill="#010101"/><path d="M133.94,13.61a4.24,4.24,0,0,0-1.75.38,2.17,2.17,0,0,0-1.11,1.08v5.1h-2.16V11.74h2v1.81a3.87,3.87,0,0,1,1.14-1.4,2.33,2.33,0,0,1,1.47-.53h.26l.17,0Z" fill="#010101"/><path d="M135.15,10.57V8.43h2.15v2.14Zm0,9.6V11.74h2.15v8.43Z" fill="#010101"/><path d="M147.05,20.17H144.9V15.44a2.46,2.46,0,0,0-.36-1.48,1.15,1.15,0,0,0-1-.46,1.8,1.8,0,0,0-.66.13,2.22,2.22,0,0,0-.63.36,2.82,2.82,0,0,0-.54.55,2.14,2.14,0,0,0-.35.71v4.92h-2.16V11.74h1.95V13.3a3.21,3.21,0,0,1,1.35-1.25,4.32,4.32,0,0,1,2-.45,2.57,2.57,0,0,1,1.29.29,2.06,2.06,0,0,1,.77.75,3.32,3.32,0,0,1,.38,1.07,6.86,6.86,0,0,1,.1,1.2Z" fill="#010101"/><path d="M152.2,20.22a3.53,3.53,0,0,1-1.53-.33,3.66,3.66,0,0,1-1.2-.93,4.22,4.22,0,0,1-.77-1.36,4.67,4.67,0,0,1-.28-1.64,5,5,0,0,1,.29-1.71,4.33,4.33,0,0,1,.81-1.38,3.52,3.52,0,0,1,1.23-.93,3.55,3.55,0,0,1,1.58-.34,3.36,3.36,0,0,1,1.74.44,3.69,3.69,0,0,1,1.21,1.18V11.74h1.88v8a4,4,0,0,1-.35,1.68,3.49,3.49,0,0,1-1,1.25,4.47,4.47,0,0,1-1.48.79,6.17,6.17,0,0,1-1.87.27,5.28,5.28,0,0,1-2.34-.46A4.68,4.68,0,0,1,148.53,22l1.18-1.14a3.5,3.5,0,0,0,1.21.93,3.79,3.79,0,0,0,1.57.34,3.38,3.38,0,0,0,1-.14,2.07,2.07,0,0,0,.8-.43,1.87,1.87,0,0,0,.55-.74,2.48,2.48,0,0,0,.2-1.06V18.71a2.87,2.87,0,0,1-1.17,1.12A3.53,3.53,0,0,1,152.2,20.22Zm.74-1.72a2.2,2.2,0,0,0,.68-.11,2.55,2.55,0,0,0,.59-.31,2.85,2.85,0,0,0,.47-.45,1.88,1.88,0,0,0,.32-.54v-2a2.61,2.61,0,0,0-.9-1.19,2.15,2.15,0,0,0-1.29-.45,1.93,1.93,0,0,0-.9.22,2.2,2.2,0,0,0-.7.58,2.47,2.47,0,0,0-.45.83,3.11,3.11,0,0,0-.15,1,2.59,2.59,0,0,0,.67,1.76,2.33,2.33,0,0,0,.74.53A2.17,2.17,0,0,0,152.94,18.5Z" fill="#010101"/></g><g style="isolation:isolate"><path d="M36,38.47V29.58l-4,6.87h-.62l-3.95-6.87v8.89H26.44V27.64h1.1l4.22,7.41L36,27.64H37.1V38.47Z" fill="#010101"/></g><g style="isolation:isolate"><path d="M42.87,38.62a3.72,3.72,0,0,1-1.58-.33,4,4,0,0,1-1.24-.89,4,4,0,0,1-.82-1.31,4.37,4.37,0,0,1-.29-1.57,4.27,4.27,0,0,1,1.12-2.9,4.29,4.29,0,0,1,1.24-.9,3.71,3.71,0,0,1,1.57-.33,3.76,3.76,0,0,1,1.58.33,4.21,4.21,0,0,1,1.25.9,4,4,0,0,1,.82,1.31,4.24,4.24,0,0,1,.3,1.59,4.37,4.37,0,0,1-.29,1.57,3.89,3.89,0,0,1-2.06,2.2A3.85,3.85,0,0,1,42.87,38.62ZM40,34.53a3.34,3.34,0,0,0,.23,1.24,3.23,3.23,0,0,0,.62,1,2.75,2.75,0,0,0,.91.68,2.68,2.68,0,0,0,1.12.24A2.52,2.52,0,0,0,44,37.45a3.1,3.1,0,0,0,.93-.68,3.28,3.28,0,0,0,.62-1,3.39,3.39,0,0,0,.23-1.25,3.45,3.45,0,0,0-.23-1.24,3.28,3.28,0,0,0-.62-1,3.13,3.13,0,0,0-.93-.69,2.61,2.61,0,0,0-2.23,0,2.92,2.92,0,0,0-.91.7,3.07,3.07,0,0,0-.63,1A3.47,3.47,0,0,0,40,34.53Z" fill="#010101"/></g><g style="isolation:isolate"><path d="M55.24,38.47h-1V34A3.87,3.87,0,0,0,53.78,32a1.45,1.45,0,0,0-1.29-.64,2.66,2.66,0,0,0-.91.17,3.07,3.07,0,0,0-.85.47,3.69,3.69,0,0,0-.69.73,2.69,2.69,0,0,0-.44.9v4.87h-1V30.52h.94v1.8a3.89,3.89,0,0,1,3.37-1.93,2.41,2.41,0,0,1,1.12.24,1.93,1.93,0,0,1,.73.69,3.12,3.12,0,0,1,.39,1.08,7.72,7.72,0,0,1,.13,1.42Z" fill="#010101"/></g><g style="isolation:isolate"><path d="M61.18,38.08l-.27.13-.4.15a4.81,4.81,0,0,1-.52.14,3,3,0,0,1-.61.06,2.25,2.25,0,0,1-.64-.09,1.6,1.6,0,0,1-.53-.29,1.29,1.29,0,0,1-.37-.48A1.54,1.54,0,0,1,57.7,37V31.35H56.61v-.83H57.7V27.84h1v2.68h1.83v.83H58.74v5.39a.85.85,0,0,0,.31.65,1.07,1.07,0,0,0,.65.21,1.87,1.87,0,0,0,.78-.15,3.93,3.93,0,0,0,.43-.2Z" fill="#010101"/></g><g style="isolation:isolate"><path d="M65.71,38.62a3.8,3.8,0,0,1-2.85-1.23A3.94,3.94,0,0,1,62,36.07a4.26,4.26,0,0,1-.3-1.6,4.19,4.19,0,0,1,.3-1.58,4,4,0,0,1,5.25-2.18,3.78,3.78,0,0,1,1.25.9,4.2,4.2,0,0,1,1.09,2.85v.24a.72.72,0,0,1,0,.17h-6.8A3.33,3.33,0,0,0,63.76,37a2.76,2.76,0,0,0,.9.61,2.7,2.7,0,0,0,1.09.23,2.79,2.79,0,0,0,.76-.11,3.2,3.2,0,0,0,.71-.29,2.46,2.46,0,0,0,.57-.45,1.76,1.76,0,0,0,.4-.59l.9.25a2.56,2.56,0,0,1-.52.8,3.44,3.44,0,0,1-.78.62,3.5,3.5,0,0,1-1,.41A4.13,4.13,0,0,1,65.71,38.62Zm2.92-4.54a3.35,3.35,0,0,0-.29-1.17A3.54,3.54,0,0,0,67.7,32a2.85,2.85,0,0,0-3.09-.59,2.74,2.74,0,0,0-1.53,1.51,3.35,3.35,0,0,0-.28,1.16Z" fill="#010101"/><path d="M75.19,31.44a3.24,3.24,0,0,0-1.83.58,2.88,2.88,0,0,0-1.1,1.51v4.94h-1V30.52h1v1.91A3.51,3.51,0,0,1,73.39,31a2.73,2.73,0,0,1,1.6-.52h.2Z" fill="#010101"/><path d="M76.57,28.86V27.34h1v1.52Zm0,9.61V30.52h1v8Z" fill="#010101"/><path d="M86.57,38.47h-1V34A3.87,3.87,0,0,0,85.12,32a1.45,1.45,0,0,0-1.29-.64,2.72,2.72,0,0,0-.92.17,3.17,3.17,0,0,0-.84.47,4,4,0,0,0-.7.73,2.9,2.9,0,0,0-.44.9v4.87h-1V30.52h.94v1.8a3.89,3.89,0,0,1,3.37-1.93,2.34,2.34,0,0,1,1.11.24,1.8,1.8,0,0,1,.73.69,2.93,2.93,0,0,1,.4,1.08,7.76,7.76,0,0,1,.12,1.42Z" fill="#010101"/><path d="M92,38.57a3.24,3.24,0,0,1-1.5-.34,3.77,3.77,0,0,1-1.18-.91,4.23,4.23,0,0,1-1-2.8,4.64,4.64,0,0,1,.27-1.58,3.91,3.91,0,0,1,.75-1.32,3.74,3.74,0,0,1,1.17-.9,3.37,3.37,0,0,1,1.5-.33,3.07,3.07,0,0,1,1.77.51A5.07,5.07,0,0,1,95,32.19V30.52h.93v8A3.22,3.22,0,0,1,95.6,40,3.14,3.14,0,0,1,94.76,41a3.6,3.6,0,0,1-1.23.64,5.23,5.23,0,0,1-1.5.21,4.42,4.42,0,0,1-2.21-.48,4.06,4.06,0,0,1-1.36-1.31l.64-.51a2.87,2.87,0,0,0,1.25,1.12A4,4,0,0,0,92,41a3.66,3.66,0,0,0,1.1-.16,2.76,2.76,0,0,0,.9-.47,2.21,2.21,0,0,0,.62-.79,2.63,2.63,0,0,0,.23-1.12V36.93a3.35,3.35,0,0,1-1.25,1.2A3.41,3.41,0,0,1,92,38.57Zm.29-.87a2.59,2.59,0,0,0,.9-.16,3.67,3.67,0,0,0,.8-.45,2.79,2.79,0,0,0,.6-.64,2,2,0,0,0,.32-.71V33.28a3.14,3.14,0,0,0-.46-.79,3.17,3.17,0,0,0-.65-.62,3.53,3.53,0,0,0-.79-.42,2.48,2.48,0,0,0-.84-.15,2.59,2.59,0,0,0-1.2.28,2.91,2.91,0,0,0-.89.74,3.27,3.27,0,0,0-.56,1,3.67,3.67,0,0,0-.19,1.17,3.31,3.31,0,0,0,.23,1.22,3.13,3.13,0,0,0,.63,1,3,3,0,0,0,.94.68A2.63,2.63,0,0,0,92.26,37.7Z" fill="#010101"/><path d="M101.63,38.62a3.77,3.77,0,0,1-1.59-.33,4,4,0,0,1-1.26-.9,4.26,4.26,0,0,1-1.13-2.92,4.19,4.19,0,0,1,.3-1.58,4.11,4.11,0,0,1,.82-1.29,3.94,3.94,0,0,1,1.26-.89,4,4,0,0,1,1.59-.32,3.93,3.93,0,0,1,1.59.32,3.74,3.74,0,0,1,1.24.9,3.92,3.92,0,0,1,.81,1.29,4.28,4.28,0,0,1,.29,1.56v.24a.59.59,0,0,1,0,.17H98.74A3.3,3.3,0,0,0,99,36.05a3.5,3.5,0,0,0,.65.94,2.8,2.8,0,0,0,.91.61,2.66,2.66,0,0,0,1.09.23,2.85,2.85,0,0,0,.76-.11,3.12,3.12,0,0,0,.7-.29,2.51,2.51,0,0,0,.58-.45,2.12,2.12,0,0,0,.4-.59l.9.25a3,3,0,0,1-.52.8,3.94,3.94,0,0,1-.78.62,3.44,3.44,0,0,1-1,.41A4,4,0,0,1,101.63,38.62Zm2.93-4.54a3.15,3.15,0,0,0-.3-1.17,3.31,3.31,0,0,0-.64-.91,2.87,2.87,0,0,0-.9-.59,2.83,2.83,0,0,0-1.09-.22,3,3,0,0,0-1.1.22,2.87,2.87,0,0,0-.9.59,3,3,0,0,0-.63.92,3.35,3.35,0,0,0-.28,1.16Z" fill="#010101"/><path d="M113.82,38.47h-1V34a3.87,3.87,0,0,0-.42-2.06,1.45,1.45,0,0,0-1.29-.64,2.66,2.66,0,0,0-.91.17,3.07,3.07,0,0,0-.85.47,3.69,3.69,0,0,0-.69.73,2.69,2.69,0,0,0-.44.9v4.87h-1V30.52h.94v1.8a3.89,3.89,0,0,1,3.37-1.93,2.34,2.34,0,0,1,1.11.24,1.89,1.89,0,0,1,.74.69,3.12,3.12,0,0,1,.39,1.08,7.76,7.76,0,0,1,.12,1.42Z" fill="#010101"/><path d="M123.35,38.62a3.77,3.77,0,0,1-1.59-.33,4,4,0,0,1-1.26-.9,4.1,4.1,0,0,1-.83-1.32,4.26,4.26,0,0,1-.3-1.6,4.19,4.19,0,0,1,.3-1.58,4.11,4.11,0,0,1,.82-1.29,3.94,3.94,0,0,1,1.26-.89,4.11,4.11,0,0,1,3.18,0,3.84,3.84,0,0,1,1.24.9A3.92,3.92,0,0,1,127,32.9a4.28,4.28,0,0,1,.29,1.56v.24a.59.59,0,0,1,0,.17h-6.8a3.54,3.54,0,0,0,.3,1.18,3.5,3.5,0,0,0,.65.94,2.8,2.8,0,0,0,.91.61,2.66,2.66,0,0,0,1.09.23,2.91,2.91,0,0,0,.76-.11,3.12,3.12,0,0,0,.7-.29,2.51,2.51,0,0,0,.58-.45,2.12,2.12,0,0,0,.4-.59l.89.25a2.72,2.72,0,0,1-.51.8,3.94,3.94,0,0,1-.78.62,3.56,3.56,0,0,1-1,.41A4,4,0,0,1,123.35,38.62Zm2.93-4.54a3.15,3.15,0,0,0-.3-1.17,3.31,3.31,0,0,0-.64-.91,2.87,2.87,0,0,0-.9-.59,2.83,2.83,0,0,0-1.09-.22,2.92,2.92,0,0,0-1.1.22,2.87,2.87,0,0,0-.9.59,3,3,0,0,0-.63.92,3.35,3.35,0,0,0-.28,1.16Z" fill="#010101"/></g><g style="isolation:isolate"><path d="M132.83,31.44A3.24,3.24,0,0,0,131,32a2.93,2.93,0,0,0-1.1,1.51v4.94h-1V30.52h1v1.91A3.59,3.59,0,0,1,131,31a2.73,2.73,0,0,1,1.6-.52h.2Z" fill="#010101"/></g><g style="isolation:isolate"><path d="M140.38,38.62a5.4,5.4,0,0,1-1.82-.31,4.31,4.31,0,0,1-1.52-.88l.47-.7a5.3,5.3,0,0,0,1.36.82,4.11,4.11,0,0,0,1.49.28,2.67,2.67,0,0,0,1.53-.39,1.27,1.27,0,0,0,.57-1.11,1,1,0,0,0-.15-.56,1.33,1.33,0,0,0-.45-.38,3.34,3.34,0,0,0-.75-.3c-.3-.09-.64-.18-1-.27s-.85-.22-1.19-.33a3.8,3.8,0,0,1-.83-.38,1.45,1.45,0,0,1-.49-.53,1.8,1.8,0,0,1-.16-.78,2.27,2.27,0,0,1,.24-1.06,2.21,2.21,0,0,1,.64-.75,2.83,2.83,0,0,1,.94-.45,4.39,4.39,0,0,1,1.16-.15,4.63,4.63,0,0,1,1.66.29,3.26,3.26,0,0,1,1.2.79l-.5.61a2.82,2.82,0,0,0-1.08-.69,3.9,3.9,0,0,0-1.32-.23,3.1,3.1,0,0,0-.76.09,1.54,1.54,0,0,0-.61.27,1.24,1.24,0,0,0-.42.46,1.29,1.29,0,0,0-.16.66,1.09,1.09,0,0,0,.11.52.88.88,0,0,0,.35.34,2.41,2.41,0,0,0,.62.26c.25.08.55.16.91.24s1,.24,1.34.37a4.12,4.12,0,0,1,1,.42,1.61,1.61,0,0,1,.59.6,1.7,1.7,0,0,1,.2.85,2.08,2.08,0,0,1-.84,1.74A3.66,3.66,0,0,1,140.38,38.62Z" fill="#010101"/><path d="M145.16,28.86V27.34h1v1.52Zm0,9.61V30.52h1v8Z" fill="#010101"/><path d="M151.75,38.62a3.44,3.44,0,0,1-1.53-.35,3.71,3.71,0,0,1-1.2-.9,4.13,4.13,0,0,1-.79-1.31,4.21,4.21,0,0,1-.28-1.54,4.76,4.76,0,0,1,.27-1.6,4.33,4.33,0,0,1,.76-1.31,3.55,3.55,0,0,1,1.14-.9,3.36,3.36,0,0,1,1.46-.32,3.1,3.1,0,0,1,1.78.52,3.91,3.91,0,0,1,1.22,1.28V27.34h1v9.78c0,.29.12.43.36.43v.92a1.86,1.86,0,0,1-.36,0,.93.93,0,0,1-.64-.24.69.69,0,0,1-.28-.57v-.77a3.44,3.44,0,0,1-1.28,1.23A3.32,3.32,0,0,1,151.75,38.62Zm.22-.92a2.5,2.5,0,0,0,.82-.15,3.35,3.35,0,0,0,.82-.42,2.9,2.9,0,0,0,.64-.62,1.69,1.69,0,0,0,.33-.77V33.28a2.83,2.83,0,0,0-.44-.77,3.58,3.58,0,0,0-.66-.63,3.64,3.64,0,0,0-.8-.43,2.57,2.57,0,0,0-.84-.15,2.34,2.34,0,0,0-1.16.28,2.83,2.83,0,0,0-.89.72,3.14,3.14,0,0,0-.57,1,3.42,3.42,0,0,0-.2,1.19,3.19,3.19,0,0,0,.23,1.22,3.35,3.35,0,0,0,.62,1,2.94,2.94,0,0,0,.94.69A2.56,2.56,0,0,0,152,37.7Z" fill="#010101"/><path d="M160.6,38.62a5.34,5.34,0,0,1-1.81-.31,4.45,4.45,0,0,1-1.53-.88l.48-.7a5.14,5.14,0,0,0,1.36.82,4.07,4.07,0,0,0,1.49.28,2.67,2.67,0,0,0,1.53-.39,1.27,1.27,0,0,0,.57-1.11,1,1,0,0,0-.15-.56,1.33,1.33,0,0,0-.45-.38,3.34,3.34,0,0,0-.75-.3c-.3-.09-.65-.18-1-.27s-.86-.22-1.19-.33a3.59,3.59,0,0,1-.83-.38,1.45,1.45,0,0,1-.49-.53,1.67,1.67,0,0,1-.16-.78,2.27,2.27,0,0,1,.24-1.06,2.1,2.1,0,0,1,.64-.75,2.83,2.83,0,0,1,.94-.45,4.32,4.32,0,0,1,1.15-.15,4.63,4.63,0,0,1,1.66.29,3.31,3.31,0,0,1,1.21.79l-.51.61a2.79,2.79,0,0,0-1.07-.69,3.9,3.9,0,0,0-1.32-.23,3,3,0,0,0-.76.09,1.58,1.58,0,0,0-.62.27,1.24,1.24,0,0,0-.42.46,1.4,1.4,0,0,0-.15.66,1.09,1.09,0,0,0,.11.52.82.82,0,0,0,.35.34,2.48,2.48,0,0,0,.61.26c.25.08.56.16.91.24.51.12,1,.24,1.34.37a4.21,4.21,0,0,1,1,.42,1.61,1.61,0,0,1,.59.6,1.7,1.7,0,0,1,.2.85,2.08,2.08,0,0,1-.84,1.74A3.68,3.68,0,0,1,160.6,38.62Z" fill="#010101"/></g><g style="isolation:isolate"><path d="M169.2,38.08l-.27.13-.4.15a4.81,4.81,0,0,1-.52.14,2.93,2.93,0,0,1-.61.06,2.3,2.3,0,0,1-.64-.09,1.6,1.6,0,0,1-.53-.29,1.29,1.29,0,0,1-.37-.48,1.54,1.54,0,0,1-.13-.67V31.35h-1.1v-.83h1.1V27.84h1v2.68h1.83v.83h-1.83v5.39a.85.85,0,0,0,.31.65,1.07,1.07,0,0,0,.65.21,1.87,1.87,0,0,0,.78-.15,3.93,3.93,0,0,0,.43-.2Z" fill="#010101"/></g><g style="isolation:isolate"><path d="M173.73,38.62a3.8,3.8,0,0,1-2.85-1.23,3.94,3.94,0,0,1-.83-1.32,4.26,4.26,0,0,1-.3-1.6,4.19,4.19,0,0,1,.3-1.58,4,4,0,0,1,5.25-2.18,3.78,3.78,0,0,1,1.25.9,4.2,4.2,0,0,1,1.09,2.85v.24a.72.72,0,0,1,0,.17h-6.8a3.33,3.33,0,0,0,.95,2.12,2.76,2.76,0,0,0,.9.61,2.7,2.7,0,0,0,1.09.23,2.79,2.79,0,0,0,.76-.11,3.2,3.2,0,0,0,.71-.29,2.46,2.46,0,0,0,.57-.45,1.76,1.76,0,0,0,.4-.59l.9.25a2.56,2.56,0,0,1-.52.8,3.44,3.44,0,0,1-.78.62,3.38,3.38,0,0,1-1,.41A4.13,4.13,0,0,1,173.73,38.62Zm2.92-4.54a3.35,3.35,0,0,0-.29-1.17,3.54,3.54,0,0,0-.64-.91,2.85,2.85,0,0,0-3.09-.59,2.74,2.74,0,0,0-1.53,1.51,3.35,3.35,0,0,0-.28,1.16Z" fill="#010101"/><path d="M185.77,38.62a5.4,5.4,0,0,1-1.82-.31,4.4,4.4,0,0,1-1.52-.88l.47-.7a5.18,5.18,0,0,0,1.37.82,4,4,0,0,0,1.48.28,2.67,2.67,0,0,0,1.53-.39,1.25,1.25,0,0,0,.58-1.11.93.93,0,0,0-.16-.56,1.33,1.33,0,0,0-.45-.38,3.07,3.07,0,0,0-.74-.3q-.45-.14-1-.27c-.45-.11-.85-.22-1.19-.33a3.8,3.8,0,0,1-.83-.38,1.42,1.42,0,0,1-.48-.53,1.67,1.67,0,0,1-.16-.78,2.27,2.27,0,0,1,.23-1.06,2.21,2.21,0,0,1,.64-.75,2.88,2.88,0,0,1,1-.45,4.26,4.26,0,0,1,1.15-.15,4.63,4.63,0,0,1,1.66.29,3.18,3.18,0,0,1,1.2.79l-.5.61a2.79,2.79,0,0,0-1.07-.69,3.94,3.94,0,0,0-1.32-.23,3,3,0,0,0-.76.09,1.58,1.58,0,0,0-.62.27,1.24,1.24,0,0,0-.42.46,1.4,1.4,0,0,0-.15.66,1.09,1.09,0,0,0,.1.52.88.88,0,0,0,.35.34,2.57,2.57,0,0,0,.62.26c.25.08.55.16.91.24s.95.24,1.34.37a4.21,4.21,0,0,1,1,.42,1.61,1.61,0,0,1,.78,1.45A2.08,2.08,0,0,1,188,38,3.66,3.66,0,0,1,185.77,38.62Z" fill="#010101"/></g><g style="isolation:isolate"><path d="M194.36,38.08l-.26.13-.41.15a4.25,4.25,0,0,1-.52.14,2.93,2.93,0,0,1-.61.06,2.3,2.3,0,0,1-.64-.09,1.6,1.6,0,0,1-.53-.29,1.4,1.4,0,0,1-.37-.48,1.54,1.54,0,0,1-.13-.67V31.35h-1.1v-.83h1.1V27.84h1v2.68h1.83v.83h-1.83v5.39a.82.82,0,0,0,.32.65,1,1,0,0,0,.64.21,1.87,1.87,0,0,0,.78-.15,3.16,3.16,0,0,0,.43-.2Z" fill="#010101"/></g><g style="isolation:isolate"><path d="M198.89,38.62a3.77,3.77,0,0,1-1.59-.33,4,4,0,0,1-1.26-.9,4.26,4.26,0,0,1-1.13-2.92,4.19,4.19,0,0,1,.3-1.58A4.11,4.11,0,0,1,196,31.6a4.05,4.05,0,0,1,1.26-.89,4,4,0,0,1,1.59-.32,3.93,3.93,0,0,1,1.59.32,3.74,3.74,0,0,1,1.24.9,3.92,3.92,0,0,1,.81,1.29,4.28,4.28,0,0,1,.29,1.56v.24a.59.59,0,0,1,0,.17H196a3.26,3.26,0,0,0,.94,2.12,2.91,2.91,0,0,0,.91.61,2.66,2.66,0,0,0,1.09.23,2.85,2.85,0,0,0,.76-.11,3.12,3.12,0,0,0,.7-.29A2.51,2.51,0,0,0,201,37a1.93,1.93,0,0,0,.4-.59l.9.25a3,3,0,0,1-.52.8,3.67,3.67,0,0,1-.78.62,3.5,3.5,0,0,1-1,.41A4.15,4.15,0,0,1,198.89,38.62Zm2.93-4.54a3.15,3.15,0,0,0-.3-1.17,3.31,3.31,0,0,0-.64-.91,2.87,2.87,0,0,0-.9-.59,2.83,2.83,0,0,0-1.09-.22,2.87,2.87,0,0,0-1.09.22,2.8,2.8,0,0,0-.91.59,3,3,0,0,0-.63.92,3.59,3.59,0,0,0-.28,1.16Z" fill="#010101"/><path d="M208.46,38.62a3.12,3.12,0,0,1-1.77-.51,4,4,0,0,1-1.24-1.29v4.89h-1V30.52h.93v1.54a4,4,0,0,1,1.27-1.21,3.2,3.2,0,0,1,1.69-.46,3.32,3.32,0,0,1,1.51.34,3.89,3.89,0,0,1,1.18.91,4.41,4.41,0,0,1,.79,1.32,4.28,4.28,0,0,1,.28,1.54,4.65,4.65,0,0,1-.26,1.59,4,4,0,0,1-.74,1.31,3.67,3.67,0,0,1-1.14.89A3.23,3.23,0,0,1,208.46,38.62Zm-.28-.92a2.51,2.51,0,0,0,1.16-.27,2.9,2.9,0,0,0,.9-.73,3.09,3.09,0,0,0,.57-1,3.61,3.61,0,0,0,.2-1.18,3.39,3.39,0,0,0-.23-1.22,3.53,3.53,0,0,0-.62-1,3.08,3.08,0,0,0-.94-.7,2.71,2.71,0,0,0-1.17-.26,2.34,2.34,0,0,0-.83.16,3.49,3.49,0,0,0-.81.43,2.85,2.85,0,0,0-.63.62,1.66,1.66,0,0,0-.33.76v2.44a3.42,3.42,0,0,0,1.1,1.42,3,3,0,0,0,.77.42A2.51,2.51,0,0,0,208.18,37.7Z" fill="#010101"/><path d="M214,39.7l.26-1.28h-.35V37h1v1.45l-.38,1.28Z" fill="#010101"/></g><g style="isolation:isolate"><path d="M26.23,47.15V45.63h1v1.52Zm0,9.61V48.81h1v7.95Z" fill="#010101"/><path d="M36.23,56.76h-1V52.32a3.89,3.89,0,0,0-.42-2.06,1.45,1.45,0,0,0-1.29-.64,2.66,2.66,0,0,0-.91.17,3.07,3.07,0,0,0-.85.47A3.69,3.69,0,0,0,31,51a2.9,2.9,0,0,0-.44.9v4.87h-1V48.81h.95v1.8a3.73,3.73,0,0,1,1.39-1.4,3.88,3.88,0,0,1,2-.53,2.41,2.41,0,0,1,1.12.24,1.86,1.86,0,0,1,.73.69,3.33,3.33,0,0,1,.4,1.08,7.76,7.76,0,0,1,.12,1.42Z" fill="#010101"/><path d="M41.7,56.91a3.49,3.49,0,0,1-1.52-.34A4.06,4.06,0,0,1,39,55.66a4.11,4.11,0,0,1-.78-1.31,4.21,4.21,0,0,1-.29-1.54,4.66,4.66,0,0,1,.28-1.59,4.06,4.06,0,0,1,.75-1.32A3.33,3.33,0,0,1,40.08,49a3.19,3.19,0,0,1,1.45-.33,3.08,3.08,0,0,1,1.78.52,3.91,3.91,0,0,1,1.22,1.28V45.63h1v9.78c0,.29.12.43.37.43v.92a2,2,0,0,1-.37,0,1,1,0,0,1-.64-.23.74.74,0,0,1-.27-.58v-.77a3.59,3.59,0,0,1-1.28,1.23A3.32,3.32,0,0,1,41.7,56.91Zm.23-.92a2.49,2.49,0,0,0,.81-.15,3.35,3.35,0,0,0,.82-.42,3,3,0,0,0,.65-.62,1.79,1.79,0,0,0,.32-.77V51.57a2.83,2.83,0,0,0-.44-.77,3.29,3.29,0,0,0-.66-.63,3.64,3.64,0,0,0-.8-.43,2.53,2.53,0,0,0-.84-.15,2.37,2.37,0,0,0-1.16.28,2.94,2.94,0,0,0-.89.72,3.14,3.14,0,0,0-.57,1,3.72,3.72,0,0,0-.2,1.19A3.39,3.39,0,0,0,39.2,54a3.35,3.35,0,0,0,.62,1,3,3,0,0,0,.94.69A2.57,2.57,0,0,0,41.93,56Z" fill="#010101"/><path d="M51.35,56.91a3.8,3.8,0,0,1-2.85-1.23,3.94,3.94,0,0,1-.83-1.32,4.36,4.36,0,0,1,0-3.18,3.94,3.94,0,0,1,.82-1.29,3.93,3.93,0,0,1,2.84-1.21,3.85,3.85,0,0,1,1.6.33,3.67,3.67,0,0,1,1.24.89,4.2,4.2,0,0,1,1.09,2.85V53a.72.72,0,0,1,0,.17h-6.8a3.33,3.33,0,0,0,.95,2.12,2.76,2.76,0,0,0,.9.61,2.7,2.7,0,0,0,1.09.23,2.79,2.79,0,0,0,.76-.11,3.2,3.2,0,0,0,.71-.29,2.74,2.74,0,0,0,.58-.45,1.89,1.89,0,0,0,.39-.59l.9.25a2.56,2.56,0,0,1-.52.8,3.61,3.61,0,0,1-.77.62,3.56,3.56,0,0,1-1,.41A4.13,4.13,0,0,1,51.35,56.91Zm2.92-4.54A3.35,3.35,0,0,0,54,51.2a3.31,3.31,0,0,0-.64-.91,2.91,2.91,0,0,0-3.09-.59,2.8,2.8,0,0,0-.91.59,3,3,0,0,0-.62.92,3.35,3.35,0,0,0-.28,1.16Z" fill="#010101"/><path d="M63.54,56.76h-1V52.32a4,4,0,0,0-.41-2.06,1.45,1.45,0,0,0-1.29-.64,2.72,2.72,0,0,0-.92.17,3.17,3.17,0,0,0-.84.47,4,4,0,0,0-.7.73,2.9,2.9,0,0,0-.44.9v4.87h-1V48.81h1v1.8a3.73,3.73,0,0,1,1.39-1.4,3.92,3.92,0,0,1,2-.53,2.34,2.34,0,0,1,1.11.24,1.8,1.8,0,0,1,.73.69,2.93,2.93,0,0,1,.4,1.08,7.76,7.76,0,0,1,.12,1.42Z" fill="#010101"/><path d="M68.45,59.51a3.26,3.26,0,0,1-1-.13,2.19,2.19,0,0,1-.79-.46l.5-.7a1.36,1.36,0,0,0,.54.29,2.25,2.25,0,0,0,.58.07,1.34,1.34,0,0,0,.52-.1,1.37,1.37,0,0,0,.45-.3,1.6,1.6,0,0,0,.32-.45,1.31,1.31,0,0,0,.12-.56V48.81h1v8.3a2.37,2.37,0,0,1-.2,1,2.28,2.28,0,0,1-.52.76,2.35,2.35,0,0,1-.75.5A2.16,2.16,0,0,1,68.45,59.51Zm1.29-12.36V45.63h1v1.52Z" fill="#010101"/><path d="M76.5,56.91a3.8,3.8,0,0,1-2.85-1.23,3.94,3.94,0,0,1-.83-1.32,4.36,4.36,0,0,1,0-3.18,3.94,3.94,0,0,1,.82-1.29A4,4,0,0,1,78.07,49a3.61,3.61,0,0,1,1.25.89,4.2,4.2,0,0,1,1.09,2.85V53a.72.72,0,0,1,0,.17H73.6a3.33,3.33,0,0,0,1,2.12,2.76,2.76,0,0,0,.9.61,2.7,2.7,0,0,0,1.09.23A2.79,2.79,0,0,0,77.3,56a3.2,3.2,0,0,0,.71-.29,2.46,2.46,0,0,0,.57-.45,1.76,1.76,0,0,0,.4-.59l.9.25a2.56,2.56,0,0,1-.52.8,3.44,3.44,0,0,1-.78.62,3.5,3.5,0,0,1-1,.41A4.13,4.13,0,0,1,76.5,56.91Zm2.92-4.54a3.35,3.35,0,0,0-.29-1.17,3.54,3.54,0,0,0-.64-.91,2.91,2.91,0,0,0-3.09-.59,2.74,2.74,0,0,0-1.53,1.51,3.35,3.35,0,0,0-.28,1.16Z" fill="#010101"/></g><g style="isolation:isolate"><path d="M86,49.73a3.24,3.24,0,0,0-1.83.58,2.93,2.93,0,0,0-1.1,1.51v4.94H82V48.81h1v1.91a3.59,3.59,0,0,1,1.19-1.43,2.73,2.73,0,0,1,1.6-.52H86Z" fill="#010101"/></g><g style="isolation:isolate"><path d="M90.4,56.91a3.77,3.77,0,0,1-1.59-.33,3.82,3.82,0,0,1-1.26-.9,4.1,4.1,0,0,1-.83-1.32,4.36,4.36,0,0,1,0-3.18,4.11,4.11,0,0,1,.82-1.29,3.93,3.93,0,0,1,2.84-1.21A3.85,3.85,0,0,1,92,49a3.67,3.67,0,0,1,1.24.89,4.15,4.15,0,0,1,1.1,2.85V53a.59.59,0,0,1,0,.17H87.5a3.33,3.33,0,0,0,1,2.12,2.76,2.76,0,0,0,.9.61,2.7,2.7,0,0,0,1.09.23,2.92,2.92,0,0,0,.77-.11,3.33,3.33,0,0,0,.7-.29,2.74,2.74,0,0,0,.58-.45,1.89,1.89,0,0,0,.39-.59l.9.25a2.56,2.56,0,0,1-.52.8,3.61,3.61,0,0,1-.77.62,3.56,3.56,0,0,1-1,.41A4.07,4.07,0,0,1,90.4,56.91Zm2.92-4.54A3.15,3.15,0,0,0,93,51.2a3.31,3.31,0,0,0-.64-.91,2.82,2.82,0,0,0-2-.8,2.87,2.87,0,0,0-2,.8,3,3,0,0,0-.62.92,3.35,3.35,0,0,0-.28,1.16Z" fill="#010101"/><path d="M98.55,56.91a5.34,5.34,0,0,1-1.81-.31,4.29,4.29,0,0,1-1.53-.88l.48-.7a5.14,5.14,0,0,0,1.36.82,4.07,4.07,0,0,0,1.49.28,2.67,2.67,0,0,0,1.53-.39,1.27,1.27,0,0,0,.57-1.11.94.94,0,0,0-.15-.55,1.25,1.25,0,0,0-.45-.39,3.89,3.89,0,0,0-.75-.3c-.3-.09-.65-.18-1-.27s-.86-.22-1.19-.33a3.59,3.59,0,0,1-.83-.38,1.45,1.45,0,0,1-.49-.53,1.67,1.67,0,0,1-.16-.78A2.27,2.27,0,0,1,95.82,50a2.1,2.1,0,0,1,.64-.75,2.83,2.83,0,0,1,.94-.45,4.32,4.32,0,0,1,1.15-.15,4.59,4.59,0,0,1,1.66.29,3.31,3.31,0,0,1,1.21.79l-.5.61a2.9,2.9,0,0,0-1.08-.69,3.9,3.9,0,0,0-1.32-.23,3,3,0,0,0-.76.09,1.65,1.65,0,0,0-.62.27,1.33,1.33,0,0,0-.42.46,1.4,1.4,0,0,0-.15.66,1.09,1.09,0,0,0,.11.52.88.88,0,0,0,.35.34,2.41,2.41,0,0,0,.62.26c.24.08.55.16.9.24.51.12,1,.24,1.34.37a4.21,4.21,0,0,1,1,.42,1.69,1.69,0,0,1,.59.6,1.72,1.72,0,0,1,.2.85,2.08,2.08,0,0,1-.84,1.74A3.68,3.68,0,0,1,98.55,56.91Z" fill="#010101"/></g><g style="isolation:isolate"><path d="M112.89,56.76,110,52.69l-1.71,1.58v2.49h-1V45.63h1v7.56l4.47-4.36h1.17l-3.25,3.25L114,56.76Z" fill="#010101"/></g><g style="isolation:isolate"><path d="M115.17,56.77l.59-.78a3.92,3.92,0,0,1-1-1.4,4.36,4.36,0,0,1-.08-3.37,4.33,4.33,0,0,1,.82-1.31,4.21,4.21,0,0,1,1.25-.9,3.68,3.68,0,0,1,1.57-.33,3.88,3.88,0,0,1,1.09.15,3.5,3.5,0,0,1,1,.44l.35-.49h.72l-.62.83A3.92,3.92,0,0,1,121.84,51a4.4,4.4,0,0,1,.09,3.36,3.89,3.89,0,0,1-2.06,2.2,3.8,3.8,0,0,1-1.59.33,4,4,0,0,1-1.11-.15,4.47,4.47,0,0,1-1-.43l-.33.44Zm.22-4a3.41,3.41,0,0,0,.26,1.34,3.31,3.31,0,0,0,.71,1l3.41-5.14a2.63,2.63,0,0,0-1.49-.47,2.66,2.66,0,0,0-1.12.25,2.92,2.92,0,0,0-.91.7,3.24,3.24,0,0,0-.63,1A3.47,3.47,0,0,0,115.39,52.82ZM118.28,56a2.55,2.55,0,0,0,1.12-.25,3.06,3.06,0,0,0,.92-.68,3.28,3.28,0,0,0,.62-1,3.43,3.43,0,0,0,0-2.57,3.38,3.38,0,0,0-.7-1.06l-3.42,5.13A2.65,2.65,0,0,0,118.28,56Z" fill="#010101"/><path d="M129.63,56.76l-2.93-4.07L125,54.27v2.49h-1V45.63h1v7.56l4.46-4.36h1.18l-3.25,3.25,3.37,4.68Z" fill="#010101"/></g><g style="isolation:isolate"><path d="M137.71,56.76l-2.93-4.07-1.7,1.58v2.49h-1V45.63h1v7.56l4.46-4.36h1.18l-3.25,3.25,3.37,4.68Z" fill="#010101"/></g><g style="isolation:isolate"><path d="M143.14,56.91a3.8,3.8,0,0,1-2.85-1.23,3.94,3.94,0,0,1-.83-1.32,4.36,4.36,0,0,1,0-3.18,3.94,3.94,0,0,1,.82-1.29,4,4,0,0,1,4.43-.88,3.61,3.61,0,0,1,1.25.89,4.2,4.2,0,0,1,1.09,2.85V53a.72.72,0,0,1,0,.17h-6.8a3.33,3.33,0,0,0,.95,2.12,2.76,2.76,0,0,0,.9.61,2.7,2.7,0,0,0,1.09.23,2.79,2.79,0,0,0,.76-.11,3.2,3.2,0,0,0,.71-.29,2.46,2.46,0,0,0,.57-.45,1.76,1.76,0,0,0,.4-.59l.9.25a2.56,2.56,0,0,1-.52.8,3.44,3.44,0,0,1-.78.62,3.38,3.38,0,0,1-1,.41A4.13,4.13,0,0,1,143.14,56.91Zm2.92-4.54a3.35,3.35,0,0,0-.29-1.17,3.54,3.54,0,0,0-.64-.91A2.91,2.91,0,0,0,142,49.7a2.74,2.74,0,0,0-1.53,1.51,3.35,3.35,0,0,0-.28,1.16Z" fill="#010101"/><path d="M155.33,56.76h-1V52.32a3.89,3.89,0,0,0-.42-2.06,1.43,1.43,0,0,0-1.28-.64,2.72,2.72,0,0,0-.92.17,3.17,3.17,0,0,0-.84.47,4,4,0,0,0-.7.73,2.9,2.9,0,0,0-.44.9v4.87h-1V48.81h.95v1.8a3.73,3.73,0,0,1,1.39-1.4,3.92,3.92,0,0,1,2-.53,2.36,2.36,0,0,1,1.11.24,1.86,1.86,0,0,1,.73.69,3.12,3.12,0,0,1,.4,1.08,7.76,7.76,0,0,1,.12,1.42Z" fill="#010101"/><path d="M164.06,56.91a5.34,5.34,0,0,1-1.81-.31,4.16,4.16,0,0,1-1.52-.88l.47-.7a5.3,5.3,0,0,0,1.36.82,4.07,4.07,0,0,0,1.49.28,2.67,2.67,0,0,0,1.53-.39,1.27,1.27,0,0,0,.57-1.11.94.94,0,0,0-.15-.55,1.25,1.25,0,0,0-.45-.39,3.89,3.89,0,0,0-.75-.3c-.3-.09-.64-.18-1-.27s-.85-.22-1.19-.33a3.8,3.8,0,0,1-.83-.38,1.45,1.45,0,0,1-.49-.53,1.8,1.8,0,0,1-.16-.78,2.27,2.27,0,0,1,.24-1.06,2.21,2.21,0,0,1,.64-.75,2.83,2.83,0,0,1,.94-.45,4.32,4.32,0,0,1,1.15-.15,4.68,4.68,0,0,1,1.67.29,3.35,3.35,0,0,1,1.2.79l-.5.61a2.9,2.9,0,0,0-1.08-.69,3.9,3.9,0,0,0-1.32-.23,3.1,3.1,0,0,0-.76.09,1.65,1.65,0,0,0-.62.27,1.33,1.33,0,0,0-.57,1.12,1.09,1.09,0,0,0,.11.52.88.88,0,0,0,.35.34,2.41,2.41,0,0,0,.62.26q.38.12.9.24c.51.12,1,.24,1.35.37a4.32,4.32,0,0,1,1,.42,1.69,1.69,0,0,1,.59.6,1.72,1.72,0,0,1,.2.85,2.08,2.08,0,0,1-.84,1.74A3.68,3.68,0,0,1,164.06,56.91Z" fill="#010101"/><path d="M172.66,56.37a1.72,1.72,0,0,1-.27.13l-.4.15a4.81,4.81,0,0,1-.52.14,2.93,2.93,0,0,1-.61.06,2.3,2.3,0,0,1-.64-.09,1.6,1.6,0,0,1-.53-.29,1.29,1.29,0,0,1-.37-.48,1.54,1.54,0,0,1-.13-.67V49.64h-1.1v-.83h1.1V46.13h1v2.68h1.83v.83h-1.83V55a.85.85,0,0,0,.31.65,1.07,1.07,0,0,0,.65.21,1.87,1.87,0,0,0,.78-.15,3.93,3.93,0,0,0,.43-.2Z" fill="#010101"/><path d="M176,56.91a3,3,0,0,1-1-.19,2.61,2.61,0,0,1-.84-.53,2.29,2.29,0,0,1-.75-1.75,2,2,0,0,1,.24-1,2.17,2.17,0,0,1,.69-.76,3.2,3.2,0,0,1,1.05-.5,4.68,4.68,0,0,1,1.34-.17,7.37,7.37,0,0,1,1.23.1,5.5,5.5,0,0,1,1.12.31v-.72a2.29,2.29,0,0,0-.6-1.67,2.18,2.18,0,0,0-1.64-.62,3.52,3.52,0,0,0-1.25.25,6.14,6.14,0,0,0-1.3.7l-.37-.69a5.39,5.39,0,0,1,3-1,3.2,3.2,0,0,1,2.35.84,3.07,3.07,0,0,1,.85,2.31v3.58c0,.29.13.43.38.43v.92a2.31,2.31,0,0,1-.39,0,.86.86,0,0,1-.62-.2.73.73,0,0,1-.24-.55l0-.62a3.55,3.55,0,0,1-1.38,1.1A4.29,4.29,0,0,1,176,56.91Zm.25-.79a3.6,3.6,0,0,0,1.48-.31,2.37,2.37,0,0,0,1-.81,1.12,1.12,0,0,0,.21-.29.92.92,0,0,0,.07-.3v-1.3a6.64,6.64,0,0,0-1.08-.3,6.1,6.1,0,0,0-1.13-.11,3.13,3.13,0,0,0-1.79.46,1.38,1.38,0,0,0-.68,1.2,1.58,1.58,0,0,0,.14.69,1.69,1.69,0,0,0,.4.55,1.86,1.86,0,0,0,.6.38A2,2,0,0,0,176.2,56.12Zm-.51-9.5a.93.93,0,0,1,.32-.72,1.24,1.24,0,0,1,.81-.27,1.2,1.2,0,0,1,.81.27,1,1,0,0,1,0,1.45,1.21,1.21,0,0,1-.81.28,1.24,1.24,0,0,1-.81-.28A.93.93,0,0,1,175.69,46.62Zm1.13-.58a.59.59,0,0,0-.43.16.54.54,0,0,0-.18.42.58.58,0,0,0,.18.43.59.59,0,0,0,.43.16.66.66,0,0,0,.44-.16.59.59,0,0,0,.19-.43.52.52,0,0,0-.19-.42A.63.63,0,0,0,176.82,46Z" fill="#010101"/></g><g style="isolation:isolate"><path d="M186.23,49.73a3.19,3.19,0,0,0-1.83.58,2.88,2.88,0,0,0-1.1,1.51v4.94h-1V48.81h1v1.91a3.51,3.51,0,0,1,1.19-1.43,2.7,2.7,0,0,1,1.6-.52h.2Z" fill="#010101"/></g><g style="isolation:isolate"><path d="M196.8,56.76l-2.92-4.07-1.71,1.58v2.49h-1V45.63h1v7.56l4.46-4.36h1.18l-3.25,3.25,3.37,4.68Z" fill="#010101"/><path d="M199.26,45.63h1V55a.93.93,0,0,0,.25.69.89.89,0,0,0,.68.25,2.07,2.07,0,0,0,.4,0,2.13,2.13,0,0,0,.43-.13l.18.84a3.58,3.58,0,0,1-.71.2,4.26,4.26,0,0,1-.72.08,1.54,1.54,0,0,1-1.13-.41,1.48,1.48,0,0,1-.41-1.13Z" fill="#010101"/><path d="M205.35,56.91a3,3,0,0,1-1-.19,2.61,2.61,0,0,1-.84-.53,2.29,2.29,0,0,1-.75-1.75,2,2,0,0,1,.24-1,2.17,2.17,0,0,1,.69-.76,3.2,3.2,0,0,1,1-.5,4.68,4.68,0,0,1,1.34-.17,7.29,7.29,0,0,1,1.23.1,5.5,5.5,0,0,1,1.12.31v-.72a2.29,2.29,0,0,0-.6-1.67,2.16,2.16,0,0,0-1.64-.62,3.52,3.52,0,0,0-1.25.25,6.14,6.14,0,0,0-1.3.7l-.37-.69a5.39,5.39,0,0,1,3-1,3.2,3.2,0,0,1,2.35.84,3.07,3.07,0,0,1,.85,2.31v3.58c0,.29.13.43.38.43v.92a2.31,2.31,0,0,1-.39,0,.86.86,0,0,1-.62-.2.73.73,0,0,1-.24-.55l0-.62a3.55,3.55,0,0,1-1.38,1.1A4.29,4.29,0,0,1,205.35,56.91Zm.25-.79a3.63,3.63,0,0,0,1.48-.31,2.37,2.37,0,0,0,1-.81,1.12,1.12,0,0,0,.21-.29.92.92,0,0,0,.07-.3v-1.3a6.64,6.64,0,0,0-1.08-.3,6.1,6.1,0,0,0-1.13-.11,3.13,3.13,0,0,0-1.79.46,1.4,1.4,0,0,0-.68,1.2,1.58,1.58,0,0,0,.14.69,1.69,1.69,0,0,0,.4.55,1.76,1.76,0,0,0,.6.38A2,2,0,0,0,205.6,56.12Z" fill="#010101"/></g><g style="isolation:isolate"><path d="M215.63,49.73a3.19,3.19,0,0,0-1.83.58,2.88,2.88,0,0,0-1.1,1.51v4.94h-1V48.81h1v1.91a3.51,3.51,0,0,1,1.19-1.43,2.7,2.7,0,0,1,1.6-.52h.2Z" fill="#010101"/></g><g style="isolation:isolate"><path d="M30,74.67l-.27.12-.4.15a4.81,4.81,0,0,1-.52.14,3,3,0,0,1-.61.06,2.25,2.25,0,0,1-.64-.09,1.44,1.44,0,0,1-.53-.29,1.19,1.19,0,0,1-.37-.48,1.54,1.54,0,0,1-.14-.67V67.93H25.47v-.82h1.09V64.42h1v2.69h1.83v.82H27.6v5.39a.82.82,0,0,0,.31.65,1.07,1.07,0,0,0,.65.21,1.9,1.9,0,0,0,.78-.15,2.84,2.84,0,0,0,.42-.2Z" fill="#010101"/><path d="M31.33,65.44V63.92h1v1.52Zm0,9.61V67.11h1v7.94Z" fill="#010101"/></g><g style="isolation:isolate"><path d="M34.7,63.92h1v9.33a1,1,0,0,0,.24.69.93.93,0,0,0,.69.25,2.15,2.15,0,0,0,.4,0,2.58,2.58,0,0,0,.42-.12l.19.83a3.58,3.58,0,0,1-.71.2,4.26,4.26,0,0,1-.73.08,1.53,1.53,0,0,1-1.12-.41,1.49,1.49,0,0,1-.42-1.13Z" fill="#010101"/></g><g style="isolation:isolate"><path d="M46.1,75.2a3.35,3.35,0,0,1-1.73-.47,3.56,3.56,0,0,1-1.22-1.22v1.54h-.93V63.92h1v4.85a4.57,4.57,0,0,1,1.28-1.31,3.36,3.36,0,0,1,3.24-.14,3.41,3.41,0,0,1,1.13.94,4.44,4.44,0,0,1,.72,1.32,4.94,4.94,0,0,1,.25,1.52,4.35,4.35,0,0,1-.29,1.58A4.4,4.4,0,0,1,48.79,74a3.88,3.88,0,0,1-1.2.88A3.42,3.42,0,0,1,46.1,75.2Zm-.24-.92a2.67,2.67,0,0,0,1.2-.26A3,3,0,0,0,48,73.3a3.47,3.47,0,0,0,.6-1,3.18,3.18,0,0,0,.23-1.18,3.54,3.54,0,0,0-.21-1.21,3.42,3.42,0,0,0-.58-1,2.86,2.86,0,0,0-.9-.72A2.47,2.47,0,0,0,46,67.88a2.55,2.55,0,0,0-.88.16,3,3,0,0,0-.77.44,3.37,3.37,0,0,0-.62.63,4.2,4.2,0,0,0-.46.75v2.47a1.65,1.65,0,0,0,.33.77,2.69,2.69,0,0,0,.64.62,3.43,3.43,0,0,0,.81.41A2.52,2.52,0,0,0,45.86,74.28Z" fill="#010101"/><path d="M55.58,68a3.24,3.24,0,0,0-1.83.58,2.91,2.91,0,0,0-1.09,1.51v4.94h-1V67.11h1V69a3.57,3.57,0,0,1,1.18-1.43,2.76,2.76,0,0,1,1.61-.52h.19Z" fill="#010101"/><path d="M59.45,75.2a2.23,2.23,0,0,1-1.92-.86,4.27,4.27,0,0,1-.64-2.57V67.11h1v4.48c0,1.79.62,2.69,1.84,2.69a2.74,2.74,0,0,0,.9-.15,2.82,2.82,0,0,0,.82-.44,3.38,3.38,0,0,0,.67-.69,3.22,3.22,0,0,0,.48-.9v-5h1V73.7c0,.29.12.43.36.43v.92l-.29,0h-.16a.84.84,0,0,1-.6-.26.93.93,0,0,1-.23-.66v-.91a3.62,3.62,0,0,1-1.41,1.44A3.73,3.73,0,0,1,59.45,75.2Z" fill="#010101"/><path d="M69.21,75.15a3.24,3.24,0,0,1-1.5-.34,3.89,3.89,0,0,1-1.18-.91,4.17,4.17,0,0,1-.77-1.29,4.33,4.33,0,0,1-.27-1.51,4.64,4.64,0,0,1,.27-1.58,4.08,4.08,0,0,1,.75-1.32,4,4,0,0,1,1.17-.9,3.37,3.37,0,0,1,1.5-.33,3.07,3.07,0,0,1,1.77.51,5.07,5.07,0,0,1,1.28,1.29V67.11h.93v8a3.19,3.19,0,0,1-.32,1.45A3,3,0,0,1,72,77.59a3.48,3.48,0,0,1-1.24.64,5.23,5.23,0,0,1-1.5.22A4.44,4.44,0,0,1,67.06,78a4,4,0,0,1-1.36-1.31l.64-.51a2.86,2.86,0,0,0,1.25,1.12,4,4,0,0,0,1.68.36,3.61,3.61,0,0,0,1.1-.16,2.49,2.49,0,0,0,.9-.47,2.21,2.21,0,0,0,.62-.79,2.63,2.63,0,0,0,.23-1.12V73.51a3.21,3.21,0,0,1-1.25,1.2A3.3,3.3,0,0,1,69.21,75.15Zm.29-.87a2.59,2.59,0,0,0,.9-.16,3.67,3.67,0,0,0,.8-.45,2.79,2.79,0,0,0,.6-.64,2,2,0,0,0,.32-.71V69.86a3,3,0,0,0-.46-.79,3.17,3.17,0,0,0-.65-.62,3.13,3.13,0,0,0-.79-.41,2.28,2.28,0,0,0-.84-.16,2.59,2.59,0,0,0-1.2.28,2.91,2.91,0,0,0-.89.74,3.48,3.48,0,0,0-.56,1,4,4,0,0,0-.19,1.17,3.31,3.31,0,0,0,.23,1.22,3.13,3.13,0,0,0,.63,1,2.87,2.87,0,0,0,.94.68A2.66,2.66,0,0,0,69.5,74.28Z" fill="#010101"/><path d="M75.29,75.05v-1.5h.9v1.5Z" fill="#010101"/></g><g style="isolation:isolate"><path d="M81.86,64.22l3.87,9.5,3.86-9.5H90.7L86.19,75.05h-.93L80.75,64.22Z" fill="#010101"/><path d="M92,65.44V63.92h1v1.52Zm0,9.61V67.11h1v7.94Z" fill="#010101"/></g><g style="isolation:isolate"><path d="M104.92,75.05,102,71l-1.71,1.58v2.49h-1V63.92h1v7.56l4.46-4.36h1.18l-3.25,3.25,3.37,4.68Z" fill="#010101"/></g><g style="isolation:isolate"><path d="M110.3,75.2a3.72,3.72,0,0,1-1.58-.33,3.81,3.81,0,0,1-1.24-.89,4,4,0,0,1-.82-1.31,4.37,4.37,0,0,1-.29-1.57,4.24,4.24,0,0,1,.3-1.59,4,4,0,0,1,2.06-2.21A3.71,3.71,0,0,1,110.3,67a3.76,3.76,0,0,1,1.58.33,4.21,4.21,0,0,1,1.25.9,4.14,4.14,0,0,1,.82,1.31,4.24,4.24,0,0,1,.3,1.59,4.37,4.37,0,0,1-.29,1.57,4,4,0,0,1-.81,1.31,3.84,3.84,0,0,1-2.85,1.22Zm-2.88-4.09a3.39,3.39,0,0,0,.23,1.25,3.3,3.3,0,0,0,.62,1,2.75,2.75,0,0,0,.91.68,2.68,2.68,0,0,0,1.12.24,2.52,2.52,0,0,0,1.12-.25,2.94,2.94,0,0,0,.93-.68,3.28,3.28,0,0,0,.62-1,3.39,3.39,0,0,0,.23-1.25,3.45,3.45,0,0,0-.23-1.24,3.28,3.28,0,0,0-.62-1,3.13,3.13,0,0,0-.93-.69,2.61,2.61,0,0,0-2.23,0,2.81,2.81,0,0,0-.91.7,3.17,3.17,0,0,0-.63,1A3.47,3.47,0,0,0,107.42,71.11Z" fill="#010101"/><path d="M127.8,75.05h-1V70.61a3.68,3.68,0,0,0-.44-2,1.47,1.47,0,0,0-1.31-.66,2.27,2.27,0,0,0-.86.17,2.7,2.7,0,0,0-.75.47,3.29,3.29,0,0,0-.6.73,3.82,3.82,0,0,0-.4.92v4.85h-1V70.61a3.79,3.79,0,0,0-.43-2.06,1.47,1.47,0,0,0-1.31-.64,2.33,2.33,0,0,0-1.6.63,3.47,3.47,0,0,0-1,1.64v4.87h-1V67.11h.94V68.9a3.76,3.76,0,0,1,1.28-1.42A3.2,3.2,0,0,1,120,67a2.26,2.26,0,0,1,1.6.56,2.42,2.42,0,0,1,.74,1.48,3.41,3.41,0,0,1,3.07-2,2.45,2.45,0,0,1,1.13.24,1.94,1.94,0,0,1,.75.7,3.2,3.2,0,0,1,.41,1.08,6.77,6.77,0,0,1,.13,1.41Z" fill="#010101"/><path d="M141.81,75.05h-1V70.61a3.77,3.77,0,0,0-.44-2,1.48,1.48,0,0,0-1.31-.66,2.24,2.24,0,0,0-.86.17,2.7,2.7,0,0,0-.75.47,3.29,3.29,0,0,0-.6.73,3.47,3.47,0,0,0-.4.92v4.85h-1V70.61a3.88,3.88,0,0,0-.43-2.06,1.49,1.49,0,0,0-1.31-.64,2.33,2.33,0,0,0-1.6.63,3.47,3.47,0,0,0-1,1.64v4.87h-1V67.11h.94V68.9a3.76,3.76,0,0,1,1.28-1.42A3.17,3.17,0,0,1,134,67a2.29,2.29,0,0,1,1.61.56,2.47,2.47,0,0,1,.74,1.48,3.39,3.39,0,0,1,3.06-2,2.46,2.46,0,0,1,1.14.24,1.94,1.94,0,0,1,.75.7,3.43,3.43,0,0,1,.41,1.08,7.52,7.52,0,0,1,.13,1.41Z" fill="#010101"/><path d="M147.43,75.2a3.77,3.77,0,0,1-1.59-.33,4,4,0,0,1-1.26-.9,4.28,4.28,0,0,1-.83-1.32,4.22,4.22,0,0,1-.3-1.6,4.1,4.1,0,0,1,.3-1.57,4,4,0,0,1,.82-1.3A3.93,3.93,0,0,1,147.42,67a3.77,3.77,0,0,1,1.59.33,3.58,3.58,0,0,1,1.24.89,4,4,0,0,1,.81,1.29,4.28,4.28,0,0,1,.29,1.56v.24a.59.59,0,0,1,0,.17h-6.79a3.26,3.26,0,0,0,.94,2.12,2.91,2.91,0,0,0,.91.61,2.66,2.66,0,0,0,1.09.23,2.85,2.85,0,0,0,.76-.11,3.12,3.12,0,0,0,.7-.29,2.51,2.51,0,0,0,.58-.45,1.93,1.93,0,0,0,.4-.59l.9.25a3,3,0,0,1-.52.8,3.67,3.67,0,0,1-.78.62,3.5,3.5,0,0,1-1,.41A4.15,4.15,0,0,1,147.43,75.2Zm2.93-4.54a3.15,3.15,0,0,0-.3-1.17,3.31,3.31,0,0,0-.64-.91,2.87,2.87,0,0,0-.9-.59,2.82,2.82,0,0,0-1.09-.21,3,3,0,0,0-1.1.21,2.87,2.87,0,0,0-.9.59,3,3,0,0,0-.63.92,3.59,3.59,0,0,0-.28,1.16Z" fill="#010101"/></g><g style="isolation:isolate"><path d="M156.91,68a3.24,3.24,0,0,0-1.83.58A2.91,2.91,0,0,0,154,70.11v4.94h-1V67.11h1V69a3.57,3.57,0,0,1,1.18-1.43,2.76,2.76,0,0,1,1.61-.52h.19Z" fill="#010101"/></g><g style="isolation:isolate"><path d="M165.2,75.2a3.76,3.76,0,0,1-1.58-.33,3.81,3.81,0,0,1-1.24-.89,4,4,0,0,1-.82-1.31,4.37,4.37,0,0,1-.29-1.57,4.24,4.24,0,0,1,.3-1.59,4,4,0,0,1,2.06-2.21A3.71,3.71,0,0,1,165.2,67a3.76,3.76,0,0,1,1.58.33,4.21,4.21,0,0,1,1.25.9,4.14,4.14,0,0,1,.82,1.31,4.24,4.24,0,0,1,.3,1.59,4.17,4.17,0,0,1-.29,1.57,4,4,0,0,1-.81,1.31,3.84,3.84,0,0,1-2.85,1.22Zm-2.88-4.09a3.39,3.39,0,0,0,.23,1.25,3.3,3.3,0,0,0,.62,1,2.75,2.75,0,0,0,.91.68,2.68,2.68,0,0,0,1.12.24,2.52,2.52,0,0,0,1.12-.25,2.83,2.83,0,0,0,.93-.68,3.28,3.28,0,0,0,.62-1,3.39,3.39,0,0,0,.23-1.25,3.45,3.45,0,0,0-.23-1.24,3.28,3.28,0,0,0-.62-1,3,3,0,0,0-.93-.69,2.61,2.61,0,0,0-2.23,0,2.92,2.92,0,0,0-.91.7,3.17,3.17,0,0,0-.63,1A3.47,3.47,0,0,0,162.32,71.11Z" fill="#010101"/><path d="M174.07,75.15a3.3,3.3,0,0,1-1.5-.34,3.85,3.85,0,0,1-1.17-.91,4,4,0,0,1-.77-1.29,4.33,4.33,0,0,1-.27-1.51,4.89,4.89,0,0,1,.26-1.58,4.11,4.11,0,0,1,.76-1.32,3.81,3.81,0,0,1,1.16-.9A3.43,3.43,0,0,1,174,67a3,3,0,0,1,1.77.51,4.76,4.76,0,0,1,1.28,1.29V67.11H178v8a3.19,3.19,0,0,1-.31,1.45,3.14,3.14,0,0,1-.84,1.06,3.43,3.43,0,0,1-1.23.64,5.34,5.34,0,0,1-1.5.22,4.39,4.39,0,0,1-2.21-.49,3.88,3.88,0,0,1-1.36-1.31l.64-.51a2.76,2.76,0,0,0,1.25,1.12,4,4,0,0,0,1.68.36,3.55,3.55,0,0,0,1.09-.16,2.54,2.54,0,0,0,.91-.47,2.21,2.21,0,0,0,.62-.79,2.63,2.63,0,0,0,.23-1.12V73.51a3.45,3.45,0,0,1-2.92,1.64Zm.29-.87a2.51,2.51,0,0,0,.9-.16,3.26,3.26,0,0,0,.8-.45,3.08,3.08,0,0,0,.61-.64,2,2,0,0,0,.32-.71V69.86a3.7,3.7,0,0,0-.46-.79,3,3,0,0,0-.66-.62,2.91,2.91,0,0,0-.78-.41,2.29,2.29,0,0,0-.85-.16,2.58,2.58,0,0,0-1.19.28,3.08,3.08,0,0,0-.9.74,3.45,3.45,0,0,0-.55,1,3.67,3.67,0,0,0-.19,1.17,3.34,3.34,0,0,0,.86,2.24,2.87,2.87,0,0,0,.94.68A2.61,2.61,0,0,0,174.36,74.28Z" fill="#010101"/></g><g style="isolation:isolate"><path d="M28.87,93.49a5.4,5.4,0,0,1-1.82-.31,4.16,4.16,0,0,1-1.52-.88l.47-.7a5,5,0,0,0,1.36.82,3.91,3.91,0,0,0,1.49.28,2.67,2.67,0,0,0,1.53-.39A1.27,1.27,0,0,0,31,91.2a.94.94,0,0,0-.15-.55,1.25,1.25,0,0,0-.45-.39,4,4,0,0,0-.74-.3c-.31-.09-.65-.17-1.05-.27s-.85-.22-1.19-.33a3.8,3.8,0,0,1-.83-.38,1.38,1.38,0,0,1-.49-.53,1.8,1.8,0,0,1-.16-.78,2.2,2.2,0,0,1,.24-1,2.15,2.15,0,0,1,.64-.76,2.79,2.79,0,0,1,.95-.45,4.26,4.26,0,0,1,1.15-.15,4.42,4.42,0,0,1,1.66.3,3.25,3.25,0,0,1,1.2.78l-.5.61a3,3,0,0,0-1.08-.69A3.88,3.88,0,0,0,28.84,86a3.14,3.14,0,0,0-.77.08,1.7,1.7,0,0,0-.61.27,1.24,1.24,0,0,0-.42.46,1.29,1.29,0,0,0-.16.66A1.09,1.09,0,0,0,27,88a1,1,0,0,0,.35.35,2.84,2.84,0,0,0,.62.25c.25.08.55.16.91.24s.95.24,1.34.37a4.41,4.41,0,0,1,1,.42,1.74,1.74,0,0,1,.58.6,1.72,1.72,0,0,1,.2.85,2.08,2.08,0,0,1-.84,1.74A3.6,3.6,0,0,1,28.87,93.49Z" fill="#010101"/><path d="M33.93,93.35l.59-.78a3.92,3.92,0,0,1-1-1.4,4.36,4.36,0,0,1-.08-3.37,4.33,4.33,0,0,1,.82-1.31,4.21,4.21,0,0,1,1.25-.9A3.68,3.68,0,0,1,37,85.26a3.88,3.88,0,0,1,1.09.15,3.5,3.5,0,0,1,1,.44l.35-.48h.72l-.62.82A3.92,3.92,0,0,1,40.6,87.6,4.4,4.4,0,0,1,40.69,91a4,4,0,0,1-.81,1.31,3.85,3.85,0,0,1-1.25.89,3.8,3.8,0,0,1-1.59.33A3.87,3.87,0,0,1,35,92.91l-.33.44Zm.22-3.95a3.41,3.41,0,0,0,.26,1.34,3.46,3.46,0,0,0,.7,1l3.42-5.13A2.57,2.57,0,0,0,37,86.17a2.66,2.66,0,0,0-1.12.25,2.92,2.92,0,0,0-.91.7,3.35,3.35,0,0,0-.63,1A3.47,3.47,0,0,0,34.15,89.4ZM37,92.57a2.55,2.55,0,0,0,1.12-.25,2.9,2.9,0,0,0,.92-.68,3.28,3.28,0,0,0,.62-1A3.41,3.41,0,0,0,39,87l-3.42,5.12A2.65,2.65,0,0,0,37,92.57Z" fill="#010101"/></g><g style="isolation:isolate"><path d="M46.68,86.31a3.24,3.24,0,0,0-1.83.58,3,3,0,0,0-1.09,1.51v4.94h-1V85.4h1v1.9a3.57,3.57,0,0,1,1.18-1.43,2.76,2.76,0,0,1,1.61-.52l.19,0Z" fill="#010101"/></g><g style="isolation:isolate"><path d="M50.86,93.44a3.24,3.24,0,0,1-1.5-.34,3.89,3.89,0,0,1-1.18-.91,4,4,0,0,1-.76-1.29,4.12,4.12,0,0,1-.28-1.51,4.64,4.64,0,0,1,.27-1.58,4.28,4.28,0,0,1,.75-1.32,4,4,0,0,1,1.17-.9,3.37,3.37,0,0,1,1.5-.33,3.07,3.07,0,0,1,1.77.51,5.07,5.07,0,0,1,1.28,1.29V85.4h.93v8a3.19,3.19,0,0,1-.32,1.45,3,3,0,0,1-.83,1.06,3.48,3.48,0,0,1-1.24.64,5.23,5.23,0,0,1-1.5.22,4.44,4.44,0,0,1-2.21-.49,4,4,0,0,1-1.36-1.31l.64-.51a2.86,2.86,0,0,0,1.25,1.12,4,4,0,0,0,1.68.36,3.61,3.61,0,0,0,1.1-.16,2.63,2.63,0,0,0,.91-.47,2.3,2.3,0,0,0,.61-.79,2.63,2.63,0,0,0,.23-1.12V91.8A3.21,3.21,0,0,1,52.52,93,3.3,3.3,0,0,1,50.86,93.44Zm.29-.87a2.59,2.59,0,0,0,.9-.16,3,3,0,0,0,.8-.45,3,3,0,0,0,.6-.63,2.07,2.07,0,0,0,.32-.72V88.15a3,3,0,0,0-.46-.79,3.17,3.17,0,0,0-.65-.62,3.13,3.13,0,0,0-.79-.41,2.28,2.28,0,0,0-.84-.16,2.59,2.59,0,0,0-1.2.28,2.91,2.91,0,0,0-.89.74,3.48,3.48,0,0,0-.56,1,4,4,0,0,0-.19,1.17,3.31,3.31,0,0,0,.23,1.22,3.13,3.13,0,0,0,.63,1,2.87,2.87,0,0,0,.94.68A2.66,2.66,0,0,0,51.15,92.57Z" fill="#010101"/><path d="M60.52,93.49a3.77,3.77,0,0,1-1.59-.33,4,4,0,0,1-1.26-.9,4.28,4.28,0,0,1-.83-1.32,4.22,4.22,0,0,1-.3-1.6,4.1,4.1,0,0,1,.3-1.57,3.91,3.91,0,0,1,.83-1.3,3.72,3.72,0,0,1,1.25-.88,3.84,3.84,0,0,1,1.59-.33,3.77,3.77,0,0,1,1.59.33,3.58,3.58,0,0,1,1.24.89,4,4,0,0,1,.81,1.29,4.28,4.28,0,0,1,.29,1.56v.24a.72.72,0,0,1,0,.17h-6.8a3.26,3.26,0,0,0,.94,2.12,3.13,3.13,0,0,0,.91.62,2.76,2.76,0,0,0,1.85.11,3.12,3.12,0,0,0,.7-.29,2.32,2.32,0,0,0,.58-.45,1.93,1.93,0,0,0,.4-.59l.9.25a3,3,0,0,1-.52.8,3.38,3.38,0,0,1-.78.62,3.5,3.5,0,0,1-1,.41A4.15,4.15,0,0,1,60.52,93.49ZM63.45,89a3.15,3.15,0,0,0-.3-1.17,3.31,3.31,0,0,0-.64-.91,2.87,2.87,0,0,0-.9-.59,2.82,2.82,0,0,0-1.09-.21,2.86,2.86,0,0,0-1.09.21,2.8,2.8,0,0,0-.91.59,3,3,0,0,0-.63.92A3.59,3.59,0,0,0,57.61,89Z" fill="#010101"/></g><g style="isolation:isolate"><path d="M70,86.31a3.18,3.18,0,0,0-1.82.58,2.92,2.92,0,0,0-1.1,1.51v4.94H66V85.4h1v1.9a3.51,3.51,0,0,1,1.19-1.43,2.7,2.7,0,0,1,1.6-.52l.19,0Z" fill="#010101"/></g><g style="isolation:isolate"><path d="M75.29,93.34V86.22h-1.1V85.4h1.1v-.22a3.71,3.71,0,0,1,.63-2.29,2,2,0,0,1,1.7-.83,3.15,3.15,0,0,1,.92.13,3,3,0,0,1,.76.37l-.32.75a1.54,1.54,0,0,0-.53-.26,2.23,2.23,0,0,0-.63-.09,1.23,1.23,0,0,0-1.11.56,2.87,2.87,0,0,0-.38,1.63v.25h2.19v.82H76.33v7.12Z" fill="#010101"/></g><g style="isolation:isolate"><path d="M82.93,93.49a3.69,3.69,0,0,1-1.58-.33,3.85,3.85,0,0,1-1.25-.89A4,4,0,0,1,79.29,91,4.17,4.17,0,0,1,79,89.39a4.24,4.24,0,0,1,.3-1.59,4,4,0,0,1,2.06-2.21,3.71,3.71,0,0,1,1.57-.33,3.76,3.76,0,0,1,1.58.33,4.21,4.21,0,0,1,1.25.9,4.33,4.33,0,0,1,.82,1.31,4.24,4.24,0,0,1,.3,1.59A4.37,4.37,0,0,1,86.59,91a4,4,0,0,1-.82,1.31,3.84,3.84,0,0,1-2.84,1.22ZM80.05,89.4a3.39,3.39,0,0,0,.23,1.25,3.3,3.3,0,0,0,.62,1,2.67,2.67,0,0,0,2,.92,2.52,2.52,0,0,0,1.12-.25,2.79,2.79,0,0,0,.92-.68,3.13,3.13,0,0,0,.63-1,3.39,3.39,0,0,0,.23-1.25,3.45,3.45,0,0,0-.23-1.24,3.13,3.13,0,0,0-.63-1,3,3,0,0,0-.92-.69,2.66,2.66,0,0,0-1.12-.25,2.58,2.58,0,0,0-1.11.25,3,3,0,0,0-.92.7,3.33,3.33,0,0,0-.62,1A3.47,3.47,0,0,0,80.05,89.4Z" fill="#010101"/></g><g style="isolation:isolate"><path d="M92.58,86.31a3.24,3.24,0,0,0-1.83.58,3,3,0,0,0-1.1,1.51v4.94h-1V85.4h1v1.9a3.59,3.59,0,0,1,1.19-1.43,2.73,2.73,0,0,1,1.6-.52l.2,0Z" fill="#010101"/></g><g style="isolation:isolate"><path d="M109.3,93.34h-1V88.9a3.68,3.68,0,0,0-.44-2,1.47,1.47,0,0,0-1.31-.66,2.27,2.27,0,0,0-.86.17,2.7,2.7,0,0,0-.75.47,3.29,3.29,0,0,0-.6.73,3.47,3.47,0,0,0-.4.92v4.85h-1V88.9a3.88,3.88,0,0,0-.43-2.06,1.47,1.47,0,0,0-1.31-.64,2.33,2.33,0,0,0-1.6.63,3.52,3.52,0,0,0-1,1.64v4.87h-1V85.4h.94v1.79a3.76,3.76,0,0,1,1.28-1.42,3.18,3.18,0,0,1,1.76-.51,2.26,2.26,0,0,1,1.6.56,2.47,2.47,0,0,1,.74,1.48,3.39,3.39,0,0,1,3.07-2,2.45,2.45,0,0,1,1.13.24,1.94,1.94,0,0,1,.75.7,3.29,3.29,0,0,1,.41,1.08,6.77,6.77,0,0,1,.13,1.41Z" fill="#010101"/><path d="M114.88,93.49a3.77,3.77,0,0,1-1.59-.33,3.81,3.81,0,0,1-1.24-.89,4,4,0,0,1-.81-1.31,4.17,4.17,0,0,1-.29-1.57,4.23,4.23,0,0,1,.29-1.59,4.35,4.35,0,0,1,.83-1.31,4.16,4.16,0,0,1,1.24-.9,3.71,3.71,0,0,1,1.57-.33,3.79,3.79,0,0,1,1.58.33,4,4,0,0,1,2.07,2.21,4.24,4.24,0,0,1,.3,1.59,4.37,4.37,0,0,1-.29,1.57,4.21,4.21,0,0,1-.82,1.31,3.85,3.85,0,0,1-1.25.89A3.77,3.77,0,0,1,114.88,93.49ZM112,89.4a3.2,3.2,0,0,0,.23,1.25,3.27,3.27,0,0,0,.61,1,2.79,2.79,0,0,0,.92.68,2.65,2.65,0,0,0,1.12.24,2.55,2.55,0,0,0,1.12-.25,2.79,2.79,0,0,0,.92-.68,3.51,3.51,0,0,0,.63-1,3.39,3.39,0,0,0,.22-1.25,3.45,3.45,0,0,0-.22-1.24,3.51,3.51,0,0,0-.63-1,3,3,0,0,0-.92-.69,2.69,2.69,0,0,0-1.12-.25,2.66,2.66,0,0,0-1.12.25,2.92,2.92,0,0,0-.91.7,3.33,3.33,0,0,0-.62,1A3.27,3.27,0,0,0,112,89.4Z" fill="#010101"/></g><g style="isolation:isolate"><path d="M127.24,93.34h-1V88.9a3.89,3.89,0,0,0-.42-2.06,1.45,1.45,0,0,0-1.29-.64,2.66,2.66,0,0,0-.91.17,3.07,3.07,0,0,0-.85.47,3.69,3.69,0,0,0-.69.73,2.9,2.9,0,0,0-.44.9v4.87h-1V85.4h1v1.79a3.81,3.81,0,0,1,1.39-1.4,3.88,3.88,0,0,1,2-.53,2.41,2.41,0,0,1,1.12.24,1.86,1.86,0,0,1,.73.69,3.12,3.12,0,0,1,.39,1.08,6.93,6.93,0,0,1,.13,1.42Z" fill="#010101"/></g><g style="isolation:isolate"><path d="M133.18,93l-.26.12-.41.15a4.25,4.25,0,0,1-.52.14,2.93,2.93,0,0,1-.61.06,2.3,2.3,0,0,1-.64-.09,1.58,1.58,0,0,1-.53-.28,1.44,1.44,0,0,1-.5-1.16V86.22h-1.1V85.4h1.1V82.71h1V85.4h1.83v.82h-1.83v5.39a.82.82,0,0,0,.32.65,1,1,0,0,0,.64.21,1.87,1.87,0,0,0,.78-.15,2.63,2.63,0,0,0,.43-.2Z" fill="#010101"/></g><g style="isolation:isolate"><path d="M137.71,93.49a3.77,3.77,0,0,1-1.59-.33,3.82,3.82,0,0,1-1.26-.9,4.1,4.1,0,0,1-.83-1.32,4.22,4.22,0,0,1-.3-1.6,4.1,4.1,0,0,1,.3-1.57,4,4,0,0,1,.82-1.3,3.93,3.93,0,0,1,2.84-1.21,3.85,3.85,0,0,1,1.6.33,3.67,3.67,0,0,1,1.24.89,4.4,4.4,0,0,1,.81,1.29,4.28,4.28,0,0,1,.29,1.56v.24a.59.59,0,0,1,0,.17h-6.8a3.33,3.33,0,0,0,.95,2.12,3,3,0,0,0,.9.62,2.87,2.87,0,0,0,1.09.22,2.92,2.92,0,0,0,.77-.11,3.33,3.33,0,0,0,.7-.29,2.74,2.74,0,0,0,.58-.45,1.89,1.89,0,0,0,.39-.59l.9.25a2.56,2.56,0,0,1-.52.8,3.33,3.33,0,0,1-.77.62,3.56,3.56,0,0,1-1,.41A4.07,4.07,0,0,1,137.71,93.49ZM140.63,89a3.15,3.15,0,0,0-.29-1.17,3.31,3.31,0,0,0-.64-.91,2.82,2.82,0,0,0-2-.8,2.87,2.87,0,0,0-2,.8,3,3,0,0,0-.62.92A3.35,3.35,0,0,0,134.8,89Z" fill="#010101"/><path d="M147.19,86.31a3.24,3.24,0,0,0-1.83.58,3,3,0,0,0-1.1,1.51v4.94h-1V85.4h1v1.9a3.59,3.59,0,0,1,1.19-1.43,2.73,2.73,0,0,1,1.6-.52l.2,0Z" fill="#010101"/><path d="M148.58,83.73V82.21h1v1.52Zm0,9.61V85.4h1v7.94Z" fill="#010101"/><path d="M158.57,93.34h-1V88.9a3.89,3.89,0,0,0-.42-2.06,1.45,1.45,0,0,0-1.29-.64,2.66,2.66,0,0,0-.91.17,3.07,3.07,0,0,0-.85.47,3.69,3.69,0,0,0-.69.73,2.92,2.92,0,0,0-.45.9v4.87h-1V85.4h.94v1.79a3.89,3.89,0,0,1,3.37-1.93,2.34,2.34,0,0,1,1.11.24,1.89,1.89,0,0,1,.74.69,3.12,3.12,0,0,1,.39,1.08,7.76,7.76,0,0,1,.12,1.42Z" fill="#010101"/><path d="M164,93.44a3.24,3.24,0,0,1-1.5-.34,3.89,3.89,0,0,1-1.18-.91,4,4,0,0,1-.76-1.29,4.12,4.12,0,0,1-.28-1.51,4.64,4.64,0,0,1,.27-1.58,4.28,4.28,0,0,1,.75-1.32,4,4,0,0,1,1.17-.9,3.37,3.37,0,0,1,1.5-.33,3.07,3.07,0,0,1,1.77.51A5.07,5.07,0,0,1,167,87.06V85.4h.93v8a3.19,3.19,0,0,1-.32,1.45,3,3,0,0,1-.83,1.06,3.48,3.48,0,0,1-1.24.64,5.23,5.23,0,0,1-1.5.22,4.44,4.44,0,0,1-2.21-.49,4,4,0,0,1-1.36-1.31l.64-.51a2.86,2.86,0,0,0,1.25,1.12,4,4,0,0,0,1.68.36,3.61,3.61,0,0,0,1.1-.16,2.49,2.49,0,0,0,.9-.47,2.21,2.21,0,0,0,.62-.79,2.63,2.63,0,0,0,.23-1.12V91.8a3.21,3.21,0,0,1-1.25,1.2A3.3,3.3,0,0,1,164,93.44Zm.29-.87a2.59,2.59,0,0,0,.9-.16A3,3,0,0,0,166,92a3,3,0,0,0,.6-.63,2.07,2.07,0,0,0,.32-.72V88.15a3,3,0,0,0-.46-.79,3.17,3.17,0,0,0-.65-.62,3.13,3.13,0,0,0-.79-.41,2.28,2.28,0,0,0-.84-.16,2.59,2.59,0,0,0-1.2.28,2.91,2.91,0,0,0-.89.74,3.48,3.48,0,0,0-.56,1,4,4,0,0,0-.19,1.17,3.31,3.31,0,0,0,.23,1.22,3.13,3.13,0,0,0,.63,1,2.87,2.87,0,0,0,.94.68A2.66,2.66,0,0,0,164.26,92.57Z" fill="#010101"/><path d="M173.63,93.49a3.77,3.77,0,0,1-1.59-.33,4,4,0,0,1-1.26-.9,4.28,4.28,0,0,1-.83-1.32,4.22,4.22,0,0,1-.3-1.6,4.16,4.16,0,0,1,1.13-2.87,3.88,3.88,0,0,1,2.84-1.21,3.77,3.77,0,0,1,1.59.33,3.58,3.58,0,0,1,1.24.89,4,4,0,0,1,.81,1.29,4.28,4.28,0,0,1,.29,1.56v.24a.72.72,0,0,1,0,.17h-6.8a3.26,3.26,0,0,0,.94,2.12,3.13,3.13,0,0,0,.91.62,2.76,2.76,0,0,0,1.85.11,2.94,2.94,0,0,0,.7-.29,2.32,2.32,0,0,0,.58-.45,1.93,1.93,0,0,0,.4-.59l.9.25a2.75,2.75,0,0,1-.52.8,3.18,3.18,0,0,1-.78.62,3.5,3.5,0,0,1-1,.41A4.15,4.15,0,0,1,173.63,93.49ZM176.56,89a3.15,3.15,0,0,0-.3-1.17,3.31,3.31,0,0,0-.64-.91,2.87,2.87,0,0,0-.9-.59,2.82,2.82,0,0,0-1.09-.21,2.86,2.86,0,0,0-1.09.21,2.8,2.8,0,0,0-.91.59,3,3,0,0,0-.63.92,3.59,3.59,0,0,0-.28,1.16Z" fill="#010101"/><path d="M185.83,93.34h-1V88.9a3.89,3.89,0,0,0-.42-2.06,1.45,1.45,0,0,0-1.29-.64,2.66,2.66,0,0,0-.91.17,3.07,3.07,0,0,0-.85.47,3.69,3.69,0,0,0-.69.73,2.9,2.9,0,0,0-.44.9v4.87h-1V85.4h.95v1.79a3.81,3.81,0,0,1,1.39-1.4,3.85,3.85,0,0,1,2-.53,2.41,2.41,0,0,1,1.12.24,1.86,1.86,0,0,1,.73.69,3.12,3.12,0,0,1,.39,1.08,6.93,6.93,0,0,1,.13,1.42Z" fill="#010101"/></g><g style="isolation:isolate"><path d="M193.92,93.49a2.71,2.71,0,0,1-1-.19,2.61,2.61,0,0,1-.84-.53,2.29,2.29,0,0,1-.56-.78,2.4,2.4,0,0,1-.2-1,1.86,1.86,0,0,1,.25-1,2.33,2.33,0,0,1,.68-.76,3.35,3.35,0,0,1,1.06-.5,5.06,5.06,0,0,1,1.34-.17,7.46,7.46,0,0,1,1.23.1A5.9,5.9,0,0,1,197,89v-.72a2.29,2.29,0,0,0-.59-1.67,2.2,2.2,0,0,0-1.65-.61,3.59,3.59,0,0,0-1.25.24,6.34,6.34,0,0,0-1.29.7l-.37-.69a5.36,5.36,0,0,1,3-1,3.2,3.2,0,0,1,2.35.84,3.09,3.09,0,0,1,.85,2.31V92c0,.28.13.42.38.42v.92a2.31,2.31,0,0,1-.39,0,.86.86,0,0,1-.62-.2.72.72,0,0,1-.24-.54l0-.63a3.55,3.55,0,0,1-1.38,1.1A4.29,4.29,0,0,1,193.92,93.49Zm.24-.79a3.49,3.49,0,0,0,1.49-.31,2.37,2.37,0,0,0,1-.81,1.12,1.12,0,0,0,.21-.29A.89.89,0,0,0,197,91v-1.3a6.26,6.26,0,0,0-1.07-.3,6.12,6.12,0,0,0-1.14-.11,3.12,3.12,0,0,0-1.78.46,1.38,1.38,0,0,0-.68,1.2,1.58,1.58,0,0,0,.14.69,1.85,1.85,0,0,0,.4.56,1.79,1.79,0,0,0,.6.37A2,2,0,0,0,194.16,92.7Z" fill="#010101"/></g><g style="isolation:isolate"><path d="M200.55,93.34V86.22h-1.1V85.4h1.1v-.22a3.71,3.71,0,0,1,.63-2.29,2,2,0,0,1,1.7-.83,3.15,3.15,0,0,1,.92.13,3,3,0,0,1,.76.37l-.32.75a1.54,1.54,0,0,0-.53-.26,2.18,2.18,0,0,0-.63-.09,1.23,1.23,0,0,0-1.11.56,3,3,0,0,0-.38,1.63v.25h2.19v.82h-2.19v7.12Z" fill="#010101"/></g><g style="isolation:isolate"><path d="M25,114.39a3.26,3.26,0,0,1-.95-.14,2.05,2.05,0,0,1-.79-.46l.51-.7a1.32,1.32,0,0,0,.53.29,2.32,2.32,0,0,0,.58.08,1.31,1.31,0,0,0,.52-.11,1.37,1.37,0,0,0,.45-.3,1.23,1.23,0,0,0,.32-.45,1.32,1.32,0,0,0,.13-.56v-8.35h1V112a2.22,2.22,0,0,1-.2,1,2.43,2.43,0,0,1-.52.77,2.49,2.49,0,0,1-.75.49A2.18,2.18,0,0,1,25,114.39ZM26.34,102V100.5h1V102Z" fill="#010101"/><path d="M33.09,111.78a3.8,3.8,0,0,1-2.85-1.23,3.94,3.94,0,0,1-.83-1.32,4.22,4.22,0,0,1-.3-1.6,4.14,4.14,0,0,1,.3-1.57,3.88,3.88,0,0,1,2.08-2.18,3.76,3.76,0,0,1,1.58-.33,3.8,3.8,0,0,1,2.84,1.22,4.4,4.4,0,0,1,.81,1.29,4.27,4.27,0,0,1,.28,1.56v.24a.72.72,0,0,1,0,.17h-6.8a3.33,3.33,0,0,0,.95,2.12,3,3,0,0,0,.9.62,2.87,2.87,0,0,0,1.09.22,2.92,2.92,0,0,0,.77-.11,3.33,3.33,0,0,0,.7-.29,2.74,2.74,0,0,0,.58-.45,1.89,1.89,0,0,0,.39-.59l.9.25a2.56,2.56,0,0,1-.52.8,3.33,3.33,0,0,1-.77.62,3.92,3.92,0,0,1-1,.42A4.56,4.56,0,0,1,33.09,111.78ZM36,107.24a3.35,3.35,0,0,0-.29-1.17,3.31,3.31,0,0,0-.64-.91,2.82,2.82,0,0,0-2-.8,2.91,2.91,0,0,0-1.1.21,2.8,2.8,0,0,0-.91.59,3,3,0,0,0-.62.92,3.35,3.35,0,0,0-.28,1.16Z" fill="#010101"/></g><g style="isolation:isolate"><path d="M42.57,104.6a3.24,3.24,0,0,0-1.83.58,2.92,2.92,0,0,0-1.1,1.51v4.94h-1v-7.94h1v1.9a3.51,3.51,0,0,1,1.19-1.43,2.73,2.73,0,0,1,1.6-.52l.2,0Z" fill="#010101"/></g><g style="isolation:isolate"><path d="M47,111.78a3.77,3.77,0,0,1-1.59-.33,3.82,3.82,0,0,1-1.26-.9,4.1,4.1,0,0,1-.83-1.32,4.22,4.22,0,0,1-.3-1.6,4.14,4.14,0,0,1,.3-1.57,4,4,0,0,1,.82-1.3,3.91,3.91,0,0,1,1.26-.88,3.79,3.79,0,0,1,1.58-.33,3.8,3.8,0,0,1,2.84,1.22,4.4,4.4,0,0,1,.81,1.29,4.28,4.28,0,0,1,.29,1.56v.24a.59.59,0,0,1,0,.17h-6.8a3.33,3.33,0,0,0,.95,2.12,3,3,0,0,0,.9.62A2.87,2.87,0,0,0,47,111a2.92,2.92,0,0,0,.77-.11,3.33,3.33,0,0,0,.7-.29,2.74,2.74,0,0,0,.58-.45,1.89,1.89,0,0,0,.39-.59l.9.25a2.56,2.56,0,0,1-.52.8,3.33,3.33,0,0,1-.77.62,3.92,3.92,0,0,1-1,.42A4.5,4.5,0,0,1,47,111.78Zm2.92-4.54a3.15,3.15,0,0,0-.29-1.17,3.31,3.31,0,0,0-.64-.91,2.82,2.82,0,0,0-2-.8,2.87,2.87,0,0,0-2,.8,3,3,0,0,0-.62.92,3.35,3.35,0,0,0-.28,1.16Z" fill="#010101"/><path d="M55.14,111.78a5.59,5.59,0,0,1-1.81-.3,4.47,4.47,0,0,1-1.53-.89l.48-.7a4.88,4.88,0,0,0,1.36.82,3.87,3.87,0,0,0,1.49.28,2.67,2.67,0,0,0,1.53-.39,1.27,1.27,0,0,0,.57-1.11.94.94,0,0,0-.15-.55,1.25,1.25,0,0,0-.45-.39,3.89,3.89,0,0,0-.75-.3c-.3-.09-.65-.17-1-.27s-.86-.22-1.19-.33a3.59,3.59,0,0,1-.83-.38,1.38,1.38,0,0,1-.49-.53,1.67,1.67,0,0,1-.16-.78,2.2,2.2,0,0,1,.24-1,2.05,2.05,0,0,1,.64-.76,2.83,2.83,0,0,1,.94-.45,4.32,4.32,0,0,1,1.15-.15,4.38,4.38,0,0,1,1.66.3,3.29,3.29,0,0,1,1.21.78l-.5.61a2.88,2.88,0,0,0-1.08-.68,3.67,3.67,0,0,0-1.32-.23,3.06,3.06,0,0,0-.76.08,2,2,0,0,0-.62.27,1.24,1.24,0,0,0-.42.46,1.41,1.41,0,0,0-.15.67,1.07,1.07,0,0,0,.11.51.9.9,0,0,0,.35.35,3.4,3.4,0,0,0,.62.26l.9.23c.51.12,1,.25,1.34.37a4.21,4.21,0,0,1,1,.42,1.69,1.69,0,0,1,.59.6,1.72,1.72,0,0,1,.2.85,2.08,2.08,0,0,1-.84,1.74A3.61,3.61,0,0,1,55.14,111.78Z" fill="#010101"/></g><g style="isolation:isolate"><path d="M69.49,111.63l-2.93-4.07-1.71,1.58v2.49h-1V100.5h1v7.56l4.47-4.36h1.17L67.25,107l3.37,4.68Z" fill="#010101"/></g><g style="isolation:isolate"><path d="M71.76,111.64l.59-.77a4,4,0,0,1-1-1.41,4.36,4.36,0,0,1-.08-3.37,4.33,4.33,0,0,1,.82-1.31,4.21,4.21,0,0,1,1.25-.9,3.68,3.68,0,0,1,1.57-.33,3.88,3.88,0,0,1,1.09.15,3.5,3.5,0,0,1,1,.44l.35-.48H78l-.62.82a4,4,0,0,1,1.06,1.41,4.4,4.4,0,0,1,.09,3.36,4,4,0,0,1-.81,1.31,3.85,3.85,0,0,1-1.25.89,3.8,3.8,0,0,1-1.59.33,3.87,3.87,0,0,1-2.08-.58l-.33.44Zm.22-4a3.41,3.41,0,0,0,.26,1.34,3.31,3.31,0,0,0,.71,1l3.41-5.13a2.57,2.57,0,0,0-1.49-.48,2.52,2.52,0,0,0-1.12.26,2.75,2.75,0,0,0-.91.69,3.35,3.35,0,0,0-.63,1A3.47,3.47,0,0,0,72,107.69Zm2.89,3.18a2.56,2.56,0,0,0,1.12-.26,2.9,2.9,0,0,0,.92-.68,3.28,3.28,0,0,0,.62-1,3.2,3.2,0,0,0,.23-1.25,3.4,3.4,0,0,0-1-2.37l-3.42,5.12A2.65,2.65,0,0,0,74.87,110.87Z" fill="#010101"/><path d="M86.22,111.63l-2.93-4.07-1.7,1.58v2.49h-1V100.5h1v7.56l4.46-4.36h1.18L84,107l3.37,4.68Z" fill="#010101"/></g><g style="isolation:isolate"><path d="M94.3,111.63l-2.93-4.07-1.7,1.58v2.49h-1V100.5h1v7.56l4.46-4.36h1.18L92.06,107l3.37,4.68Z" fill="#010101"/></g><g style="isolation:isolate"><path d="M99.73,111.78a3.8,3.8,0,0,1-2.85-1.23,4.13,4.13,0,0,1-.84-1.32,4.42,4.42,0,0,1-.29-1.6,4.33,4.33,0,0,1,.29-1.57,4.07,4.07,0,0,1,.83-1.3,3.91,3.91,0,0,1,1.26-.88,3.89,3.89,0,0,1,4.42.89,4.18,4.18,0,0,1,.8,1.29,4.08,4.08,0,0,1,.29,1.56v.24a.72.72,0,0,1,0,.17h-6.8a3.39,3.39,0,0,0,.94,2.12,3.13,3.13,0,0,0,.91.62,2.83,2.83,0,0,0,1.09.22,2.79,2.79,0,0,0,.76-.11,2.94,2.94,0,0,0,.7-.29,2.32,2.32,0,0,0,.58-.45,1.76,1.76,0,0,0,.4-.59l.9.25a2.75,2.75,0,0,1-.52.8,3.18,3.18,0,0,1-.78.62,3.85,3.85,0,0,1-1,.42A4.56,4.56,0,0,1,99.73,111.78Zm2.92-4.54a3.1,3.1,0,0,0-.94-2.08,2.71,2.71,0,0,0-.89-.59,3,3,0,0,0-2.19,0,2.74,2.74,0,0,0-1.53,1.51,3.36,3.36,0,0,0-.29,1.16Z" fill="#010101"/><path d="M111.92,111.63h-1v-4.44a3.89,3.89,0,0,0-.42-2.06,1.44,1.44,0,0,0-1.28-.64,2.72,2.72,0,0,0-.92.17,3.22,3.22,0,0,0-.85.47,4,4,0,0,0-.69.73,2.84,2.84,0,0,0-.44.91v4.86h-1v-7.94h1v1.79a3.81,3.81,0,0,1,1.39-1.4,3.89,3.89,0,0,1,2-.53,2.39,2.39,0,0,1,1.11.24,1.93,1.93,0,0,1,.73.69,3.12,3.12,0,0,1,.4,1.08,7.76,7.76,0,0,1,.12,1.42Z" fill="#010101"/><path d="M121.4,111.78a3.77,3.77,0,0,1-1.59-.33,3.92,3.92,0,0,1-1.24-.89,4,4,0,0,1-.81-1.31,4.17,4.17,0,0,1-.29-1.57,4.44,4.44,0,0,1,.29-1.59,4.35,4.35,0,0,1,.83-1.31,4.16,4.16,0,0,1,1.24-.9,3.71,3.71,0,0,1,1.57-.33,3.79,3.79,0,0,1,1.58.33,4.21,4.21,0,0,1,1.25.9,4.33,4.33,0,0,1,.82,1.31,4.24,4.24,0,0,1,.3,1.59,4.37,4.37,0,0,1-.29,1.57,4.21,4.21,0,0,1-.82,1.31,3.85,3.85,0,0,1-1.25.89A3.77,3.77,0,0,1,121.4,111.78Zm-2.88-4.09a3.2,3.2,0,0,0,.23,1.25,3.48,3.48,0,0,0,.61,1,2.79,2.79,0,0,0,.92.68,2.66,2.66,0,0,0,1.12.25,2.52,2.52,0,0,0,1.12-.26,2.79,2.79,0,0,0,.92-.68,3.3,3.3,0,0,0,.63-1,3.39,3.39,0,0,0,.23-1.25,3.45,3.45,0,0,0-.23-1.24,3.3,3.3,0,0,0-.63-1,2.79,2.79,0,0,0-.92-.68,2.52,2.52,0,0,0-1.12-.26,2.45,2.45,0,0,0-1.11.26,2.78,2.78,0,0,0-.92.69,3.33,3.33,0,0,0-.62,1A3.27,3.27,0,0,0,118.52,107.69Z" fill="#010101"/><path d="M130.27,111.73a3.24,3.24,0,0,1-1.5-.34,4,4,0,0,1-1.94-2.2,4.12,4.12,0,0,1-.28-1.51,4.64,4.64,0,0,1,.27-1.58,4.28,4.28,0,0,1,.75-1.32,4,4,0,0,1,1.17-.9,3.37,3.37,0,0,1,1.5-.33,3.07,3.07,0,0,1,1.77.51,4.91,4.91,0,0,1,1.28,1.29v-1.66h.93v8a3.33,3.33,0,0,1-.31,1.45,3,3,0,0,1-.84,1.06,3.4,3.4,0,0,1-1.24.64,5.23,5.23,0,0,1-1.5.22,4.44,4.44,0,0,1-2.21-.49,4,4,0,0,1-1.36-1.31l.64-.5a3,3,0,0,0,1.25,1.12,4.11,4.11,0,0,0,1.68.35,3.61,3.61,0,0,0,1.1-.16,2.63,2.63,0,0,0,.91-.47,2.3,2.3,0,0,0,.61-.79,2.49,2.49,0,0,0,.23-1.12v-1.57a3.21,3.21,0,0,1-1.25,1.2A3.3,3.3,0,0,1,130.27,111.73Zm.29-.86a2.61,2.61,0,0,0,.9-.17,3,3,0,0,0,.8-.45,3,3,0,0,0,.6-.63,2.07,2.07,0,0,0,.32-.72v-2.45a2.92,2.92,0,0,0-.46-.8,3.17,3.17,0,0,0-.65-.62,3.13,3.13,0,0,0-.79-.41,2.28,2.28,0,0,0-.84-.16,2.48,2.48,0,0,0-1.2.29,2.75,2.75,0,0,0-.89.73,3.6,3.6,0,0,0-.56,1,4,4,0,0,0-.19,1.17,3.34,3.34,0,0,0,.86,2.24,3,3,0,0,0,.94.68A2.66,2.66,0,0,0,130.56,110.87Z" fill="#010101"/><path d="M143,111.78a5.65,5.65,0,0,1-1.82-.3,4.42,4.42,0,0,1-1.52-.89l.47-.7a4.93,4.93,0,0,0,1.37.82A3.82,3.82,0,0,0,143,111a2.67,2.67,0,0,0,1.53-.39,1.25,1.25,0,0,0,.58-1.11.88.88,0,0,0-.16-.55,1.25,1.25,0,0,0-.45-.39,3.53,3.53,0,0,0-.74-.3c-.3-.09-.65-.17-1.05-.27s-.85-.22-1.19-.33a3.8,3.8,0,0,1-.83-.38,1.28,1.28,0,0,1-.48-.53,1.67,1.67,0,0,1-.16-.78,2.2,2.2,0,0,1,.23-1,2.15,2.15,0,0,1,.64-.76,2.88,2.88,0,0,1,.95-.45,4.26,4.26,0,0,1,1.15-.15,4.42,4.42,0,0,1,1.66.3,3.17,3.17,0,0,1,1.2.78l-.5.61a2.76,2.76,0,0,0-1.07-.68,3.75,3.75,0,0,0-1.32-.23,3,3,0,0,0-.76.08,1.94,1.94,0,0,0-.62.27,1.24,1.24,0,0,0-.42.46,1.41,1.41,0,0,0-.15.67,1.08,1.08,0,0,0,.1.51.9.9,0,0,0,.35.35,3.74,3.74,0,0,0,.62.26c.25.07.55.15.91.23s.95.25,1.34.37a4.21,4.21,0,0,1,1,.42,1.66,1.66,0,0,1,.58.6,1.62,1.62,0,0,1,.2.85,2.08,2.08,0,0,1-.84,1.74A3.6,3.6,0,0,1,143,111.78Z" fill="#010101"/><path d="M147.81,102V100.5h1V102Zm0,9.61v-7.94h1v7.94Z" fill="#010101"/><path d="M156.81,111.63l-2.93-4.07-1.71,1.58v2.49h-1V100.5h1v7.56l4.47-4.36h1.17L154.57,107l3.36,4.68Z" fill="#010101"/></g><g style="isolation:isolate"><path d="M163.18,104.6a3.24,3.24,0,0,0-1.83.58,3,3,0,0,0-1.1,1.51v4.94h-1v-7.94h1v1.9a3.59,3.59,0,0,1,1.19-1.43,2.73,2.73,0,0,1,1.6-.52l.2,0Z" fill="#010101"/></g><g style="isolation:isolate"><path d="M167.6,111.78a3.77,3.77,0,0,1-1.59-.33,3.92,3.92,0,0,1-1.26-.9,4.1,4.1,0,0,1-.83-1.32,4.22,4.22,0,0,1-.3-1.6,4.14,4.14,0,0,1,.3-1.57,4,4,0,0,1,.82-1.3,3.91,3.91,0,0,1,1.26-.88,3.87,3.87,0,0,1,4.42.89,4.4,4.4,0,0,1,.81,1.29,4.28,4.28,0,0,1,.29,1.56v.24a.59.59,0,0,1,0,.17h-6.8a3.33,3.33,0,0,0,1,2.12,3,3,0,0,0,.91.62,2.83,2.83,0,0,0,1.09.22,2.91,2.91,0,0,0,.76-.11,3.12,3.12,0,0,0,.7-.29,2.74,2.74,0,0,0,.58-.45,1.89,1.89,0,0,0,.39-.59l.9.25a2.72,2.72,0,0,1-.51.8,3.61,3.61,0,0,1-.78.62,3.92,3.92,0,0,1-1,.42A4.44,4.44,0,0,1,167.6,111.78Zm2.93-4.54a3.15,3.15,0,0,0-.3-1.17,3.31,3.31,0,0,0-.64-.91,2.87,2.87,0,0,0-.9-.59,2.82,2.82,0,0,0-1.09-.21,2.91,2.91,0,0,0-1.1.21,2.76,2.76,0,0,0-.9.59,3,3,0,0,0-.63.92,3.35,3.35,0,0,0-.28,1.16Z" fill="#010101"/></g><g style="isolation:isolate"><path d="M177.08,104.6a3.24,3.24,0,0,0-1.83.58,3,3,0,0,0-1.1,1.51v4.94h-1v-7.94h1v1.9a3.59,3.59,0,0,1,1.19-1.43,2.73,2.73,0,0,1,1.6-.52l.2,0Z" fill="#010101"/></g><g style="isolation:isolate"><path d="M31.9,129.92,29,125.85l-1.7,1.58v2.49h-1V118.79h1v7.56L31.73,122H32.9l-3.24,3.25L33,129.92Z" fill="#010101"/></g><g style="isolation:isolate"><path d="M37.28,130.07a3.69,3.69,0,0,1-1.58-.33,3.85,3.85,0,0,1-1.25-.89,3.91,3.91,0,0,1-.81-1.31,4.35,4.35,0,0,1,0-3.15,4.08,4.08,0,0,1,.82-1.32,4.16,4.16,0,0,1,1.24-.9,3.71,3.71,0,0,1,1.57-.33,3.76,3.76,0,0,1,1.58.33,4.21,4.21,0,0,1,1.25.9,4.26,4.26,0,0,1,.82,1.32,4.15,4.15,0,0,1,.3,1.58,4.37,4.37,0,0,1-.29,1.57,3.93,3.93,0,0,1-.82,1.31,3.84,3.84,0,0,1-2.84,1.22ZM34.4,126a3.37,3.37,0,0,0,.23,1.24,3.3,3.3,0,0,0,.62,1,2.73,2.73,0,0,0,2,.93,2.52,2.52,0,0,0,1.12-.26,2.79,2.79,0,0,0,.92-.68,3.13,3.13,0,0,0,.63-1,3.39,3.39,0,0,0,.23-1.25,3.45,3.45,0,0,0-.23-1.24,3.13,3.13,0,0,0-.63-1,2.79,2.79,0,0,0-.92-.68,2.52,2.52,0,0,0-1.12-.26,2.45,2.45,0,0,0-1.11.26,2.78,2.78,0,0,0-.92.69,3.33,3.33,0,0,0-.62,1A3.48,3.48,0,0,0,34.4,126Z" fill="#010101"/><path d="M46.93,122.89a3.24,3.24,0,0,0-1.83.58A3,3,0,0,0,44,125v4.94H43V122h1v1.9a3.59,3.59,0,0,1,1.19-1.43,2.73,2.73,0,0,1,1.6-.52l.2,0Z" fill="#010101"/></g><g style="isolation:isolate"><path d="M52.28,122.89a3.24,3.24,0,0,0-1.83.58,2.92,2.92,0,0,0-1.1,1.51v4.94h-1V122h1v1.9a3.51,3.51,0,0,1,1.19-1.43,2.73,2.73,0,0,1,1.6-.52l.2,0Z" fill="#010101"/></g><g style="isolation:isolate"><path d="M56.7,130.07a3.8,3.8,0,0,1-2.85-1.23,3.94,3.94,0,0,1-.83-1.32,4.22,4.22,0,0,1-.3-1.6,4.14,4.14,0,0,1,.3-1.57,3.88,3.88,0,0,1,2.08-2.18,3.89,3.89,0,0,1,4.42.89,4.18,4.18,0,0,1,.8,1.29,4.08,4.08,0,0,1,.29,1.56v.24a.72.72,0,0,1,0,.17H53.8a3.26,3.26,0,0,0,.3,1.18,3.15,3.15,0,0,0,.65.94,3,3,0,0,0,.9.62,2.87,2.87,0,0,0,1.09.22,2.79,2.79,0,0,0,.76-.11,3.2,3.2,0,0,0,.71-.29,2.46,2.46,0,0,0,.57-.45,1.83,1.83,0,0,0,.4-.58l.9.24a2.56,2.56,0,0,1-.52.8,3.18,3.18,0,0,1-.78.62,3.85,3.85,0,0,1-1,.42A4.56,4.56,0,0,1,56.7,130.07Zm2.92-4.54a3.35,3.35,0,0,0-.29-1.17,3.54,3.54,0,0,0-.64-.91,2.91,2.91,0,0,0-3.09-.59,2.74,2.74,0,0,0-1.53,1.51,3.4,3.4,0,0,0-.28,1.16Z" fill="#010101"/><path d="M67.88,129.92,65,125.85l-1.71,1.58v2.49h-1V118.79h1v7.56L67.72,122h1.17l-3.25,3.25L69,129.92Z" fill="#010101"/><path d="M74.1,129.54l-.26.12-.41.15a4.25,4.25,0,0,1-.52.14,2.93,2.93,0,0,1-.61.06,2.3,2.3,0,0,1-.64-.09,1.58,1.58,0,0,1-.53-.28,1.62,1.62,0,0,1-.37-.48,1.6,1.6,0,0,1-.13-.67V122.8h-1.1V122h1.1v-2.69h1V122h1.83v.82H71.66v5.4a.8.8,0,0,0,.32.64,1,1,0,0,0,.64.21,1.87,1.87,0,0,0,.78-.15,2.63,2.63,0,0,0,.43-.2Z" fill="#010101"/><path d="M79.28,120.32v-1.53h1v1.53Zm0,9.6V122h1v7.94Z" fill="#010101"/><path d="M89.28,129.92h-1v-4.44a3.89,3.89,0,0,0-.42-2.06,1.45,1.45,0,0,0-1.29-.64,2.66,2.66,0,0,0-.91.17,3.07,3.07,0,0,0-.85.47,3.69,3.69,0,0,0-.69.73,2.87,2.87,0,0,0-.45.91v4.86h-1V122h.94v1.8a3.79,3.79,0,0,1,1.4-1.41,3.85,3.85,0,0,1,2-.53,2.34,2.34,0,0,1,1.11.24,1.86,1.86,0,0,1,.73.69,2.93,2.93,0,0,1,.4,1.08,7.76,7.76,0,0,1,.12,1.42Z" fill="#010101"/><path d="M94.13,130.07a5.59,5.59,0,0,1-1.81-.3,4.47,4.47,0,0,1-1.53-.89l.47-.7a5.08,5.08,0,0,0,1.37.82,3.86,3.86,0,0,0,1.48.28,2.68,2.68,0,0,0,1.54-.39,1.27,1.27,0,0,0,.57-1.11.94.94,0,0,0-.15-.55,1.44,1.44,0,0,0-.45-.39,3.89,3.89,0,0,0-.75-.3l-1-.27c-.46-.11-.86-.22-1.19-.33a3.4,3.4,0,0,1-.83-.38,1.38,1.38,0,0,1-.49-.53,1.67,1.67,0,0,1-.16-.78,2.32,2.32,0,0,1,.23-1,2.26,2.26,0,0,1,.64-.76,2.88,2.88,0,0,1,1-.45,4.26,4.26,0,0,1,1.15-.15,4.42,4.42,0,0,1,1.66.3,3.29,3.29,0,0,1,1.21.78l-.51.61a2.76,2.76,0,0,0-1.07-.68,3.67,3.67,0,0,0-1.32-.23,3.06,3.06,0,0,0-.76.08,1.94,1.94,0,0,0-.62.27,1.24,1.24,0,0,0-.42.46,1.41,1.41,0,0,0-.15.67,1,1,0,0,0,.11.51.84.84,0,0,0,.35.35,3.28,3.28,0,0,0,.61.26c.25.07.55.15.91.23.51.12,1,.25,1.34.37a4.21,4.21,0,0,1,1,.42,1.87,1.87,0,0,1,.59.6,1.72,1.72,0,0,1,.19.85,2.07,2.07,0,0,1-.83,1.74A3.61,3.61,0,0,1,94.13,130.07Z" fill="#010101"/><path d="M102.73,129.54l-.27.12-.4.15c-.16.05-.33.1-.52.14a3.08,3.08,0,0,1-.61.06,2.2,2.2,0,0,1-.64-.09,1.63,1.63,0,0,1-.54-.28,1.44,1.44,0,0,1-.36-.48,1.6,1.6,0,0,1-.14-.67V122.8h-1.1V122h1.1v-2.69h1V122h1.83v.82h-1.83v5.4a.79.79,0,0,0,.31.64,1.05,1.05,0,0,0,.65.21,1.94,1.94,0,0,0,.78-.15,2.84,2.84,0,0,0,.42-.2Z" fill="#010101"/><path d="M106,130.07a2.8,2.8,0,0,1-1-.19,2.56,2.56,0,0,1-.83-.53,2.29,2.29,0,0,1-.56-.78,2.4,2.4,0,0,1-.2-1,1.91,1.91,0,0,1,.25-1,2.33,2.33,0,0,1,.68-.76,3.65,3.65,0,0,1,1-.5,5.17,5.17,0,0,1,1.34-.17,7.49,7.49,0,0,1,1.24.1,5.9,5.9,0,0,1,1.11.31v-.72a2.35,2.35,0,0,0-.59-1.67,2.2,2.2,0,0,0-1.65-.61,3.55,3.55,0,0,0-1.25.24,5.85,5.85,0,0,0-1.29.7l-.37-.68a5.31,5.31,0,0,1,3-1,3.22,3.22,0,0,1,2.35.84,3.13,3.13,0,0,1,.85,2.31v3.59c0,.28.13.42.38.42v.92a2.41,2.41,0,0,1-.4,0,.88.88,0,0,1-.61-.19.76.76,0,0,1-.24-.55l0-.63a3.61,3.61,0,0,1-1.38,1.1A4.29,4.29,0,0,1,106,130.07Zm.24-.79a3.49,3.49,0,0,0,1.49-.31,2.43,2.43,0,0,0,1-.81.89.89,0,0,0,.2-.29.72.72,0,0,0,.07-.3v-1.3A6.26,6.26,0,0,0,108,126a6.12,6.12,0,0,0-1.14-.11,3.2,3.2,0,0,0-1.78.46,1.4,1.4,0,0,0-.69,1.2,1.58,1.58,0,0,0,.15.69,1.82,1.82,0,0,0,.39.56,2,2,0,0,0,.61.37A2,2,0,0,0,106.26,129.28Z" fill="#010101"/><path d="M112.38,118.79h1v9.33a.93.93,0,0,0,.25.69.89.89,0,0,0,.68.25,2.07,2.07,0,0,0,.4,0,2.58,2.58,0,0,0,.42-.12l.19.83a3,3,0,0,1-.71.2,4.26,4.26,0,0,1-.73.08,1.56,1.56,0,0,1-1.12-.4,1.5,1.5,0,0,1-.41-1.14Z" fill="#010101"/><path d="M116.52,118.79h1v9.33a1,1,0,0,0,.24.69.9.9,0,0,0,.69.25,2,2,0,0,0,.39,0,2.43,2.43,0,0,0,.43-.12l.18.83a2.88,2.88,0,0,1-.71.2,4.26,4.26,0,0,1-.72.08,1.59,1.59,0,0,1-1.13-.4,1.54,1.54,0,0,1-.41-1.14Z" fill="#010101"/></g><g style="isolation:isolate"><path d="M122.62,130.07a2.71,2.71,0,0,1-1-.19,2.61,2.61,0,0,1-.84-.53,2.29,2.29,0,0,1-.56-.78,2.4,2.4,0,0,1-.2-1,2,2,0,0,1,.25-1,2.33,2.33,0,0,1,.68-.76,3.59,3.59,0,0,1,1.06-.5,5.06,5.06,0,0,1,1.34-.17,7.46,7.46,0,0,1,1.23.1,5.9,5.9,0,0,1,1.11.31v-.72a2.3,2.3,0,0,0-.59-1.67,2.2,2.2,0,0,0-1.65-.61,3.59,3.59,0,0,0-1.25.24,6.08,6.08,0,0,0-1.29.7l-.37-.68a5.31,5.31,0,0,1,3-1,3.2,3.2,0,0,1,2.35.84,3.09,3.09,0,0,1,.85,2.31v3.59c0,.28.13.42.38.42v.92a2.31,2.31,0,0,1-.39,0,.9.9,0,0,1-.62-.19.76.76,0,0,1-.24-.55l0-.63a3.47,3.47,0,0,1-1.38,1.1A4.29,4.29,0,0,1,122.62,130.07Zm.24-.79a3.49,3.49,0,0,0,1.49-.31,2.37,2.37,0,0,0,1-.81,1.12,1.12,0,0,0,.21-.29.89.89,0,0,0,.06-.3v-1.3a6.26,6.26,0,0,0-1.07-.3,6.12,6.12,0,0,0-1.14-.11,3.2,3.2,0,0,0-1.78.46,1.4,1.4,0,0,0-.69,1.2,1.58,1.58,0,0,0,.15.69,1.85,1.85,0,0,0,.4.56,1.79,1.79,0,0,0,.6.37A2,2,0,0,0,122.86,129.28Z" fill="#010101"/></g><g style="isolation:isolate"><path d="M132.68,129.54l-.27.12-.4.15a4.81,4.81,0,0,1-.52.14,3,3,0,0,1-.61.06,2.25,2.25,0,0,1-.64-.09,1.58,1.58,0,0,1-.53-.28,1.35,1.35,0,0,1-.37-.48,1.6,1.6,0,0,1-.14-.67V122.8h-1.09V122h1.09v-2.69h1V122h1.83v.82h-1.83v5.4a.79.79,0,0,0,.31.64,1.07,1.07,0,0,0,.65.21,1.9,1.9,0,0,0,.78-.15,2.84,2.84,0,0,0,.42-.2Z" fill="#010101"/><path d="M134,120.32v-1.53h1v1.53Zm0,9.6V122h1v7.94Z" fill="#010101"/><path d="M140.68,130.07a3.69,3.69,0,0,1-1.58-.33,3.85,3.85,0,0,1-1.25-.89,3.91,3.91,0,0,1-.81-1.31,4.35,4.35,0,0,1,0-3.15,4.08,4.08,0,0,1,.82-1.32,4.16,4.16,0,0,1,1.24-.9,3.71,3.71,0,0,1,1.57-.33,3.76,3.76,0,0,1,1.58.33,4.21,4.21,0,0,1,1.25.9,4.26,4.26,0,0,1,.82,1.32,4.15,4.15,0,0,1,.3,1.58,4.37,4.37,0,0,1-.29,1.57,3.93,3.93,0,0,1-.82,1.31,3.84,3.84,0,0,1-2.84,1.22ZM137.8,126a3.37,3.37,0,0,0,.23,1.24,3.3,3.3,0,0,0,.62,1,2.73,2.73,0,0,0,2,.93,2.52,2.52,0,0,0,1.12-.26,2.79,2.79,0,0,0,.92-.68,3.13,3.13,0,0,0,.63-1,3.39,3.39,0,0,0,.23-1.25,3.45,3.45,0,0,0-.23-1.24,3.13,3.13,0,0,0-.63-1,2.79,2.79,0,0,0-.92-.68,2.52,2.52,0,0,0-1.12-.26,2.45,2.45,0,0,0-1.11.26,2.78,2.78,0,0,0-.92.69,3.33,3.33,0,0,0-.62,1A3.48,3.48,0,0,0,137.8,126Z" fill="#010101"/><path d="M153,129.92h-1v-4.44a3.89,3.89,0,0,0-.42-2.06,1.45,1.45,0,0,0-1.29-.64,2.72,2.72,0,0,0-.92.17,3.17,3.17,0,0,0-.84.47,4,4,0,0,0-.7.73,2.84,2.84,0,0,0-.44.91v4.86h-1V122h.94v1.8a3.79,3.79,0,0,1,1.4-1.41,3.85,3.85,0,0,1,2-.53,2.34,2.34,0,0,1,1.11.24,1.86,1.86,0,0,1,.73.69,2.93,2.93,0,0,1,.4,1.08,7.76,7.76,0,0,1,.12,1.42Z" fill="#010101"/></g><g style="isolation:isolate"><path d="M161.14,130.07a2.76,2.76,0,0,1-1-.19,2.46,2.46,0,0,1-.83-.53,2.29,2.29,0,0,1-.56-.78,2.4,2.4,0,0,1-.2-1,2,2,0,0,1,.24-1,2.49,2.49,0,0,1,.69-.76,3.65,3.65,0,0,1,1-.5,5.17,5.17,0,0,1,1.34-.17,7.49,7.49,0,0,1,1.24.1,6.12,6.12,0,0,1,1.11.31v-.72a2.35,2.35,0,0,0-.59-1.67,2.2,2.2,0,0,0-1.65-.61,3.55,3.55,0,0,0-1.25.24,6.14,6.14,0,0,0-1.3.7l-.36-.68a5.31,5.31,0,0,1,3-1,3.19,3.19,0,0,1,2.34.84,3.09,3.09,0,0,1,.86,2.31v3.59c0,.28.12.42.38.42v.92a2.41,2.41,0,0,1-.4,0,.92.92,0,0,1-.62-.19.79.79,0,0,1-.23-.55l0-.63a3.61,3.61,0,0,1-1.38,1.1A4.32,4.32,0,0,1,161.14,130.07Zm.24-.79a3.49,3.49,0,0,0,1.49-.31,2.43,2.43,0,0,0,1-.81.89.89,0,0,0,.2-.29.72.72,0,0,0,.07-.3v-1.3a6.26,6.26,0,0,0-1.07-.3,6.12,6.12,0,0,0-1.14-.11,3.17,3.17,0,0,0-1.78.46,1.4,1.4,0,0,0-.69,1.2,1.58,1.58,0,0,0,.15.69,1.67,1.67,0,0,0,.39.56,2,2,0,0,0,.6.37A2.12,2.12,0,0,0,161.38,129.28Z" fill="#010101"/></g><g style="isolation:isolate"><path d="M167.77,129.92V122.8h-1.1V122h1.1v-.22a3.71,3.71,0,0,1,.62-2.29,2,2,0,0,1,1.71-.83,2.79,2.79,0,0,1,.91.14,2.55,2.55,0,0,1,.76.36l-.32.75a1.49,1.49,0,0,0-.52-.26,2.28,2.28,0,0,0-.63-.09,1.29,1.29,0,0,0-1.12.56,3,3,0,0,0-.38,1.63V122H171v.82h-2.2v7.12Z" fill="#010101"/></g><g style="isolation:isolate"><path d="M178.62,130.07a5.59,5.59,0,0,1-1.81-.3,4.47,4.47,0,0,1-1.53-.89l.48-.7a4.88,4.88,0,0,0,1.36.82,3.87,3.87,0,0,0,1.49.28,2.67,2.67,0,0,0,1.53-.39,1.27,1.27,0,0,0,.57-1.11.94.94,0,0,0-.15-.55,1.44,1.44,0,0,0-.45-.39,3.89,3.89,0,0,0-.75-.3l-1-.27c-.46-.11-.86-.22-1.19-.33a3.4,3.4,0,0,1-.83-.38,1.38,1.38,0,0,1-.49-.53,1.67,1.67,0,0,1-.16-.78,2.32,2.32,0,0,1,.23-1,2.26,2.26,0,0,1,.64-.76,2.88,2.88,0,0,1,.95-.45,4.26,4.26,0,0,1,1.15-.15,4.42,4.42,0,0,1,1.66.3,3.29,3.29,0,0,1,1.21.78l-.51.61a2.76,2.76,0,0,0-1.07-.68,3.67,3.67,0,0,0-1.32-.23,3.06,3.06,0,0,0-.76.08,1.94,1.94,0,0,0-.62.27,1.24,1.24,0,0,0-.42.46,1.41,1.41,0,0,0-.15.67,1,1,0,0,0,.11.51.84.84,0,0,0,.35.35,3.28,3.28,0,0,0,.61.26c.25.07.55.15.91.23s1,.25,1.34.37a4.21,4.21,0,0,1,1,.42,1.87,1.87,0,0,1,.59.6,1.72,1.72,0,0,1,.19.85,2.07,2.07,0,0,1-.83,1.74A3.61,3.61,0,0,1,178.62,130.07Z" fill="#010101"/><path d="M185.4,130.07a2.75,2.75,0,0,1-1-.19,2.61,2.61,0,0,1-.84-.53,2.43,2.43,0,0,1-.56-.78,2.4,2.4,0,0,1-.19-1,2,2,0,0,1,.24-1,2.26,2.26,0,0,1,.69-.76,3.41,3.41,0,0,1,1.05-.5,5.06,5.06,0,0,1,1.34-.17,7.29,7.29,0,0,1,1.23.1,6.23,6.23,0,0,1,1.12.31v-.72a2.31,2.31,0,0,0-.6-1.67,2.16,2.16,0,0,0-1.64-.61,3.51,3.51,0,0,0-1.25.24,6.14,6.14,0,0,0-1.3.7l-.37-.68a5.33,5.33,0,0,1,3-1,3.2,3.2,0,0,1,2.35.84,3.09,3.09,0,0,1,.85,2.31v3.59c0,.28.13.42.38.42v.92a2.31,2.31,0,0,1-.39,0,.9.9,0,0,1-.62-.19.76.76,0,0,1-.24-.55l0-.63a3.47,3.47,0,0,1-1.38,1.1A4.29,4.29,0,0,1,185.4,130.07Zm.25-.79a3.44,3.44,0,0,0,1.48-.31,2.31,2.31,0,0,0,1-.81,1.12,1.12,0,0,0,.21-.29.92.92,0,0,0,.07-.3v-1.3a6.64,6.64,0,0,0-1.08-.3,6.1,6.1,0,0,0-1.13-.11,3.21,3.21,0,0,0-1.79.46,1.41,1.41,0,0,0-.68,1.2,1.74,1.74,0,0,0,.14.69,1.85,1.85,0,0,0,.4.56,2,2,0,0,0,.6.37A2,2,0,0,0,185.65,129.28Z" fill="#010101"/></g><g style="isolation:isolate"><path d="M203.53,129.92h-1v-4.44a3.77,3.77,0,0,0-.44-2,1.48,1.48,0,0,0-1.31-.66,2.29,2.29,0,0,0-.87.17,2.8,2.8,0,0,0-.74.47,3.52,3.52,0,0,0-1,1.65v4.85h-1v-4.44a3.89,3.89,0,0,0-.42-2.06,1.5,1.5,0,0,0-1.31-.64,2.35,2.35,0,0,0-1.61.63,3.49,3.49,0,0,0-1,1.65v4.86h-1V122h.95v1.8a3.71,3.71,0,0,1,1.28-1.43,3.17,3.17,0,0,1,1.75-.51,2.29,2.29,0,0,1,1.61.56,2.47,2.47,0,0,1,.74,1.48,3.39,3.39,0,0,1,3.06-2,2.46,2.46,0,0,1,1.14.24,1.92,1.92,0,0,1,.74.7,3.29,3.29,0,0,1,.42,1.08,7.52,7.52,0,0,1,.13,1.41Z" fill="#010101"/></g><g style="isolation:isolate"><path d="M209.45,129.54l-.26.12-.41.15a4.25,4.25,0,0,1-.52.14,2.93,2.93,0,0,1-.61.06,2.3,2.3,0,0,1-.64-.09,1.58,1.58,0,0,1-.53-.28,1.62,1.62,0,0,1-.37-.48,1.6,1.6,0,0,1-.13-.67V122.8h-1.1V122H206v-2.69h1V122h1.83v.82H207v5.4a.8.8,0,0,0,.32.64,1,1,0,0,0,.64.21,1.87,1.87,0,0,0,.78-.15,3.16,3.16,0,0,0,.43-.2Z" fill="#010101"/></g><g style="isolation:isolate"><path d="M210.6,126.24v-1h4.45v1Z" fill="#010101"/></g><g style="isolation:isolate"><path d="M26.27,137.08h1v9.33a1,1,0,0,0,.24.69.93.93,0,0,0,.69.25,2.15,2.15,0,0,0,.4,0,2.58,2.58,0,0,0,.42-.12l.19.84a3.62,3.62,0,0,1-.71.19,4.26,4.26,0,0,1-.73.08,1.42,1.42,0,0,1-1.54-1.54Z" fill="#010101"/><path d="M30.37,138.61v-1.53h1v1.53Zm0,9.6v-7.94h1v7.94Z" fill="#010101"/><path d="M36.88,148.32a3.25,3.25,0,0,1-1.5-.35,4,4,0,0,1-1.17-.9,4.15,4.15,0,0,1-.77-1.3,4.34,4.34,0,0,1-.28-1.51,4.68,4.68,0,0,1,.27-1.58,4.28,4.28,0,0,1,.75-1.32,3.79,3.79,0,0,1,1.17-.89,3.24,3.24,0,0,1,1.5-.34,3.07,3.07,0,0,1,1.77.51,4.91,4.91,0,0,1,1.28,1.29v-1.66h.93v8a3.19,3.19,0,0,1-.31,1.45,3,3,0,0,1-.84,1.06,3.43,3.43,0,0,1-1.23.64,5,5,0,0,1-1.51.22,4.44,4.44,0,0,1-2.21-.49,3.85,3.85,0,0,1-1.35-1.31l.64-.5a2.88,2.88,0,0,0,1.25,1.12,4.06,4.06,0,0,0,1.67.35,3.57,3.57,0,0,0,1.1-.16,2.54,2.54,0,0,0,.91-.47,2.32,2.32,0,0,0,.62-.79,2.6,2.6,0,0,0,.22-1.12v-1.57a3.21,3.21,0,0,1-1.25,1.2A3.29,3.29,0,0,1,36.88,148.32Zm.29-.87a2.52,2.52,0,0,0,.9-.17,2.85,2.85,0,0,0,.8-.45,3,3,0,0,0,.6-.63,1.9,1.9,0,0,0,.32-.72V143a3.16,3.16,0,0,0-.45-.8,3.32,3.32,0,0,0-1.44-1,2.56,2.56,0,0,0-.85-.16,2.48,2.48,0,0,0-1.2.29,2.76,2.76,0,0,0-.89.74,3.19,3.19,0,0,0-.55,1,3.69,3.69,0,0,0-.19,1.18,3.17,3.17,0,0,0,.86,2.23,2.94,2.94,0,0,0,.93.68A2.7,2.7,0,0,0,37.17,147.45Z" fill="#010101"/><path d="M46.55,148.36A3.85,3.85,0,0,1,45,148a3.74,3.74,0,0,1-1.25-.9,4.2,4.2,0,0,1-.84-1.31,4.51,4.51,0,0,1-.29-1.61,4.33,4.33,0,0,1,.29-1.57,4.07,4.07,0,0,1,.83-1.3,3.91,3.91,0,0,1,1.26-.88,3.89,3.89,0,0,1,4.42.89,4.3,4.3,0,0,1,.8,1.29,4.08,4.08,0,0,1,.29,1.56v.24a.72.72,0,0,1,0,.17h-6.8a3.26,3.26,0,0,0,.3,1.18,3,3,0,0,0,1.55,1.56,2.87,2.87,0,0,0,1.09.22,2.79,2.79,0,0,0,.76-.11,2.94,2.94,0,0,0,.7-.29,2.32,2.32,0,0,0,.58-.45,1.83,1.83,0,0,0,.4-.58l.9.24a2.75,2.75,0,0,1-.52.8,3.18,3.18,0,0,1-.78.62,3.85,3.85,0,0,1-1,.42A4.56,4.56,0,0,1,46.55,148.36Zm2.92-4.54a3.35,3.35,0,0,0-.29-1.17,3.15,3.15,0,0,0-.65-.9,2.59,2.59,0,0,0-.89-.6,3,3,0,0,0-2.19,0,2.83,2.83,0,0,0-1.53,1.51,3.66,3.66,0,0,0-.29,1.16Z" fill="#010101"/></g><g style="isolation:isolate"><path d="M61.62,148.21l-2.92-4.07L57,145.72v2.49H56V137.08h1v7.56l4.46-4.36h1.18l-3.25,3.25,3.37,4.68Z" fill="#010101"/></g><g style="isolation:isolate"><path d="M63.89,148.22l.6-.77a4.07,4.07,0,0,1-1-1.41,4.36,4.36,0,0,1-.37-1.78,4.15,4.15,0,0,1,.3-1.58,4.26,4.26,0,0,1,.82-1.32,4.08,4.08,0,0,1,1.24-.89,3.57,3.57,0,0,1,1.57-.34,3.9,3.9,0,0,1,1.1.15,3.5,3.5,0,0,1,1,.44l.35-.48h.72l-.63.82a4,4,0,0,1,1.07,1.41,4.29,4.29,0,0,1,.38,1.79,4.37,4.37,0,0,1-.29,1.57,3.91,3.91,0,0,1-.81,1.31A3.84,3.84,0,0,1,67,148.36a4,4,0,0,1-1.1-.15,3.87,3.87,0,0,1-1-.43l-.34.44Zm.23-3.94a3.39,3.39,0,0,0,.26,1.33,3.28,3.28,0,0,0,.7,1l3.42-5.13A2.57,2.57,0,0,0,67,141a2.51,2.51,0,0,0-1.11.26A2.89,2.89,0,0,0,65,142a3.17,3.17,0,0,0-.63,1A3.48,3.48,0,0,0,64.12,144.28ZM67,147.45a2.52,2.52,0,0,0,1.12-.26,2.94,2.94,0,0,0,.93-.68,3.35,3.35,0,0,0,.62-1,3.47,3.47,0,0,0,.23-1.25,3.35,3.35,0,0,0-1-2.38L65.51,147A2.62,2.62,0,0,0,67,147.45Z" fill="#010101"/><path d="M78.36,148.21l-2.93-4.07-1.71,1.58v2.49h-1V137.08h1v7.56l4.47-4.36h1.17l-3.24,3.25,3.37,4.68Z" fill="#010101"/></g><g style="isolation:isolate"><path d="M86.44,148.21l-2.93-4.07-1.71,1.58v2.49h-1V137.08h1v7.56l4.47-4.36h1.17l-3.24,3.25,3.36,4.68Z" fill="#010101"/></g><g style="isolation:isolate"><path d="M91.86,148.36a3.77,3.77,0,0,1-1.59-.33,3.88,3.88,0,0,1-1.26-.9,4.35,4.35,0,0,1-.83-1.31,4.31,4.31,0,0,1-.3-1.61,4.14,4.14,0,0,1,.3-1.57,3.91,3.91,0,0,1,.83-1.3,4,4,0,0,1,1.25-.88,3.84,3.84,0,0,1,1.59-.33,3.77,3.77,0,0,1,1.59.33,3.71,3.71,0,0,1,1.24.89,4.13,4.13,0,0,1,.81,1.29,4.28,4.28,0,0,1,.29,1.56v.24a.72.72,0,0,1,0,.17H89a3.47,3.47,0,0,0,.29,1.18,3.35,3.35,0,0,0,.65.94,3.13,3.13,0,0,0,.91.62,2.76,2.76,0,0,0,1.85.11,2.94,2.94,0,0,0,.7-.29,2.32,2.32,0,0,0,.58-.45,2,2,0,0,0,.4-.58l.9.24a2.75,2.75,0,0,1-.52.8,3.18,3.18,0,0,1-.78.62,3.85,3.85,0,0,1-1,.42A4.58,4.58,0,0,1,91.86,148.36Zm2.93-4.54a3.15,3.15,0,0,0-.3-1.17,3.12,3.12,0,0,0-.64-.9,2.73,2.73,0,0,0-.9-.6,2.82,2.82,0,0,0-1.09-.21,2.86,2.86,0,0,0-1.09.21,2.67,2.67,0,0,0-.91.6,2.85,2.85,0,0,0-.63.91,3.65,3.65,0,0,0-.28,1.16Z" fill="#010101"/><path d="M104.06,148.21h-1v-4.44a3.83,3.83,0,0,0-.42-2.05,1.43,1.43,0,0,0-1.29-.64,2.65,2.65,0,0,0-.91.16,2.87,2.87,0,0,0-.85.48,3.38,3.38,0,0,0-.69.72,2.84,2.84,0,0,0-.44.91v4.86h-1v-7.94h1v1.8a3.76,3.76,0,0,1,1.39-1.41,3.85,3.85,0,0,1,2-.53,2.41,2.41,0,0,1,1.12.24,2,2,0,0,1,.73.69,3.2,3.2,0,0,1,.39,1.08,6.93,6.93,0,0,1,.13,1.42Z" fill="#010101"/><path d="M109.7,148.36a3.85,3.85,0,0,1-1.6-.33,3.74,3.74,0,0,1-1.25-.9,4,4,0,0,1-.83-1.31,4.31,4.31,0,0,1-.3-1.61,4.14,4.14,0,0,1,.3-1.57,3.88,3.88,0,0,1,2.08-2.18,3.89,3.89,0,0,1,4.42.89,4.3,4.3,0,0,1,.8,1.29,4.08,4.08,0,0,1,.29,1.56v.24a.72.72,0,0,1,0,.17h-6.8a3.26,3.26,0,0,0,.3,1.18,3.15,3.15,0,0,0,.65.94,3,3,0,0,0,.9.62,2.87,2.87,0,0,0,1.09.22,2.79,2.79,0,0,0,.76-.11,3.2,3.2,0,0,0,.71-.29,2.46,2.46,0,0,0,.57-.45,1.83,1.83,0,0,0,.4-.58l.9.24a2.56,2.56,0,0,1-.52.8,3.18,3.18,0,0,1-.78.62,3.85,3.85,0,0,1-1,.42A4.56,4.56,0,0,1,109.7,148.36Zm2.92-4.54a3.1,3.1,0,0,0-.93-2.07,2.73,2.73,0,0,0-.9-.6,3,3,0,0,0-2.19,0,2.83,2.83,0,0,0-1.53,1.51,3.4,3.4,0,0,0-.28,1.16Z" fill="#010101"/><path d="M115.26,137.08h1v9.33a1,1,0,0,0,.24.69.9.9,0,0,0,.69.25,2,2,0,0,0,.39,0,2.7,2.7,0,0,0,.43-.12l.18.84a3.43,3.43,0,0,1-.71.19,4.26,4.26,0,0,1-.72.08,1.41,1.41,0,0,1-1.54-1.54Z" fill="#010101"/><path d="M122.79,148.36a3.77,3.77,0,0,1-1.59-.33,3.68,3.68,0,0,1-1.26-.9,4.17,4.17,0,0,1-.83-1.31,4.31,4.31,0,0,1-.3-1.61,4.14,4.14,0,0,1,.3-1.57,4,4,0,0,1,.82-1.3,3.91,3.91,0,0,1,1.26-.88,3.79,3.79,0,0,1,1.58-.33,3.8,3.8,0,0,1,2.84,1.22,4.54,4.54,0,0,1,.81,1.29,4.28,4.28,0,0,1,.29,1.56v.24a.59.59,0,0,1,0,.17h-6.8a3.26,3.26,0,0,0,.3,1.18,3.15,3.15,0,0,0,.65.94,3,3,0,0,0,.9.62,2.79,2.79,0,0,0,1.86.11,3.33,3.33,0,0,0,.7-.29,2.74,2.74,0,0,0,.58-.45,2,2,0,0,0,.39-.58l.9.24a2.56,2.56,0,0,1-.52.8,3.33,3.33,0,0,1-.77.62,3.92,3.92,0,0,1-1,.42A4.44,4.44,0,0,1,122.79,148.36Zm2.93-4.54a3.15,3.15,0,0,0-.3-1.17,3.12,3.12,0,0,0-.64-.9,2.73,2.73,0,0,0-.9-.6,2.82,2.82,0,0,0-1.09-.21,2.91,2.91,0,0,0-1.1.21,2.77,2.77,0,0,0-.91.6,3,3,0,0,0-.62.91,3.4,3.4,0,0,0-.28,1.16Z" fill="#010101"/><path d="M140.12,148.21h-1v-4.44a3.68,3.68,0,0,0-.44-2,1.46,1.46,0,0,0-1.31-.65,2.27,2.27,0,0,0-.86.16,2.52,2.52,0,0,0-.75.48,3,3,0,0,0-.6.72,3.61,3.61,0,0,0-.4.92v4.85h-1v-4.44a3.82,3.82,0,0,0-.43-2.05,1.45,1.45,0,0,0-1.31-.64,2.32,2.32,0,0,0-1.6.62,3.55,3.55,0,0,0-1,1.65v4.86h-1v-7.94h.94v1.8a3.79,3.79,0,0,1,1.28-1.43,3.17,3.17,0,0,1,1.75-.51,2.27,2.27,0,0,1,1.61.56,2.47,2.47,0,0,1,.74,1.48,3.39,3.39,0,0,1,3.07-2,2.45,2.45,0,0,1,1.13.24,2,2,0,0,1,.75.7,3.29,3.29,0,0,1,.41,1.08,6.77,6.77,0,0,1,.13,1.41Z" fill="#010101"/><path d="M145.74,148.36a3.77,3.77,0,0,1-1.59-.33,3.88,3.88,0,0,1-1.26-.9,4.35,4.35,0,0,1-.83-1.31,4.31,4.31,0,0,1-.3-1.61,4.14,4.14,0,0,1,.3-1.57,3.91,3.91,0,0,1,.83-1.3,3.88,3.88,0,0,1,2.84-1.21,3.77,3.77,0,0,1,1.59.33,3.71,3.71,0,0,1,1.24.89,4.13,4.13,0,0,1,.81,1.29,4.28,4.28,0,0,1,.29,1.56v.24a.72.72,0,0,1,0,.17h-6.8a3.47,3.47,0,0,0,.29,1.18,3.35,3.35,0,0,0,.65.94,3.13,3.13,0,0,0,.91.62,2.76,2.76,0,0,0,1.85.11,3.12,3.12,0,0,0,.7-.29,2.32,2.32,0,0,0,.58-.45,2,2,0,0,0,.4-.58l.9.24a2.75,2.75,0,0,1-.52.8,3.38,3.38,0,0,1-.78.62,3.85,3.85,0,0,1-1,.42A4.58,4.58,0,0,1,145.74,148.36Zm2.93-4.54a3.15,3.15,0,0,0-.3-1.17,3.12,3.12,0,0,0-.64-.9,2.73,2.73,0,0,0-.9-.6,2.82,2.82,0,0,0-1.09-.21,2.86,2.86,0,0,0-1.09.21,2.67,2.67,0,0,0-.91.6,2.85,2.85,0,0,0-.63.91,3.65,3.65,0,0,0-.28,1.16Z" fill="#010101"/></g><g style="isolation:isolate"><path d="M157.94,148.21h-1v-4.44a3.83,3.83,0,0,0-.42-2.05,1.43,1.43,0,0,0-1.29-.64,2.65,2.65,0,0,0-.91.16,2.87,2.87,0,0,0-.85.48,3.38,3.38,0,0,0-.69.72,2.84,2.84,0,0,0-.44.91v4.86h-1v-7.94h1v1.8a3.76,3.76,0,0,1,1.39-1.41,3.88,3.88,0,0,1,2-.53,2.41,2.41,0,0,1,1.12.24,2,2,0,0,1,.73.69,3.43,3.43,0,0,1,.4,1.08,7.76,7.76,0,0,1,.12,1.42Z" fill="#010101"/></g><g style="isolation:isolate"><path d="M163.88,147.83l-.27.12-.4.15a4.81,4.81,0,0,1-.52.14,3,3,0,0,1-.61.06,2.25,2.25,0,0,1-.64-.09,1.58,1.58,0,0,1-.53-.28,1.35,1.35,0,0,1-.37-.48,1.6,1.6,0,0,1-.14-.67v-5.69h-1.09v-.82h1.09v-2.69h1v2.69h1.83v.82h-1.83v5.4a.79.79,0,0,0,.31.64,1.07,1.07,0,0,0,.65.21,1.94,1.94,0,0,0,.78-.15,2.84,2.84,0,0,0,.42-.2Z" fill="#010101"/></g><g style="isolation:isolate"><path d="M168.41,148.36a3.77,3.77,0,0,1-1.59-.33,3.68,3.68,0,0,1-1.26-.9,4.17,4.17,0,0,1-.83-1.31,4.31,4.31,0,0,1-.3-1.61,4.14,4.14,0,0,1,.3-1.57,4,4,0,0,1,.82-1.3,3.91,3.91,0,0,1,1.26-.88,3.79,3.79,0,0,1,1.58-.33,3.8,3.8,0,0,1,2.84,1.22,4.54,4.54,0,0,1,.81,1.29,4.28,4.28,0,0,1,.29,1.56v.24a.59.59,0,0,1,0,.17h-6.8a3.26,3.26,0,0,0,.3,1.18,3.15,3.15,0,0,0,.65.94,3,3,0,0,0,.9.62,2.87,2.87,0,0,0,1.09.22,2.92,2.92,0,0,0,.77-.11,3.33,3.33,0,0,0,.7-.29,2.74,2.74,0,0,0,.58-.45,2,2,0,0,0,.39-.58l.9.24a2.56,2.56,0,0,1-.52.8,3.33,3.33,0,0,1-.77.62,3.92,3.92,0,0,1-1,.42A4.5,4.5,0,0,1,168.41,148.36Zm2.92-4.54a3.1,3.1,0,0,0-.93-2.07,2.73,2.73,0,0,0-.9-.6,2.86,2.86,0,0,0-1.09-.21,2.91,2.91,0,0,0-1.1.21,2.77,2.77,0,0,0-.91.6,2.82,2.82,0,0,0-.62.91,3.4,3.4,0,0,0-.28,1.16Z" fill="#010101"/></g><g style="isolation:isolate"><path d="M177.89,141.18a3.24,3.24,0,0,0-1.83.58,3,3,0,0,0-1.1,1.51v4.94h-1v-7.94h1v1.9a3.66,3.66,0,0,1,1.19-1.43,2.73,2.73,0,0,1,1.6-.52l.2,0Z" fill="#010101"/></g><g style="isolation:isolate"><path d="M178.42,148.21v-1.5h.9v1.5Z" fill="#010101"/></g></g><rect x="177.29" y="-6.56" width="12.42" height="43.24" transform="translate(168.12 198.53) rotate(-89.9)" fill="#010101"/><rect x="177.29" y="-2.86" width="12.42" height="35.84" transform="translate(168.12 198.53) rotate(-89.9)" fill="#40444f"/><rect x="181.15" y="6.22" width="3.84" height="17.54" rx="0.71" ry="0.71" transform="translate(167.76 198.04) rotate(-89.9)" fill="#010101"/><circle cx="170.25" cy="14.97" r="1.92" fill="#010101"/><circle cx="195.9" cy="15.02" r="1.92" fill="#010101"/><circle cx="170.27" cy="14.95" r="0.81" fill="#fff"/><circle cx="195.9" cy="15.02" r="0.81" fill="#fff"/><polygon points="180.8 15.77 180.8 14.18 185.35 14.19 185.35 15.8 180.8 15.77" fill="#fff"/><path d="M178.66,15.77V14.18l-2.49,0s-1.22.92,0,1.61Z" fill="#fff"/><path d="M170.27,15h-.8s0,.61.8.8a.87.87,0,0,0,.81-.8Z" fill="#c7c8cb"/><path d="M195.88,15h-.81s0,.62.8.81a.87.87,0,0,0,.81-.8Z" fill="#c7c8cb"/><path d="M178.67,15h-3s-.16.42.54.8h2.49Z" fill="#c7c8cb"/><polygon points="180.8 14.99 180.8 15.77 185.35 15.8 185.35 15.07 180.8 14.99" fill="#c7c8cb"/><path d="M187.15,15.78V14.2l2.5,0s1.21.92,0,1.61Z" fill="#fff"/><path d="M187.14,15h3s.16.42-.54.81h-2.5Z" fill="#c7c8cb"/></g></g></svg>
