<svg id="step_4" data-name="step 4" xmlns="http://www.w3.org/2000/svg" width="560.57" height="478.75" viewBox="0 0 560.57 478.75">
  <defs>
    <style>
      .cls-1 {
        fill: #fffdf6;
      }

      .cls-2 {
        font-size: 38px;
        font-family: Raleway-Bold, Raleway;
      }

      .cls-3 {
        font-weight: 700;
      }

      .cls-4 {
        font-size: 36px;
        font-family: Raleway-Regular, Raleway;
      }

      .cls-5 {
        letter-spacing: -0.01em;
      }

      .cls-6 {
        letter-spacing: -0.03em;
      }

      .cls-7 {
        letter-spacing: -0.01em;
      }

      .cls-8 {
        letter-spacing: -0.03em;
      }

      .cls-9 {
        letter-spacing: 0em;
      }

      .cls-10 {
        letter-spacing: -0.02em;
      }

      .cls-11 {
        letter-spacing: -0.03em;
      }

      .cls-12 {
        letter-spacing: -0.01em;
      }

      .cls-13 {
        letter-spacing: -0.01em;
      }

      .cls-14 {
        letter-spacing: 0em;
      }

      .cls-15 {
        letter-spacing: -0.04em;
      }

      .cls-16 {
        letter-spacing: -0.01em;
      }

      .cls-17 {
        letter-spacing: -0.02em;
      }

      .cls-18 {
        letter-spacing: -0.01em;
      }

      .cls-19 {
        fill: #41444e;
      }

      .cls-20 {
        fill: #fff;
      }

      .cls-21 {
        fill: #676868;
      }

      .cls-22 {
        fill: #555;
      }
    </style>
  </defs>
  <title>step4</title>
  <polygon class="cls-1" points="281.07 478.75 251.45 420.24 186.46 411.47 232.96 365.22 221.22 300.7 279.57 330.63 337.3 299.52 326.87 364.27 374.3 409.56 309.5 419.65 281.07 478.75"/>
  <rect class="cls-1" width="560.14" height="424" rx="12" ry="12"/>
  <text class="cls-2" transform="translate(59.32 63.74)"><tspan class="cls-3"><tspan xml:space="preserve">             Design i 3D</tspan></tspan><tspan class="cls-4"><tspan class="cls-5" x="0" y="88.8">M</tspan><tspan x="31.32" y="88.8">ed de p</tspan><tspan class="cls-5" x="158.94" y="88.8">r</tspan><tspan x="171.32" y="88.8">æcise må</tspan><tspan class="cls-6" x="333.03" y="88.8">l</tspan><tspan x="341.71" y="88.8"> </tspan><tspan class="cls-7" x="350.89" y="88.8">k</tspan><tspan x="369.72" y="88.8">an</tspan><tspan class="cls-8" x="410.33" y="88.8"> </tspan><tspan x="418.53" y="88.8">vi </tspan><tspan x="0" y="132">gens</tspan><tspan class="cls-5" x="81.9" y="132">k</tspan><tspan x="100.73" y="132">abe rumm</tspan><tspan class="cls-9" x="273.06" y="132">e</tspan><tspan x="294.05" y="132">t i</tspan><tspan class="cls-8" x="323.13" y="132"> </tspan><tspan class="cls-10" x="331.34" y="132">v</tspan><tspan x="349.88" y="132">o</tspan><tspan class="cls-11" x="371.3" y="132">r</tspan><tspan x="383" y="132" xml:space="preserve">es  </tspan><tspan class="cls-12" x="0" y="175.2">t</tspan><tspan x="11.59" y="175.2">egnep</tspan><tspan class="cls-11" x="119.3" y="175.2">r</tspan><tspan x="131" y="175.2">og</tspan><tspan class="cls-13" x="174.67" y="175.2">r</tspan><tspan x="187.05" y="175.2">am og heri i 3D </tspan><tspan class="cls-12" x="0" y="218.4">t</tspan><tspan x="11.59" y="218.4">egne </tspan><tspan class="cls-8" x="106.27" y="218.4">k</tspan><tspan class="cls-14" x="124.38" y="218.4">øk</tspan><tspan class="cls-8" x="164.88" y="218.4">k</tspan><tspan x="182.99" y="218.4">en</tspan><tspan class="cls-9" x="225.11" y="218.4">e</tspan><tspan x="246.09" y="218.4">t, så I </tspan><tspan class="cls-13" x="339.87" y="218.4">k</tspan><tspan x="358.7" y="218.4">an se </tspan><tspan x="0" y="261.6">je</tspan><tspan class="cls-11" x="29.23" y="261.6">r</tspan><tspan x="40.93" y="261.6">es </tspan><tspan class="cls-8" x="88.78" y="261.6">k</tspan><tspan x="106.88" y="261.6">ommende sned</tspan><tspan class="cls-8" x="371.34" y="261.6">k</tspan><tspan x="389.44" y="261.6">e</tspan><tspan class="cls-15" x="410.58" y="261.6">r</tspan><tspan x="421.66" y="261.6">- </tspan><tspan class="cls-8" x="0" y="304.8">k</tspan><tspan x="18.11" y="304.8">øk</tspan><tspan class="cls-8" x="58.61" y="304.8">k</tspan><tspan x="76.72" y="304.8">en, og</tspan><tspan class="cls-8" x="179.78" y="304.8"> </tspan><tspan x="187.99" y="304.8">vi jus</tspan><tspan class="cls-16" x="271.22" y="304.8">t</tspan><tspan x="282.81" y="304.8">e</tspan><tspan class="cls-11" x="303.94" y="304.8">r</tspan><tspan x="315.64" y="304.8">e</tspan><tspan class="cls-17" x="336.78" y="304.8">r</tspan><tspan x="348.55" y="304.8"> </tspan><tspan class="cls-18" x="357.73" y="304.8">e</tspan><tspan x="378.36" y="304.8">vt. </tspan></tspan></text>
  <g>
    <g>
      <path class="cls-19" d="M681.11,188.41v7.45a7.8,7.8,0,0,1-4.51,4.51c-3.53,1.38-2.55,2-2.55,2h12.33V188.41Z" transform="translate(-228.93 -102)"/>
      <path class="cls-19" d="M691.54,188.41v7.45a7.8,7.8,0,0,0,4.51,4.51c3.53,1.38,2.55,2,2.55,2H686.28V188.41Z" transform="translate(-228.93 -102)"/>
    </g>
    <rect class="cls-19" x="417.57" y="32.98" width="80.5" height="55.8" rx="12" ry="12"/>
    <path class="cls-20" d="M646.5,182.61H727v4.26s0,3-4.65,3.93H652.27s-5.77.54-5.77-3.93Z" transform="translate(-228.93 -102)"/>
    <rect class="cls-21" x="421.9" y="37.79" width="72" height="40.09"/>
    <polygon class="cls-22" points="452.85 37.79 491.65 77.88 493.9 77.88 493.9 37.79 452.85 37.79"/>
    <circle class="cls-19" cx="457.46" cy="84.58" r="2.37"/>
  </g>
</svg>
