<svg id="Layer_1" data-name="Layer 1" xmlns="http://www.w3.org/2000/svg" viewBox="0 0 1524.05 269.35">
  <title>timeline</title>
  <polygon points="253.61 162.23 278.57 136.64 253.61 111.05 1.5 111.05 1.5 162.23 253.61 162.23" fill="#3f434d" stroke="#fffdf6" stroke-miterlimit="10" stroke-width="3"/>
  <polygon points="256.76 111.05 282.15 136.2 256.76 162.23 506.28 161.79 530.17 136.64 506.28 111.05 256.76 111.05" fill="#474b51" stroke="#fffdf6" stroke-miterlimit="10" stroke-width="3"/>
  <polygon points="508.13 111.05 533.52 135.99 508.13 161.8 757.65 161.37 781.54 136.43 757.65 111.05 508.13 111.05" fill="#50555b" stroke="#fffdf6" stroke-miterlimit="10" stroke-width="3"/>
  <polygon points="992.74 111.05 1018.14 135.57 992.74 160.95 1242.27 160.53 1266.15 136 1242.27 111.05 992.74 111.05" fill="#5e6266" stroke="#fffdf6" stroke-miterlimit="10" stroke-width="3"/>
  <polygon points="759.48 111.05 784.87 135.78 759.48 161.38 1009 160.95 1032.89 136.21 1009 111.05 759.48 111.05" fill="#585c60" stroke="#fffdf6" stroke-miterlimit="10" stroke-width="3"/>
  <polygon points="1243.54 111.05 1268.93 135.37 1243.54 160.53 1493.06 160.11 1516.95 135.79 1493.06 111.05 1243.54 111.05" fill="#696d70" stroke="#fffdf6" stroke-miterlimit="10" stroke-width="3"/>
  <g>
    <path d="M126.77,524a7.69,7.69,0,0,0-2.88-2,10.42,10.42,0,0,0-4.11-.76c-2.25,0-3.9.43-4.93,1.28A4.27,4.27,0,0,0,113.3,526a3.78,3.78,0,0,0,.42,1.89,3.61,3.61,0,0,0,1.27,1.28,9.31,9.31,0,0,0,2.22.94c.9.26,2,.52,3.18.79a34.88,34.88,0,0,1,3.69,1,10.5,10.5,0,0,1,2.79,1.35,5.59,5.59,0,0,1,1.77,2,6.08,6.08,0,0,1,.61,2.88,6.52,6.52,0,0,1-.68,3.06,6.1,6.1,0,0,1-1.91,2.16,8.55,8.55,0,0,1-2.92,1.28,16.29,16.29,0,0,1-14-3.29l1.26-2.06a10.34,10.34,0,0,0,1.64,1.37,12.64,12.64,0,0,0,2.13,1.14,13.73,13.73,0,0,0,2.5.75,14.1,14.1,0,0,0,2.81.27,8.73,8.73,0,0,0,4.77-1.1,3.68,3.68,0,0,0,1.71-3.33,3.83,3.83,0,0,0-.49-2,4.21,4.21,0,0,0-1.46-1.41,10.27,10.27,0,0,0-2.41-1c-1-.29-2.08-.58-3.35-.87s-2.52-.63-3.53-1a9.63,9.63,0,0,1-2.55-1.26,4.86,4.86,0,0,1-1.57-1.82,5.84,5.84,0,0,1-.52-2.61,7.14,7.14,0,0,1,.67-3.15,6.12,6.12,0,0,1,1.89-2.3,9,9,0,0,1,2.88-1.41,13.1,13.1,0,0,1,3.67-.48,12.65,12.65,0,0,1,4.55.77A12.27,12.27,0,0,1,128,522Z" transform="translate(-48.48 -452.77)"/>
    <path d="M142,543.88l-.63.29q-.42.18-1,.36a11.83,11.83,0,0,1-1.22.32,6.77,6.77,0,0,1-1.44.14,5.35,5.35,0,0,1-1.51-.21,3.63,3.63,0,0,1-1.26-.67,3.39,3.39,0,0,1-.87-1.13,3.79,3.79,0,0,1-.32-1.59V528h-2.59v-2h2.59v-6.33h2.45V526h4.32v2H136.2v12.74a1.92,1.92,0,0,0,.74,1.53,2.54,2.54,0,0,0,1.53.49,4.56,4.56,0,0,0,1.83-.35,7.72,7.72,0,0,0,1-.48Z" transform="translate(-48.48 -452.77)"/>
    <path d="M152.65,545.14a8.94,8.94,0,0,1-3.76-.78,9.12,9.12,0,0,1-3-2.12,9.77,9.77,0,0,1-2-3.11,10.12,10.12,0,0,1-.71-3.78,9.9,9.9,0,0,1,.71-3.73,9.55,9.55,0,0,1,1.94-3.06,9.28,9.28,0,0,1,3-2.09,9.54,9.54,0,0,1,7.51,0,9,9,0,0,1,2.93,2.11,9.85,9.85,0,0,1,2.59,6.73v.58a1.67,1.67,0,0,1,0,.39H145.81a7.83,7.83,0,0,0,2.23,5,6.87,6.87,0,0,0,2.14,1.45,6.44,6.44,0,0,0,2.58.53,6.58,6.58,0,0,0,1.8-.26,6.73,6.73,0,0,0,1.65-.68,6.13,6.13,0,0,0,1.37-1.06,4.55,4.55,0,0,0,.94-1.39l2.12.58a6.25,6.25,0,0,1-1.22,1.89,8.62,8.62,0,0,1-1.84,1.47,9,9,0,0,1-2.3,1A10.36,10.36,0,0,1,152.65,545.14Zm6.91-10.73a7.38,7.38,0,0,0-.7-2.75,7.62,7.62,0,0,0-1.51-2.15,6.85,6.85,0,0,0-2.13-1.4,6.51,6.51,0,0,0-2.57-.5,6.64,6.64,0,0,0-2.59.5,6.66,6.66,0,0,0-3.62,3.56,8.48,8.48,0,0,0-.67,2.74Z" transform="translate(-48.48 -452.77)"/>
    <path d="M175.26,545.14a7.37,7.37,0,0,1-4.2-1.21,9.55,9.55,0,0,1-2.93-3v11.56h-2.45V526h2.2v3.64a9,9,0,0,1,3-2.86,7.54,7.54,0,0,1,4-1.1,7.87,7.87,0,0,1,3.57.81,9.11,9.11,0,0,1,2.8,2.16,10.05,10.05,0,0,1,1.86,3.11,10.32,10.32,0,0,1,.66,3.64,11.24,11.24,0,0,1-.61,3.74,9.69,9.69,0,0,1-1.74,3.1,8.35,8.35,0,0,1-2.7,2.1A7.65,7.65,0,0,1,175.26,545.14Zm-.69-2.16a5.91,5.91,0,0,0,2.76-.65,6.78,6.78,0,0,0,2.12-1.71,7.61,7.61,0,0,0,1.35-2.41,8.51,8.51,0,0,0,.47-2.79,7.92,7.92,0,0,0-2-5.29,7,7,0,0,0-2.21-1.66,6.25,6.25,0,0,0-2.75-.61,5.54,5.54,0,0,0-2,.38,7.84,7.84,0,0,0-1.9,1,6.89,6.89,0,0,0-1.52,1.48,4,4,0,0,0-.77,1.78v5.76a8.35,8.35,0,0,0,1.1,1.87,7.66,7.66,0,0,0,1.51,1.5,7.15,7.15,0,0,0,1.82,1A5.76,5.76,0,0,0,174.57,543Z" transform="translate(-48.48 -452.77)"/>
    <path d="M209,542.55v2.23h-12.2v-2.23h5.11V527.14a3.92,3.92,0,0,1-1,.93,12.26,12.26,0,0,1-1.55.94,11.51,11.51,0,0,1-1.75.72A5.37,5.37,0,0,1,196,530v-2.38a4.2,4.2,0,0,0,1.82-.47,12.81,12.81,0,0,0,1.87-1.08,15,15,0,0,0,1.49-1.15,3.2,3.2,0,0,0,.69-.72h2.52v18.33Z" transform="translate(-48.48 -452.77)"/>
  </g>
  <g>
    <path d="M619.66,524a7.69,7.69,0,0,0-2.88-2,10.42,10.42,0,0,0-4.11-.76c-2.25,0-3.9.43-4.93,1.28a4.27,4.27,0,0,0-1.55,3.47,3.78,3.78,0,0,0,.42,1.89,3.61,3.61,0,0,0,1.27,1.28,9.31,9.31,0,0,0,2.22.94c.9.26,2,.52,3.18.79a34.88,34.88,0,0,1,3.69,1,10.35,10.35,0,0,1,2.79,1.35,5.59,5.59,0,0,1,1.77,2,6.08,6.08,0,0,1,.61,2.88,6.52,6.52,0,0,1-.68,3.06,6.1,6.1,0,0,1-1.91,2.16,8.55,8.55,0,0,1-2.92,1.28,16.29,16.29,0,0,1-14-3.29l1.26-2.06a10.34,10.34,0,0,0,1.64,1.37,12.64,12.64,0,0,0,2.13,1.14,13.73,13.73,0,0,0,2.5.75,14.1,14.1,0,0,0,2.81.27,8.73,8.73,0,0,0,4.77-1.1,3.68,3.68,0,0,0,1.71-3.33,3.83,3.83,0,0,0-.49-2,4.21,4.21,0,0,0-1.46-1.41,10.27,10.27,0,0,0-2.41-1c-1-.29-2.08-.58-3.35-.87s-2.52-.63-3.53-1a9.63,9.63,0,0,1-2.55-1.26,4.86,4.86,0,0,1-1.57-1.82,5.84,5.84,0,0,1-.52-2.61,7.14,7.14,0,0,1,.67-3.15,6.12,6.12,0,0,1,1.89-2.3,9,9,0,0,1,2.88-1.41,13.1,13.1,0,0,1,3.67-.48,12.65,12.65,0,0,1,4.55.77,12.27,12.27,0,0,1,3.62,2.18Z" transform="translate(-48.48 -452.77)"/>
    <path d="M634.85,543.88l-.63.29c-.28.12-.59.24-1,.36a11.83,11.83,0,0,1-1.22.32,6.77,6.77,0,0,1-1.44.14,5.35,5.35,0,0,1-1.51-.21,3.63,3.63,0,0,1-1.26-.67A3.39,3.39,0,0,1,627,543a3.79,3.79,0,0,1-.32-1.59V528h-2.59v-2h2.59v-6.33h2.45V526h4.32v2h-4.32v12.74a1.92,1.92,0,0,0,.74,1.53,2.54,2.54,0,0,0,1.53.49,4.56,4.56,0,0,0,1.83-.35,7.72,7.72,0,0,0,1-.48Z" transform="translate(-48.48 -452.77)"/>
    <path d="M645.54,545.14a8.94,8.94,0,0,1-3.76-.78,9.12,9.12,0,0,1-3-2.12,9.77,9.77,0,0,1-2-3.11,10.12,10.12,0,0,1-.71-3.78,9.9,9.9,0,0,1,.71-3.73,9.55,9.55,0,0,1,1.94-3.06,9.28,9.28,0,0,1,3-2.09,9.54,9.54,0,0,1,7.51,0,9,9,0,0,1,2.93,2.11,9.85,9.85,0,0,1,2.59,6.73v.58a1.67,1.67,0,0,1,0,.39H638.7a7.83,7.83,0,0,0,2.23,5,6.87,6.87,0,0,0,2.14,1.45,6.44,6.44,0,0,0,2.58.53,6.58,6.58,0,0,0,1.8-.26,6.73,6.73,0,0,0,1.65-.68,6.13,6.13,0,0,0,1.37-1.06,4.55,4.55,0,0,0,.94-1.39l2.12.58a6.25,6.25,0,0,1-1.22,1.89,8.62,8.62,0,0,1-1.84,1.47,9,9,0,0,1-2.3,1A10.36,10.36,0,0,1,645.54,545.14Zm6.91-10.73a7.38,7.38,0,0,0-.7-2.75,7.62,7.62,0,0,0-1.51-2.15,6.85,6.85,0,0,0-2.13-1.4,6.51,6.51,0,0,0-2.57-.5,6.64,6.64,0,0,0-2.59.5,6.66,6.66,0,0,0-3.62,3.56,8.48,8.48,0,0,0-.67,2.74Z" transform="translate(-48.48 -452.77)"/>
    <path d="M668.15,545.14a7.39,7.39,0,0,1-4.2-1.21,9.55,9.55,0,0,1-2.93-3v11.56h-2.45V526h2.2v3.64a9,9,0,0,1,3-2.86,7.54,7.54,0,0,1,4-1.1,7.87,7.87,0,0,1,3.57.81,9.11,9.11,0,0,1,2.8,2.16,10.05,10.05,0,0,1,1.86,3.11,10.32,10.32,0,0,1,.66,3.64,11.24,11.24,0,0,1-.61,3.74,9.69,9.69,0,0,1-1.74,3.1,8.35,8.35,0,0,1-2.7,2.1A7.62,7.62,0,0,1,668.15,545.14Zm-.69-2.16a5.91,5.91,0,0,0,2.76-.65,6.78,6.78,0,0,0,2.12-1.71,7.61,7.61,0,0,0,1.35-2.41,8.51,8.51,0,0,0,.47-2.79,7.92,7.92,0,0,0-2-5.29,7,7,0,0,0-2.21-1.66,6.25,6.25,0,0,0-2.75-.61,5.54,5.54,0,0,0-2,.38,7.84,7.84,0,0,0-1.9,1,6.89,6.89,0,0,0-1.52,1.48,4,4,0,0,0-.77,1.78v5.76a8.35,8.35,0,0,0,1.1,1.87,7.66,7.66,0,0,0,1.51,1.5,7.15,7.15,0,0,0,1.82,1A5.76,5.76,0,0,0,667.46,543Z" transform="translate(-48.48 -452.77)"/>
    <path d="M699.61,536.28a6,6,0,0,1,3.8,2.16,6.72,6.72,0,0,1,1.42,4.36,7.39,7.39,0,0,1-.59,3,6.46,6.46,0,0,1-1.69,2.3,7.85,7.85,0,0,1-2.63,1.48,10.46,10.46,0,0,1-3.4.52,10,10,0,0,1-4.79-1.1,7.34,7.34,0,0,1-3.1-3l1.69-1.55a5.85,5.85,0,0,0,2.31,2.52,7.35,7.35,0,0,0,3.89.94,6.31,6.31,0,0,0,4.24-1.32,4.63,4.63,0,0,0,1.55-3.76,5,5,0,0,0-1.62-3.92A6.83,6.83,0,0,0,696,537.4h-.9v-2.09h1a6.31,6.31,0,0,0,4.25-1.28,4.18,4.18,0,0,0,1.48-3.33,4.32,4.32,0,0,0-.4-1.91,3.81,3.81,0,0,0-1.1-1.38,4.87,4.87,0,0,0-1.65-.85,7.24,7.24,0,0,0-2.07-.29,7,7,0,0,0-3.62.92,5.91,5.91,0,0,0-2.36,2.54L689,528.22a5.6,5.6,0,0,1,1.22-1.71,7.88,7.88,0,0,1,1.8-1.32,9.54,9.54,0,0,1,2.23-.84,10.11,10.11,0,0,1,2.52-.31,9.56,9.56,0,0,1,3.05.47,7.35,7.35,0,0,1,2.39,1.31,5.9,5.9,0,0,1,2.12,4.67,6.5,6.5,0,0,1-.32,2.07,5.73,5.73,0,0,1-.94,1.76,5.16,5.16,0,0,1-3.49,2Z" transform="translate(-48.48 -452.77)"/>
  </g>
  <g>
    <path d="M1114.07,524a7.69,7.69,0,0,0-2.88-2,10.37,10.37,0,0,0-4.1-.76q-3.39,0-4.93,1.28a4.27,4.27,0,0,0-1.55,3.47,3.89,3.89,0,0,0,.41,1.89,3.73,3.73,0,0,0,1.28,1.28,9.31,9.31,0,0,0,2.22.94c.9.26,2,.52,3.18.79a34.88,34.88,0,0,1,3.69,1,10.65,10.65,0,0,1,2.79,1.35,5.59,5.59,0,0,1,1.77,2,6.2,6.2,0,0,1,.61,2.88,6.4,6.4,0,0,1-.69,3.06,6,6,0,0,1-1.9,2.16,8.55,8.55,0,0,1-2.92,1.28,16.29,16.29,0,0,1-14-3.29l1.26-2.06a9.91,9.91,0,0,0,1.64,1.37,12.53,12.53,0,0,0,2.12,1.14,13.84,13.84,0,0,0,2.51.75,14,14,0,0,0,2.8.27,8.73,8.73,0,0,0,4.77-1.1,3.68,3.68,0,0,0,1.71-3.33,3.83,3.83,0,0,0-.48-2,4.3,4.3,0,0,0-1.46-1.41,10.27,10.27,0,0,0-2.41-1c-1-.29-2.08-.58-3.35-.87s-2.52-.63-3.53-1a9.48,9.48,0,0,1-2.55-1.26,4.86,4.86,0,0,1-1.57-1.82,5.84,5.84,0,0,1-.52-2.61,7.28,7.28,0,0,1,.66-3.15,6.31,6.31,0,0,1,1.89-2.3,9.21,9.21,0,0,1,2.88-1.41,13.22,13.22,0,0,1,3.68-.48,12.65,12.65,0,0,1,4.55.77,12.27,12.27,0,0,1,3.62,2.18Z" transform="translate(-48.48 -452.77)"/>
    <path d="M1129.27,543.88l-.63.29q-.42.18-1,.36a12.55,12.55,0,0,1-1.22.32,6.77,6.77,0,0,1-1.44.14,5.35,5.35,0,0,1-1.51-.21,3.63,3.63,0,0,1-1.26-.67,3.39,3.39,0,0,1-.87-1.13,3.79,3.79,0,0,1-.32-1.59V528h-2.59v-2h2.59v-6.33h2.45V526h4.32v2h-4.32v12.74a1.91,1.91,0,0,0,.73,1.53,2.58,2.58,0,0,0,1.53.49,4.57,4.57,0,0,0,1.84-.35,8.48,8.48,0,0,0,1-.48Z" transform="translate(-48.48 -452.77)"/>
    <path d="M1140,545.14a8.91,8.91,0,0,1-3.76-.78,9.12,9.12,0,0,1-3-2.12,9.79,9.79,0,0,1-2-3.11,10.32,10.32,0,0,1-.7-3.78,10.1,10.1,0,0,1,.7-3.73,9.75,9.75,0,0,1,2-3.06,9.28,9.28,0,0,1,3-2.09,9.13,9.13,0,0,1,10.44,2.11,9.85,9.85,0,0,1,2.59,6.73v.58a1.17,1.17,0,0,1,0,.39h-16.05a7.83,7.83,0,0,0,2.23,5,6.76,6.76,0,0,0,2.14,1.45,6.37,6.37,0,0,0,2.58.53,6.58,6.58,0,0,0,1.8-.26,6.9,6.9,0,0,0,1.65-.68,6.13,6.13,0,0,0,1.37-1.06,4.55,4.55,0,0,0,.94-1.39l2.12.58a6.45,6.45,0,0,1-1.22,1.89,8.87,8.87,0,0,1-1.84,1.47,9.27,9.27,0,0,1-2.3,1A10.36,10.36,0,0,1,1140,545.14Zm6.91-10.73a7.57,7.57,0,0,0-2.21-4.9,7.09,7.09,0,0,0-2.13-1.4,6.51,6.51,0,0,0-2.57-.5,6.6,6.6,0,0,0-2.59.5,6.58,6.58,0,0,0-3.62,3.56,8.23,8.23,0,0,0-.67,2.74Z" transform="translate(-48.48 -452.77)"/>
    <path d="M1162.57,545.14a7.37,7.37,0,0,1-4.2-1.21,9.55,9.55,0,0,1-2.93-3v11.56H1153V526h2.2v3.64a9,9,0,0,1,3-2.86,7.6,7.6,0,0,1,4-1.1,7.86,7.86,0,0,1,3.56.81,9.15,9.15,0,0,1,2.81,2.16,10.24,10.24,0,0,1,2.52,6.75,11.24,11.24,0,0,1-.61,3.74,9.52,9.52,0,0,1-1.75,3.1,8.15,8.15,0,0,1-2.7,2.1A7.58,7.58,0,0,1,1162.57,545.14Zm-.69-2.16a5.91,5.91,0,0,0,2.76-.65,6.89,6.89,0,0,0,2.12-1.71,7.61,7.61,0,0,0,1.35-2.41,8.51,8.51,0,0,0,.47-2.79,7.92,7.92,0,0,0-2-5.29,7,7,0,0,0-2.21-1.66,6.27,6.27,0,0,0-2.76-.61,5.53,5.53,0,0,0-2,.38,8.09,8.09,0,0,0-1.91,1,6.85,6.85,0,0,0-1.51,1.48,3.9,3.9,0,0,0-.77,1.78v5.76a8.35,8.35,0,0,0,1.1,1.87,7.4,7.4,0,0,0,1.51,1.5,7.15,7.15,0,0,0,1.82,1A5.68,5.68,0,0,0,1161.88,543Z" transform="translate(-48.48 -452.77)"/>
    <path d="M1191.65,533.55a8.81,8.81,0,0,1,3.28.59,8.17,8.17,0,0,1,2.65,1.67,8,8,0,0,1,1.78,2.58,8.18,8.18,0,0,1,.64,3.29,8.39,8.39,0,0,1-.7,3.48,7.91,7.91,0,0,1-1.91,2.66,8.73,8.73,0,0,1-2.82,1.71,10.15,10.15,0,0,1-6.07.27,8.65,8.65,0,0,1-2.28-1,9.08,9.08,0,0,1-1.89-1.55,7.94,7.94,0,0,1-1.39-2l1.62-1.23a7.91,7.91,0,0,0,2.75,2.85,7.19,7.19,0,0,0,3.84,1.08,6.75,6.75,0,0,0,2.48-.45,6.15,6.15,0,0,0,2-1.28,6,6,0,0,0,1.35-2,6.51,6.51,0,0,0,.49-2.52,6.16,6.16,0,0,0-.47-2.43,5.7,5.7,0,0,0-1.3-1.89,5.83,5.83,0,0,0-1.94-1.23,6.83,6.83,0,0,0-2.41-.43,7.12,7.12,0,0,0-3.19.74,6.12,6.12,0,0,0-2.43,2.14h-2.27c0-.14.08-.47.18-1l.36-1.8c.15-.7.3-1.47.47-2.32s.34-1.71.5-2.58c.41-2,.85-4.26,1.34-6.73h12.34v2.27h-10.51l-1.76,9.18a6.5,6.5,0,0,1,2.28-1.57A7.74,7.74,0,0,1,1191.65,533.55Z" transform="translate(-48.48 -452.77)"/>
  </g>
  <g>
    <path d="M403.83,627.72a7.92,7.92,0,0,0-2.88-2,10.59,10.59,0,0,0-4.1-.75q-3.39,0-4.93,1.27a4.26,4.26,0,0,0-1.55,3.48,3.89,3.89,0,0,0,.41,1.89,3.72,3.72,0,0,0,1.28,1.28,8.84,8.84,0,0,0,2.21.93c.9.27,2,.53,3.19.79a34.76,34.76,0,0,1,3.69,1,10.35,10.35,0,0,1,2.79,1.35,5.47,5.47,0,0,1,1.76,2,6.08,6.08,0,0,1,.62,2.88,6.46,6.46,0,0,1-.69,3.06,6.08,6.08,0,0,1-1.91,2.16,8.4,8.4,0,0,1-2.91,1.27,15.43,15.43,0,0,1-3.71.42A15.25,15.25,0,0,1,386.84,645l1.26-2a10.43,10.43,0,0,0,1.64,1.37,11.5,11.5,0,0,0,2.12,1.13,13.22,13.22,0,0,0,2.5.76,14.18,14.18,0,0,0,2.81.27,8.81,8.81,0,0,0,4.77-1.1,3.68,3.68,0,0,0,1.71-3.33,3.87,3.87,0,0,0-.48-2,4.19,4.19,0,0,0-1.46-1.4,10.26,10.26,0,0,0-2.41-1c-1-.29-2.08-.58-3.35-.86s-2.52-.64-3.53-1a9.7,9.7,0,0,1-2.56-1.26,5,5,0,0,1-1.56-1.82,5.87,5.87,0,0,1-.52-2.61,7.21,7.21,0,0,1,.66-3.15,6.26,6.26,0,0,1,1.89-2.31,9,9,0,0,1,2.88-1.4,13.19,13.19,0,0,1,3.67-.49,12.45,12.45,0,0,1,4.56.78,12.06,12.06,0,0,1,3.62,2.18Z" transform="translate(-48.48 -452.77)"/>
    <path d="M419,647.59c-.14.08-.35.17-.63.29s-.59.24-.95.36a12.42,12.42,0,0,1-1.22.33,7.48,7.48,0,0,1-1.44.14,5.08,5.08,0,0,1-1.52-.22,3.45,3.45,0,0,1-1.26-.66,3.3,3.3,0,0,1-.86-1.14,3.57,3.57,0,0,1-.32-1.58V631.68h-2.6v-1.94h2.6V623.4h2.44v6.34h4.32v1.94h-4.32v12.74A2,2,0,0,0,414,646a2.58,2.58,0,0,0,1.53.48,4.58,4.58,0,0,0,1.84-.34,8,8,0,0,0,1-.49Z" transform="translate(-48.48 -452.77)"/>
    <path d="M429.72,648.85a9.14,9.14,0,0,1-3.77-.77,9.27,9.27,0,0,1-3-2.12,10.28,10.28,0,0,1-2-10.63,9.59,9.59,0,0,1,2-3.05,9.34,9.34,0,0,1,10.47-2.09,9,9,0,0,1,2.94,2.1A10,10,0,0,1,439,639v.57a1.28,1.28,0,0,1,0,.4H422.88a7.8,7.8,0,0,0,.7,2.79,7.4,7.4,0,0,0,1.53,2.21,6.79,6.79,0,0,0,2.14,1.46,6.35,6.35,0,0,0,2.57.52,6.57,6.57,0,0,0,1.8-.25,7.25,7.25,0,0,0,1.66-.69,6.06,6.06,0,0,0,1.37-1.06,4.42,4.42,0,0,0,.93-1.38l2.13.57a6.16,6.16,0,0,1-1.23,1.89,8.3,8.3,0,0,1-1.83,1.48,9.16,9.16,0,0,1-2.31,1A9.86,9.86,0,0,1,429.72,648.85Zm6.91-10.72a7.69,7.69,0,0,0-.7-2.76,7.4,7.4,0,0,0-1.52-2.14,6.58,6.58,0,0,0-2.12-1.4,6.51,6.51,0,0,0-2.57-.51,6.7,6.7,0,0,0-2.6.51,6.56,6.56,0,0,0-2.14,1.4,6.88,6.88,0,0,0-1.47,2.16,7.94,7.94,0,0,0-.67,2.74Z" transform="translate(-48.48 -452.77)"/>
    <path d="M452.32,648.85a7.43,7.43,0,0,1-4.19-1.2,9.66,9.66,0,0,1-2.93-3v11.55h-2.45V629.74h2.19v3.63a9.19,9.19,0,0,1,3-2.86,7.7,7.7,0,0,1,4-1.1,7.86,7.86,0,0,1,3.56.81,9.15,9.15,0,0,1,2.81,2.16,10,10,0,0,1,1.85,3.12,10.06,10.06,0,0,1,.67,3.63,11.34,11.34,0,0,1-.61,3.75,9.48,9.48,0,0,1-1.75,3.09,8.31,8.31,0,0,1-2.7,2.11A7.72,7.72,0,0,1,452.32,648.85Zm-.68-2.16a5.73,5.73,0,0,0,2.75-.65,6.82,6.82,0,0,0,2.13-1.71,7.69,7.69,0,0,0,1.35-2.41,8.51,8.51,0,0,0,.47-2.79,7.83,7.83,0,0,0-.54-2.88,8.11,8.11,0,0,0-1.48-2.41,7,7,0,0,0-2.21-1.65,6.34,6.34,0,0,0-2.76-.62,5.71,5.71,0,0,0-2,.38,8.13,8.13,0,0,0-1.91,1,6.63,6.63,0,0,0-1.51,1.48,3.85,3.85,0,0,0-.77,1.78V642a8.54,8.54,0,0,0,1.09,1.87,7.94,7.94,0,0,0,1.52,1.49,7.26,7.26,0,0,0,1.81,1A5.77,5.77,0,0,0,451.64,646.69Z" transform="translate(-48.48 -452.77)"/>
    <path d="M473,648.49a13.8,13.8,0,0,1,.22-2.46,8.5,8.5,0,0,1,.84-2.47,9.32,9.32,0,0,1,1.8-2.36,13.24,13.24,0,0,1,3.12-2.14c.69-.36,1.42-.71,2.18-1.06a15.5,15.5,0,0,0,2.09-1.17,6.64,6.64,0,0,0,1.56-1.46,3,3,0,0,0,.61-1.89,3.3,3.3,0,0,0-.3-1.35,3.79,3.79,0,0,0-.9-1.19,4.7,4.7,0,0,0-1.48-.84,5.91,5.91,0,0,0-2.07-.33,6.08,6.08,0,0,0-2.12.35,7.36,7.36,0,0,0-1.64.8,7.76,7.76,0,0,0-1.21,1,8.86,8.86,0,0,0-.75.84L473.35,631c.14-.15.42-.41.82-.79a9,9,0,0,1,1.61-1.16,12.91,12.91,0,0,1,2.32-1,9.3,9.3,0,0,1,3-.45,9,9,0,0,1,3,.45,6.49,6.49,0,0,1,2.19,1.24,5.34,5.34,0,0,1,1.37,1.82,5.13,5.13,0,0,1,.47,2.14,4.92,4.92,0,0,1-.65,2.56,7.35,7.35,0,0,1-1.6,1.87,11.19,11.19,0,0,1-2,1.35c-.72.37-1.37.69-2,1-.77.34-1.52.72-2.25,1.13a13.4,13.4,0,0,0-2,1.39,7.29,7.29,0,0,0-1.42,1.69,4,4,0,0,0-.56,2.09h12.82v2.23Z" transform="translate(-48.48 -452.77)"/>
  </g>
  <g>
    <path d="M896.1,627.72a7.92,7.92,0,0,0-2.88-2,10.56,10.56,0,0,0-4.1-.75q-3.39,0-4.93,1.27a4.29,4.29,0,0,0-1.55,3.48,3.89,3.89,0,0,0,.41,1.89,3.72,3.72,0,0,0,1.28,1.28,9,9,0,0,0,2.21.93c.91.27,2,.53,3.19.79a34.76,34.76,0,0,1,3.69,1,10.35,10.35,0,0,1,2.79,1.35,5.59,5.59,0,0,1,1.77,2,6.2,6.2,0,0,1,.61,2.88,6.46,6.46,0,0,1-.69,3.06A6.14,6.14,0,0,1,896,647a8.54,8.54,0,0,1-2.92,1.27,15.43,15.43,0,0,1-3.71.42A15.25,15.25,0,0,1,879.11,645l1.26-2a10.43,10.43,0,0,0,1.64,1.37,11.5,11.5,0,0,0,2.12,1.13,13.22,13.22,0,0,0,2.5.76,14.18,14.18,0,0,0,2.81.27,8.81,8.81,0,0,0,4.77-1.1,3.68,3.68,0,0,0,1.71-3.33,3.87,3.87,0,0,0-.48-2,4.19,4.19,0,0,0-1.46-1.4,10.26,10.26,0,0,0-2.41-1c-1-.29-2.08-.58-3.35-.86s-2.52-.64-3.53-1a9.7,9.7,0,0,1-2.56-1.26,5,5,0,0,1-1.56-1.82,5.87,5.87,0,0,1-.52-2.61,7.21,7.21,0,0,1,.66-3.15,6.26,6.26,0,0,1,1.89-2.31,9,9,0,0,1,2.88-1.4,13.21,13.21,0,0,1,3.68-.49,12.44,12.44,0,0,1,4.55.78,12.06,12.06,0,0,1,3.62,2.18Z" transform="translate(-48.48 -452.77)"/>
    <path d="M911.3,647.59c-.15.08-.36.17-.63.29s-.6.24-1,.36a12.42,12.42,0,0,1-1.22.33,7.48,7.48,0,0,1-1.44.14,5,5,0,0,1-1.51-.22,3.37,3.37,0,0,1-1.26-.66,3.33,3.33,0,0,1-.87-1.14,3.71,3.71,0,0,1-.32-1.58V631.68H900.5v-1.94h2.59V623.4h2.45v6.34h4.32v1.94h-4.32v12.74a2,2,0,0,0,.73,1.54,2.58,2.58,0,0,0,1.53.48,4.58,4.58,0,0,0,1.84-.34,8,8,0,0,0,1-.49Z" transform="translate(-48.48 -452.77)"/>
    <path d="M922,648.85a9.09,9.09,0,0,1-3.76-.77,9.2,9.2,0,0,1-3-2.12,10.28,10.28,0,0,1-2-10.63,9.59,9.59,0,0,1,2-3.05,9.12,9.12,0,0,1,3-2.09,9.16,9.16,0,0,1,10.44,2.1,9.85,9.85,0,0,1,2.59,6.74v.57a1.28,1.28,0,0,1,0,.4H915.15a7.8,7.8,0,0,0,.7,2.79,7.58,7.58,0,0,0,1.53,2.21,6.79,6.79,0,0,0,2.14,1.46,6.4,6.4,0,0,0,2.58.52,6.62,6.62,0,0,0,1.8-.25,7.17,7.17,0,0,0,1.65-.69,5.85,5.85,0,0,0,1.37-1.06,4.64,4.64,0,0,0,.94-1.38l2.12.57a6.16,6.16,0,0,1-1.23,1.89,8.08,8.08,0,0,1-1.83,1.48,9.09,9.09,0,0,1-2.3,1A10,10,0,0,1,922,648.85Zm6.91-10.72a7.69,7.69,0,0,0-.7-2.76,7.57,7.57,0,0,0-1.51-2.14,6.62,6.62,0,0,0-2.13-1.4,6.51,6.51,0,0,0-2.57-.51,6.84,6.84,0,0,0-4.74,1.91,6.88,6.88,0,0,0-1.47,2.16,8.17,8.17,0,0,0-.67,2.74Z" transform="translate(-48.48 -452.77)"/>
    <path d="M944.59,648.85a7.43,7.43,0,0,1-4.19-1.2,9.66,9.66,0,0,1-2.93-3v11.55H935V629.74h2.19v3.63a9.19,9.19,0,0,1,3-2.86,7.7,7.7,0,0,1,4-1.1,7.83,7.83,0,0,1,3.56.81,9.15,9.15,0,0,1,2.81,2.16,10,10,0,0,1,1.85,3.12,10.06,10.06,0,0,1,.67,3.63,11.34,11.34,0,0,1-.61,3.75,9.48,9.48,0,0,1-1.75,3.09,8.31,8.31,0,0,1-2.7,2.11A7.72,7.72,0,0,1,944.59,648.85Zm-.68-2.16a5.79,5.79,0,0,0,2.76-.65,6.89,6.89,0,0,0,2.12-1.71,7.5,7.5,0,0,0,1.35-2.41,8.51,8.51,0,0,0,.47-2.79,7.83,7.83,0,0,0-.54-2.88,8.11,8.11,0,0,0-1.48-2.41,6.92,6.92,0,0,0-2.21-1.65,6.27,6.27,0,0,0-2.76-.62,5.71,5.71,0,0,0-2,.38,8.13,8.13,0,0,0-1.91,1,6.84,6.84,0,0,0-1.51,1.48,3.85,3.85,0,0,0-.77,1.78V642a8.2,8.2,0,0,0,1.1,1.87,7.61,7.61,0,0,0,1.51,1.49,7.15,7.15,0,0,0,1.82,1A5.68,5.68,0,0,0,943.91,646.69Z" transform="translate(-48.48 -452.77)"/>
    <path d="M976.53,653.07v-6.41h-12V644.5l12.78-16.56H979v16.48h3.17v2.24H979v6.41Zm-9.4-8.65h9.65V631.79Z" transform="translate(-48.48 -452.77)"/>
  </g>
  <g>
    <path d="M1389.14,627.72a7.92,7.92,0,0,0-2.88-2,10.59,10.59,0,0,0-4.1-.75c-2.26,0-3.9.42-4.94,1.27a4.28,4.28,0,0,0-1.54,3.48,3.78,3.78,0,0,0,.41,1.89,3.72,3.72,0,0,0,1.28,1.28,8.69,8.69,0,0,0,2.21.93c.9.27,2,.53,3.19.79a34.76,34.76,0,0,1,3.69,1,10.35,10.35,0,0,1,2.79,1.35,5.56,5.56,0,0,1,1.76,2,6.08,6.08,0,0,1,.61,2.88,6.45,6.45,0,0,1-.68,3.06A6.17,6.17,0,0,1,1389,647a8.49,8.49,0,0,1-2.91,1.27,15.43,15.43,0,0,1-3.71.42,15.25,15.25,0,0,1-10.26-3.71l1.26-2a10,10,0,0,0,1.64,1.37,11.5,11.5,0,0,0,2.12,1.13,13,13,0,0,0,2.5.76,14.18,14.18,0,0,0,2.81.27,8.81,8.81,0,0,0,4.77-1.1,3.68,3.68,0,0,0,1.71-3.33,3.78,3.78,0,0,0-.49-2,4.15,4.15,0,0,0-1.45-1.4,10.35,10.35,0,0,0-2.42-1c-1-.29-2.07-.58-3.34-.86s-2.52-.64-3.53-1a9.7,9.7,0,0,1-2.56-1.26,4.91,4.91,0,0,1-1.56-1.82,5.86,5.86,0,0,1-.53-2.61,7.22,7.22,0,0,1,.67-3.15,6.07,6.07,0,0,1,1.89-2.31,9,9,0,0,1,2.88-1.4,13.14,13.14,0,0,1,3.67-.49,12.49,12.49,0,0,1,4.56.78,12,12,0,0,1,3.61,2.18Z" transform="translate(-48.48 -452.77)"/>
    <path d="M1404.33,647.59c-.14.08-.35.17-.63.29s-.59.24-1,.36a11.93,11.93,0,0,1-1.23.33,7.33,7.33,0,0,1-1.44.14,5.06,5.06,0,0,1-1.51-.22,3.45,3.45,0,0,1-1.26-.66,3.18,3.18,0,0,1-.86-1.14,3.57,3.57,0,0,1-.33-1.58V631.68h-2.59v-1.94h2.59V623.4h2.45v6.34h4.32v1.94h-4.32v12.74a2,2,0,0,0,.74,1.54,2.53,2.53,0,0,0,1.53.48,4.58,4.58,0,0,0,1.84-.34,7.61,7.61,0,0,0,1-.49Z" transform="translate(-48.48 -452.77)"/>
    <path d="M1415,648.85a9.13,9.13,0,0,1-3.76-.77,9.27,9.27,0,0,1-3-2.12,10.28,10.28,0,0,1-2-10.63,9.74,9.74,0,0,1,1.94-3.05,9.12,9.12,0,0,1,3-2.09,9.43,9.43,0,0,1,7.51,0,8.88,8.88,0,0,1,2.93,2.1,9.92,9.92,0,0,1,2.6,6.74v.57a1.68,1.68,0,0,1,0,.4h-16.06a8,8,0,0,0,.71,2.79,7.4,7.4,0,0,0,1.53,2.21,6.67,6.67,0,0,0,2.14,1.46,6.35,6.35,0,0,0,2.57.52,6.57,6.57,0,0,0,1.8-.25,7.44,7.44,0,0,0,1.66-.69A6.06,6.06,0,0,0,1420,645a4.6,4.6,0,0,0,.93-1.38l2.13.57a6.16,6.16,0,0,1-1.23,1.89,8.54,8.54,0,0,1-1.83,1.48,9.16,9.16,0,0,1-2.31,1A9.88,9.88,0,0,1,1415,648.85Zm6.92-10.72a7.69,7.69,0,0,0-.71-2.76,7.38,7.38,0,0,0-1.51-2.14,6.7,6.7,0,0,0-4.7-1.91,6.68,6.68,0,0,0-2.59.51,6.56,6.56,0,0,0-2.14,1.4,7.08,7.08,0,0,0-1.48,2.16,8.16,8.16,0,0,0-.66,2.74Z" transform="translate(-48.48 -452.77)"/>
    <path d="M1437.63,648.85a7.43,7.43,0,0,1-4.19-1.2,9.69,9.69,0,0,1-2.94-3v11.55h-2.44V629.74h2.19v3.63a9.19,9.19,0,0,1,3-2.86,7.64,7.64,0,0,1,4-1.1,7.86,7.86,0,0,1,3.56.81,9.15,9.15,0,0,1,2.81,2.16,10,10,0,0,1,1.85,3.12,10.06,10.06,0,0,1,.67,3.63,11.61,11.61,0,0,1-.61,3.75,9.48,9.48,0,0,1-1.75,3.09,8.52,8.52,0,0,1-2.7,2.11A7.72,7.72,0,0,1,1437.63,648.85Zm-.68-2.16a5.75,5.75,0,0,0,2.75-.65,6.82,6.82,0,0,0,2.13-1.71,7.67,7.67,0,0,0,1.34-2.41,8.26,8.26,0,0,0,.47-2.79,7.83,7.83,0,0,0-.54-2.88,8.08,8.08,0,0,0-1.47-2.41,7.07,7.07,0,0,0-2.22-1.65,6.26,6.26,0,0,0-2.75-.62,5.71,5.71,0,0,0-2,.38,7.93,7.93,0,0,0-1.91,1,6.63,6.63,0,0,0-1.51,1.48,4,4,0,0,0-.78,1.78V642a9,9,0,0,0,1.1,1.87,7.89,7.89,0,0,0,1.51,1.49,7.32,7.32,0,0,0,1.82,1A5.77,5.77,0,0,0,1437,646.69Z" transform="translate(-48.48 -452.77)"/>
    <path d="M1476.87,640.07a8.47,8.47,0,0,1-.7,3.44,8.77,8.77,0,0,1-1.93,2.79,9,9,0,0,1-2.88,1.87,9.73,9.73,0,0,1-7.27,0,8.35,8.35,0,0,1-2.9-2.11,9.9,9.9,0,0,1-1.89-3.37,13.91,13.91,0,0,1-.68-4.48,30.09,30.09,0,0,1,.68-6.78,15.36,15.36,0,0,1,1.93-4.83,8.24,8.24,0,0,1,3-2.86,8,8,0,0,1,3.85-.94,8.44,8.44,0,0,1,4.57,1.26,8,8,0,0,1,3.06,3.49L1474.1,629a6.45,6.45,0,0,0-6-4,5.66,5.66,0,0,0-2.88.76,6.56,6.56,0,0,0-2.21,2.18,11.3,11.3,0,0,0-1.44,3.51,19.34,19.34,0,0,0-.52,4.71,6.77,6.77,0,0,1,2.71-3.38,7.83,7.83,0,0,1,4.38-1.26,8.88,8.88,0,0,1,3.43.66,8.75,8.75,0,0,1,2.79,1.84,8.55,8.55,0,0,1,2.56,6.14Zm-9,6.62a6.43,6.43,0,0,0,2.58-.52,7,7,0,0,0,2.12-1.42,6.59,6.59,0,0,0,1.44-2.11,6.35,6.35,0,0,0,.52-2.57,6.2,6.2,0,0,0-.54-2.57,6.81,6.81,0,0,0-1.46-2.11,7,7,0,0,0-2.12-1.42,6.64,6.64,0,0,0-5.15,0,7,7,0,0,0-2.12,1.42,6.29,6.29,0,0,0-1.44,2.11,6.36,6.36,0,0,0-.53,2.57,6.16,6.16,0,0,0,.54,2.56,7.33,7.33,0,0,0,1.46,2.1,6.91,6.91,0,0,0,2.13,1.44A6.35,6.35,0,0,0,1467.87,646.69Z" transform="translate(-48.48 -452.77)"/>
  </g>
  <g>
    <g>
      <g>
        <path d="M240.08,498.81s.36,6.08-10.7,7.6c0,0,12.61,2.66,19.49-7.6S240.08,498.81,240.08,498.81Z" transform="translate(-48.48 -452.77)" fill="#363347"/>
        <ellipse cx="208.13" cy="28.16" rx="32.58" ry="23.12" fill="#363347"/>
      </g>
      <circle cx="199.74" cy="32.02" r="2.39" fill="#fff"/>
      <circle cx="208.13" cy="32.02" r="2.39" fill="#fff"/>
      <circle cx="216.57" cy="32.02" r="2.39" fill="#fff"/>
    </g>
    <g>
      <g>
        <path d="M342.66,525.81s-.37,6.08,10.7,7.6c0,0-12.61,2.66-19.49-7.6S342.66,525.81,342.66,525.81Z" transform="translate(-48.48 -452.77)" fill="#363347"/>
        <ellipse cx="277.65" cy="55.14" rx="32.58" ry="23.12" fill="#363347"/>
      </g>
      <circle cx="286.03" cy="59" r="2.39" fill="#fff"/>
      <circle cx="277.65" cy="59" r="2.39" fill="#fff"/>
      <circle cx="269.2" cy="59" r="2.39" fill="#fff"/>
    </g>
  </g>
  <g>
    <g>
      <rect x="479.45" y="188.75" width="51.78" height="80.59" rx="3.93" ry="3.93" fill="#363347"/>
      <path d="M536.61,659.51h34.74a.5.5,0,0,1,.5.5h0a.49.49,0,0,1-.5.49H536.61a.49.49,0,0,1-.49-.49h0A.5.5,0,0,1,536.61,659.51Z" transform="translate(-48.48 -452.77)" fill="#fff"/>
      <path d="M536.61,665.41h34.74a.5.5,0,0,1,.5.5h0a.49.49,0,0,1-.5.49H536.61a.49.49,0,0,1-.49-.49h0A.49.49,0,0,1,536.61,665.41Z" transform="translate(-48.48 -452.77)" fill="#fff"/>
      <path d="M536.61,670.66h34.74a.49.49,0,0,1,.5.49h0a.49.49,0,0,1-.5.49H536.61a.49.49,0,0,1-.49-.49h0A.49.49,0,0,1,536.61,670.66Z" transform="translate(-48.48 -452.77)" fill="#fff"/>
      <path d="M536.61,675.9h34.74a.49.49,0,0,1,.5.49h0a.5.5,0,0,1-.5.5H536.61a.49.49,0,0,1-.49-.5h0A.49.49,0,0,1,536.61,675.9Z" transform="translate(-48.48 -452.77)" fill="#fff"/>
      <path d="M536.61,681.15h34.74a.49.49,0,0,1,.5.49h0a.49.49,0,0,1-.5.49H536.61a.49.49,0,0,1-.49-.49h0A.49.49,0,0,1,536.61,681.15Z" transform="translate(-48.48 -452.77)" fill="#fff"/>
      <path d="M536.61,686.39h34.74a.49.49,0,0,1,.5.49h0a.49.49,0,0,1-.5.49H536.61a.49.49,0,0,1-.49-.49h0A.49.49,0,0,1,536.61,686.39Z" transform="translate(-48.48 -452.77)" fill="#fff"/>
      <path d="M536.61,691.63h34.74a.5.5,0,0,1,.5.5h0a.49.49,0,0,1-.5.49H536.61a.49.49,0,0,1-.49-.49h0A.49.49,0,0,1,536.61,691.63Z" transform="translate(-48.48 -452.77)" fill="#fff"/>
      <path d="M536.61,696.88h34.74a.49.49,0,0,1,.5.49h0a.49.49,0,0,1-.5.49H536.61a.49.49,0,0,1-.49-.49h0A.49.49,0,0,1,536.61,696.88Z" transform="translate(-48.48 -452.77)" fill="#fff"/>
      <path d="M536.61,702.12h34.74a.49.49,0,0,1,.5.49h0a.5.5,0,0,1-.5.5H536.61a.49.49,0,0,1-.49-.5h0A.49.49,0,0,1,536.61,702.12Z" transform="translate(-48.48 -452.77)" fill="#fff"/>
    </g>
    <g>
      <path d="M561.17,685.73l1.57-2.92a78.49,78.49,0,0,1,4.91-12.52L577,653.7a3.72,3.72,0,0,1,5.43-1.25c3.65,2.09,2.71,4.38,2.71,4.38L574,677s-4.38,5.76-7.08,8.78l-1.46,2.51Z" transform="translate(-48.48 -452.77)" fill="#bbb8d0"/>
      <polygon points="512.17 233.7 508.42 236.51 508.42 244.86 508.89 245.17 516.14 240.74 516.56 236.1 512.17 233.7" fill="#bbb8d0"/>
      <path d="M557,697.74l3.39-5.85s-1-1.77,1-1.51c0,0,1.31,1.36-.63,1.57l-3.44,6.1Z" transform="translate(-48.48 -452.77)" fill="#fff"/>
      <polygon points="512.12 233.59 512.59 233.07 516.87 235.47 516.61 236.15 512.12 233.59" fill="#fff"/>
      <polygon points="515.3 228.32 517.75 222.01 523.75 225.45 519.53 230.78 515.3 228.32" fill="#fff"/>
      <path d="M570.77,672.23l8.77-15.45a.82.82,0,0,1,1.07-.47h0c.84.26-.26,1.72-.26,1.72L572,673a1.32,1.32,0,0,1-1.2.68S569.94,673.11,570.77,672.23Z" transform="translate(-48.48 -452.77)" fill="#fff"/>
    </g>
  </g>
  <g>
    <rect x="710.01" y="490.2" width="76.28" height="15.17" transform="translate(-91.98 470.22) rotate(-61.88)" fill="#363347"/>
    <line x1="712.79" y1="13.44" x2="709.02" y2="11.43" fill="none" stroke="#fff" stroke-miterlimit="10" stroke-width="2"/>
    <line x1="710.85" y1="17.07" x2="707.09" y2="15.05" fill="none" stroke="#fff" stroke-miterlimit="10" stroke-width="2"/>
    <line x1="708.91" y1="20.7" x2="705.15" y2="18.68" fill="none" stroke="#fff" stroke-miterlimit="10" stroke-width="2"/>
    <line x1="706.98" y1="24.32" x2="703.21" y2="22.31" fill="none" stroke="#fff" stroke-miterlimit="10" stroke-width="2"/>
    <line x1="707.02" y1="29.01" x2="701.27" y2="25.94" fill="none" stroke="#fff" stroke-miterlimit="10" stroke-width="2"/>
    <line x1="703.1" y1="31.58" x2="699.33" y2="29.56" fill="none" stroke="#fff" stroke-miterlimit="10" stroke-width="2"/>
    <line x1="701.16" y1="35.21" x2="697.39" y2="33.19" fill="none" stroke="#fff" stroke-miterlimit="10" stroke-width="2"/>
    <line x1="699.43" y1="38.45" x2="695.66" y2="36.44" fill="none" stroke="#fff" stroke-miterlimit="10" stroke-width="2"/>
    <line x1="697.69" y1="41.69" x2="693.93" y2="39.68" fill="none" stroke="#fff" stroke-miterlimit="10" stroke-width="2"/>
    <line x1="697.94" y1="45.99" x2="692.19" y2="42.92" fill="none" stroke="#fff" stroke-miterlimit="10" stroke-width="2"/>
    <line x1="694.23" y1="48.18" x2="690.46" y2="46.16" fill="none" stroke="#fff" stroke-miterlimit="10" stroke-width="2"/>
    <line x1="692.49" y1="51.42" x2="688.73" y2="49.41" fill="none" stroke="#fff" stroke-miterlimit="10" stroke-width="2"/>
    <line x1="690.76" y1="54.66" x2="686.99" y2="52.65" fill="none" stroke="#fff" stroke-miterlimit="10" stroke-width="2"/>
    <line x1="689.03" y1="57.91" x2="685.26" y2="55.89" fill="none" stroke="#fff" stroke-miterlimit="10" stroke-width="2"/>
    <line x1="689.27" y1="62.21" x2="683.53" y2="59.13" fill="none" stroke="#fff" stroke-miterlimit="10" stroke-width="2"/>
    <line x1="685.56" y1="64.39" x2="681.79" y2="62.38" fill="none" stroke="#fff" stroke-miterlimit="10" stroke-width="2"/>
    <line x1="683.83" y1="67.63" x2="680.06" y2="65.62" fill="none" stroke="#fff" stroke-miterlimit="10" stroke-width="2"/>
    <line x1="682.1" y1="70.88" x2="678.33" y2="68.86" fill="none" stroke="#fff" stroke-miterlimit="10" stroke-width="2"/>
    <line x1="680.36" y1="74.12" x2="676.59" y2="72.11" fill="none" stroke="#fff" stroke-miterlimit="10" stroke-width="2"/>
  </g>
  <g>
    <g>
      <path d="M1040.07,704.26v8.53a9,9,0,0,1-5.16,5.16c-4.05,1.57-2.92,2.25-2.92,2.25h14.11V704.26Z" transform="translate(-48.48 -452.77)" fill="#363347"/>
      <path d="M1052,704.26v8.53a8.87,8.87,0,0,0,5.16,5.16c4,1.57,2.92,2.25,2.92,2.25H1046V704.26Z" transform="translate(-48.48 -452.77)" fill="#363347"/>
    </g>
    <rect x="951.96" y="190.31" width="92.17" height="63.89" rx="6.61" ry="6.61" fill="#363347"/>
    <path d="M1000.44,697.61h92.17v4.88s0,3.5-5.32,4.5h-80.24s-6.61.62-6.61-4.5Z" transform="translate(-48.48 -452.77)" fill="#fff"/>
    <rect x="956.92" y="195.82" width="82.44" height="45.9" fill="#585757"/>
    <polygon points="992.35 195.82 1036.79 241.72 1039.36 241.72 1039.36 195.82 992.35 195.82" fill="#404040"/>
    <circle cx="997.64" cy="249.39" r="2.71" fill="#363347"/>
  </g>
  <g>
    <g>
      <g>
        <circle cx="1211.83" cy="27.73" r="19.77" fill="#363347"/>
        <path d="M1253.6,463a11.71,11.71,0,0,1,2.79-7.78s2.17-2.23,3.69-2.45l-.58,9Z" transform="translate(-48.48 -452.77)" fill="#363347"/>
        <path d="M1259.58,462a11.76,11.76,0,0,1,4.59-6.89s2.64-1.63,4.18-1.47l-2.76,8.6Z" transform="translate(-48.48 -452.77)" fill="#363347"/>
        <path d="M1265.19,462.46a11.71,11.71,0,0,1,6.91-4.53s3.08-.47,4.43.28l-5.9,6.83Z" transform="translate(-48.48 -452.77)" fill="#363347"/>
        <path d="M1270.64,465.28a11.69,11.69,0,0,1,8-2.18s3.07.5,4.13,1.62l-7.73,4.69Z" transform="translate(-48.48 -452.77)" fill="#363347"/>
        <path d="M1248.16,465.85a11.72,11.72,0,0,1,.88-8.23s1.58-2.67,3-3.24l1.54,8.89Z" transform="translate(-48.48 -452.77)" fill="#363347"/>
        <path d="M1244,470.5a11.76,11.76,0,0,1-1.79-8.07s.65-3,1.83-4l4.3,7.94Z" transform="translate(-48.48 -452.77)" fill="#363347"/>
        <path d="M1278.25,486.3a11.77,11.77,0,0,1,4.62,6.86s.5,3.07-.23,4.43l-6.9-5.82Z" transform="translate(-48.48 -452.77)" fill="#363347"/>
        <path d="M1275.56,491.74a11.73,11.73,0,0,1,2.81,7.77s-.26,3.1-1.3,4.24l-5.28-7.32Z" transform="translate(-48.48 -452.77)" fill="#363347"/>
        <path d="M1271.81,495.94a11.72,11.72,0,0,1-.46,8.26s-1.45,2.75-2.85,3.4l-2-8.81Z" transform="translate(-48.48 -452.77)" fill="#363347"/>
        <path d="M1266.31,498.66a11.76,11.76,0,0,1-3,7.72s-2.23,2.17-3.76,2.35l.81-9Z" transform="translate(-48.48 -452.77)" fill="#363347"/>
        <path d="M1279.2,480.23a11.71,11.71,0,0,1,6.1,5.59s1.2,2.86.81,4.37l-8.07-4Z" transform="translate(-48.48 -452.77)" fill="#363347"/>
        <path d="M1277.9,474.13a11.73,11.73,0,0,1,7.56,3.36s2,2.33,2.16,3.86l-8.94-1.25Z" transform="translate(-48.48 -452.77)" fill="#363347"/>
        <path d="M1274.74,469.14a11.74,11.74,0,0,1,8.26-.1s2.84,1.26,3.58,2.62l-8.65,2.58Z" transform="translate(-48.48 -452.77)" fill="#363347"/>
        <path d="M1244.69,491.66a11.72,11.72,0,0,1-8.26-.4s-2.76-1.43-3.41-2.83l8.79-2.05Z" transform="translate(-48.48 -452.77)" fill="#363347"/>
        <path d="M1241.94,486.25a11.72,11.72,0,0,1-7.91-2.39s-2.33-2.06-2.63-3.58l9,.15Z" transform="translate(-48.48 -452.77)" fill="#363347"/>
        <path d="M1240.81,480.73a11.7,11.7,0,0,1-6.35-5.3s-1.34-2.8-1-4.31l8.26,3.66Z" transform="translate(-48.48 -452.77)" fill="#363347"/>
        <path d="M1241.92,474.7a11.76,11.76,0,0,1-4.41-7s-.41-3.08.36-4.42l6.73,6Z" transform="translate(-48.48 -452.77)" fill="#363347"/>
        <path d="M1249,496.05a11.76,11.76,0,0,1-8.12,1.55s-3-.75-4-2l8.06-4.06Z" transform="translate(-48.48 -452.77)" fill="#363347"/>
        <path d="M1254.65,498.66a11.7,11.7,0,0,1-7.21,4s-3.09.26-4.39-.58l6.35-6.41Z" transform="translate(-48.48 -452.77)" fill="#363347"/>
        <path d="M1260.54,499.1a11.68,11.68,0,0,1-4.86,6.69s-2.71,1.52-4.24,1.31l3.09-8.49Z" transform="translate(-48.48 -452.77)" fill="#363347"/>
      </g>
      <circle cx="1211.42" cy="28.78" r="17.1" fill="#fff"/>
      <circle cx="1211.43" cy="28.7" r="3.73"/>
    </g>
    <rect x="1161.63" y="27.97" width="92.43" height="13.97" rx="1.76" ry="1.76"/>
    <rect x="1165.49" y="12.8" width="45.83" height="18.26" rx="1.98" ry="1.98"/>
    <rect x="1164.53" y="29.3" width="87.98" height="11" rx="1.38" ry="1.38" fill="#363347"/>
    <path d="M1219.79,470.75v4.09h9.26a3.64,3.64,0,0,0,3.42-4.09Z" transform="translate(-48.48 -452.77)" fill="#363347"/>
    <path d="M1219.79,478v2.5h36.54v-1.25h-11.51s-2.42-1.5,0-3.42h11.51V470H1236s-.51,7.43-6.26,7.51l-9.93-.08Z" transform="translate(-48.48 -452.77)" fill="#363347"/>
    <rect x="1172.65" y="41.93" width="5.01" height="41.16" fill="#070102"/>
    <rect x="1236.72" y="41.93" width="5.01" height="41.16" fill="#070102"/>
    <rect x="1175.15" y="62.51" width="64" height="2.23" fill="#070102"/>
  </g>
  <g>
    <rect x="1492.82" y="645.13" width="79.64" height="22.88" transform="translate(-52.69 -442.85) rotate(-0.37)"/>
    <rect x="1499.63" y="645.13" width="66.02" height="22.88" transform="translate(-52.69 -442.85) rotate(-0.37)" fill="#363347"/>
    <rect x="1517.27" y="653.16" width="32.31" height="7.07" rx="1.31" ry="1.31" transform="translate(-52.69 -442.84) rotate(-0.37)"/>
    <circle cx="1508.56" cy="203.77" r="3.54"/>
    <circle cx="1461.32" cy="204.07" r="3.54"/>
    <circle cx="1508.51" cy="203.81" r="1.48" fill="#fff"/>
    <circle cx="1461.32" cy="204.07" r="1.48" fill="#fff"/>
    <polygon points="1489.12 202.45 1489.14 205.38 1480.76 205.43 1480.74 202.46 1489.12 202.45" fill="#fff"/>
    <path d="M1541.53,655.2l0,2.92h4.6s2.24-1.71,0-3Z" transform="translate(-48.48 -452.77)" fill="#fff"/>
    <path d="M1557,656.58h1.49s0-1.14-1.5-1.48a1.6,1.6,0,0,0-1.47,1.5Z" transform="translate(-48.48 -452.77)" fill="#bbb8d0"/>
    <path d="M1509.84,656.88h1.48s0-1.13-1.49-1.47a1.61,1.61,0,0,0-1.48,1.49Z" transform="translate(-48.48 -452.77)" fill="#bbb8d0"/>
    <path d="M1541.54,656.68l5.58,0s.3-.79-1-1.48l-4.6,0Z" transform="translate(-48.48 -452.77)" fill="#bbb8d0"/>
    <polygon points="1489.13 203.89 1489.12 202.45 1480.74 202.46 1480.74 203.82 1489.13 203.89" fill="#bbb8d0"/>
    <path d="M1525.9,655.3l0,2.92-4.6.07s-2.26-1.69,0-3Z" transform="translate(-48.48 -452.77)" fill="#fff"/>
    <path d="M1525.93,656.78l-5.59,0s-.3-.78,1-1.49l4.61,0Z" transform="translate(-48.48 -452.77)" fill="#bbb8d0"/>
  </g>
</svg>
