<svg xmlns="http://www.w3.org/2000/svg" viewBox="0 0 1524.05 263.73"><title>Asset 2</title><g id="Layer_2" data-name="Layer 2"><g id="Layer_1-2" data-name="Layer 1"><polygon points="253.61 156.61 278.57 131.02 253.61 105.43 1.5 105.43 1.5 156.61 253.61 156.61" fill="#3f434d" stroke="#fffdf6" stroke-miterlimit="10" stroke-width="3"/><polygon points="256.76 105.43 282.15 130.59 256.76 156.61 506.28 156.18 530.17 131.02 506.28 105.43 256.76 105.43" fill="#474b51" stroke="#fffdf6" stroke-miterlimit="10" stroke-width="3"/><polygon points="508.13 105.43 533.52 130.38 508.13 156.18 757.65 155.75 781.54 130.81 757.65 105.43 508.13 105.43" fill="#50555b" stroke="#fffdf6" stroke-miterlimit="10" stroke-width="3"/><polygon points="992.74 105.43 1018.14 129.96 992.74 155.33 1242.27 154.91 1266.15 130.38 1242.27 105.43 992.74 105.43" fill="#5e6266" stroke="#fffdf6" stroke-miterlimit="10" stroke-width="3"/><polygon points="759.48 105.43 784.87 130.16 759.48 155.75 1009 155.33 1032.89 130.59 1009 105.43 759.48 105.43" fill="#585c60" stroke="#fffdf6" stroke-miterlimit="10" stroke-width="3"/><polygon points="1243.54 105.43 1268.93 129.75 1243.54 154.91 1493.06 154.49 1516.95 130.17 1493.06 105.43 1243.54 105.43" fill="#696d70" stroke="#fffdf6" stroke-miterlimit="10" stroke-width="3"/><path d="M121.68,73.78a7.69,7.69,0,0,0-2.88-2,10.41,10.41,0,0,0-4.1-.76c-2.26,0-3.9.43-4.94,1.28a4.26,4.26,0,0,0-1.54,3.47,3.78,3.78,0,0,0,.41,1.89A3.64,3.64,0,0,0,109.91,79a9,9,0,0,0,2.21.94c.9.26,2,.52,3.19.79a34.88,34.88,0,0,1,3.69,1A10.65,10.65,0,0,1,121.79,83a5.65,5.65,0,0,1,1.76,2,6.08,6.08,0,0,1,.61,2.88,6.4,6.4,0,0,1-.68,3.06,6,6,0,0,1-1.91,2.16,8.31,8.31,0,0,1-2.91,1.28,15.45,15.45,0,0,1-3.71.41,15.24,15.24,0,0,1-10.26-3.7L106,89a9.09,9.09,0,0,0,1.64,1.37,12.16,12.16,0,0,0,2.12,1.14,13.73,13.73,0,0,0,2.5.75,14.18,14.18,0,0,0,2.81.27,8.73,8.73,0,0,0,4.77-1.1,3.68,3.68,0,0,0,1.71-3.33,3.74,3.74,0,0,0-.49-2,4.27,4.27,0,0,0-1.45-1.41,10.36,10.36,0,0,0-2.42-1c-1-.29-2.07-.58-3.34-.87s-2.52-.63-3.53-1a9.7,9.7,0,0,1-2.56-1.26,4.83,4.83,0,0,1-1.56-1.82,5.83,5.83,0,0,1-.53-2.61,7.28,7.28,0,0,1,.67-3.15,6.12,6.12,0,0,1,1.89-2.3,9.21,9.21,0,0,1,2.88-1.41,13.15,13.15,0,0,1,3.67-.48,12.71,12.71,0,0,1,4.56.77,12.44,12.44,0,0,1,3.61,2.18Z"/><path d="M136.87,93.65l-.63.29c-.27.12-.59.24-1,.36a9.91,9.91,0,0,1-1.23.32,6.64,6.64,0,0,1-1.44.14,5.4,5.4,0,0,1-1.51-.21,3.47,3.47,0,0,1-1.26-.67,3.15,3.15,0,0,1-.86-1.13,3.64,3.64,0,0,1-.33-1.59V77.74h-2.59V75.79h2.59V69.46h2.45v6.33h4.32v1.95h-4.32V90.48a2,2,0,0,0,.74,1.53,2.54,2.54,0,0,0,1.53.49,4.75,4.75,0,0,0,1.84-.34,9.24,9.24,0,0,0,1-.49Z"/><path d="M147.56,94.91a9,9,0,0,1-3.76-.78,9.12,9.12,0,0,1-3-2.12,9.94,9.94,0,0,1-2-3.11,10.12,10.12,0,0,1-.7-3.78,9.83,9.83,0,0,1,2.64-6.79,9.43,9.43,0,0,1,3-2.09,9.54,9.54,0,0,1,7.51,0,8.9,8.9,0,0,1,2.93,2.11,9.69,9.69,0,0,1,1.91,3.06,9.81,9.81,0,0,1,.69,3.67v.58a1.52,1.52,0,0,1,0,.39H140.72a8,8,0,0,0,.71,2.79A7.44,7.44,0,0,0,143,91.06a6.65,6.65,0,0,0,2.14,1.45,6.36,6.36,0,0,0,2.57.53,7,7,0,0,0,1.8-.25,7.44,7.44,0,0,0,1.66-.69A6.36,6.36,0,0,0,152.5,91a4.52,4.52,0,0,0,.93-1.39l2.13.58a6.28,6.28,0,0,1-1.23,1.89,8.81,8.81,0,0,1-1.83,1.47,9.18,9.18,0,0,1-2.31,1A10.3,10.3,0,0,1,147.56,94.91Zm6.92-10.73a7.59,7.59,0,0,0-.71-2.75,7.24,7.24,0,0,0-1.51-2.14,6.78,6.78,0,0,0-2.12-1.41,6.56,6.56,0,0,0-2.58-.5,6.68,6.68,0,0,0-2.59.5,6.75,6.75,0,0,0-2.14,1.41,7,7,0,0,0-1.48,2.16,8.16,8.16,0,0,0-.66,2.73Z"/><path d="M170.17,94.91A7.36,7.36,0,0,1,166,93.7a9.69,9.69,0,0,1-2.94-3v11.56H160.6V75.79h2.19v3.64a9.09,9.09,0,0,1,3-2.86,7.58,7.58,0,0,1,4-1.1,7.86,7.86,0,0,1,3.56.81,9.15,9.15,0,0,1,2.81,2.16,10.38,10.38,0,0,1,2.52,6.75,11.5,11.5,0,0,1-.61,3.74,9.52,9.52,0,0,1-1.75,3.1,8.35,8.35,0,0,1-2.7,2.1A7.59,7.59,0,0,1,170.17,94.91Zm-.68-2.16a5.87,5.87,0,0,0,2.75-.65,6.82,6.82,0,0,0,2.13-1.71A8,8,0,0,0,175.72,88a8.5,8.5,0,0,0,.46-2.79,7.76,7.76,0,0,0-.54-2.88,8,8,0,0,0-1.47-2.41A7,7,0,0,0,172,78.24a6.25,6.25,0,0,0-2.75-.61,5.49,5.49,0,0,0-2,.38,7.9,7.9,0,0,0-1.91,1,6.85,6.85,0,0,0-1.51,1.48,4,4,0,0,0-.78,1.78V88a8.82,8.82,0,0,0,1.1,1.88,8.18,8.18,0,0,0,1.51,1.49,7.32,7.32,0,0,0,1.82,1A5.77,5.77,0,0,0,169.49,92.75Z"/><path d="M203.9,92.32v2.23H191.7V92.32h5.11V76.91a3.75,3.75,0,0,1-1,.93,11.59,11.59,0,0,1-1.55.94,11,11,0,0,1-1.74.72,5.38,5.38,0,0,1-1.59.29V77.41a4.29,4.29,0,0,0,1.82-.46,14.24,14.24,0,0,0,1.87-1.08,16.92,16.92,0,0,0,1.5-1.16,3.05,3.05,0,0,0,.68-.72h2.52V92.32Z"/><path d="M600.69,66.86a7.92,7.92,0,0,0-2.88-2,10.61,10.61,0,0,0-4.11-.75c-2.25,0-3.9.42-4.93,1.27a4.3,4.3,0,0,0-1.55,3.48,3.78,3.78,0,0,0,.42,1.89,3.56,3.56,0,0,0,1.28,1.28,8.69,8.69,0,0,0,2.21.93c.9.27,2,.53,3.19.79a36.1,36.1,0,0,1,3.69,1,10.65,10.65,0,0,1,2.79,1.35,5.66,5.66,0,0,1,1.76,2,6.08,6.08,0,0,1,.61,2.88,6.52,6.52,0,0,1-.68,3.06,6.17,6.17,0,0,1-1.91,2.16,8.75,8.75,0,0,1-2.92,1.28,15.82,15.82,0,0,1-3.7.41,15.2,15.2,0,0,1-10.26-3.71l1.26-2a9.82,9.82,0,0,0,1.63,1.37,11.93,11.93,0,0,0,2.13,1.13,13,13,0,0,0,2.5.76,14.1,14.1,0,0,0,2.81.27,8.81,8.81,0,0,0,4.77-1.1,3.68,3.68,0,0,0,1.71-3.33,3.78,3.78,0,0,0-.49-2,4.19,4.19,0,0,0-1.46-1.4,10.08,10.08,0,0,0-2.41-1c-1-.28-2.07-.57-3.35-.86s-2.52-.64-3.52-1a9.7,9.7,0,0,1-2.56-1.26,4.94,4.94,0,0,1-1.57-1.82,6,6,0,0,1-.52-2.61,7.08,7.08,0,0,1,.67-3.15,6.12,6.12,0,0,1,1.89-2.3,8.8,8.8,0,0,1,2.88-1.41,13.14,13.14,0,0,1,3.67-.49,12.44,12.44,0,0,1,4.55.78,12.14,12.14,0,0,1,3.62,2.18Z"/><path d="M615.88,86.73c-.14.08-.35.17-.63.29s-.59.24-1,.36a11.93,11.93,0,0,1-1.23.33,7.33,7.33,0,0,1-1.44.14,5.35,5.35,0,0,1-1.51-.21,3.63,3.63,0,0,1-1.26-.67,3.24,3.24,0,0,1-.86-1.13,3.64,3.64,0,0,1-.33-1.59V70.82h-2.59V68.88h2.59V62.54h2.45v6.34h4.32v1.94h-4.32V83.57a2,2,0,0,0,.74,1.53,2.53,2.53,0,0,0,1.53.48,4.53,4.53,0,0,0,1.83-.34,9.41,9.41,0,0,0,1-.48Z"/><path d="M626.57,88a8.94,8.94,0,0,1-3.76-.78,9.12,9.12,0,0,1-3-2.12,9.88,9.88,0,0,1-2-3.12,10,10,0,0,1-.7-3.78,9.81,9.81,0,0,1,.7-3.72,9.5,9.5,0,0,1,1.94-3.06,9.28,9.28,0,0,1,3-2.09,9.11,9.11,0,0,1,10.44,2.11,9.64,9.64,0,0,1,1.91,3.06,9.77,9.77,0,0,1,.68,3.67v.57a1.71,1.71,0,0,1,0,.4H619.73a8,8,0,0,0,.7,2.79A7.78,7.78,0,0,0,622,84.14a6.83,6.83,0,0,0,2.15,1.46,6.35,6.35,0,0,0,2.57.52,6.57,6.57,0,0,0,1.8-.25,7.41,7.41,0,0,0,1.66-.68,6.07,6.07,0,0,0,1.36-1.06,4.68,4.68,0,0,0,.94-1.39l2.12.57a6.11,6.11,0,0,1-1.22,1.9,8.85,8.85,0,0,1-4.14,2.44A9.93,9.93,0,0,1,626.57,88Zm6.91-10.73a7.51,7.51,0,0,0-2.21-4.9,6.7,6.7,0,0,0-4.7-1.91A6.68,6.68,0,0,0,624,71a6.46,6.46,0,0,0-2.14,1.4,6.91,6.91,0,0,0-1.48,2.16,8.16,8.16,0,0,0-.66,2.74Z"/><path d="M649.18,88A7.44,7.44,0,0,1,645,86.79a9.58,9.58,0,0,1-2.94-3V95.3H639.6V68.88h2.2v3.64a9.12,9.12,0,0,1,3-2.87,7.63,7.63,0,0,1,4-1.09,7.87,7.87,0,0,1,3.57.81,9.24,9.24,0,0,1,2.81,2.15A10.08,10.08,0,0,1,657,74.64a10.32,10.32,0,0,1,.67,3.63,11.3,11.3,0,0,1-.62,3.75,9.5,9.5,0,0,1-1.74,3.1,8.49,8.49,0,0,1-2.7,2.1A7.62,7.62,0,0,1,649.18,88Zm-.68-2.16a5.9,5.9,0,0,0,2.75-.65,6.67,6.67,0,0,0,2.12-1.71,7.55,7.55,0,0,0,1.35-2.42,8.18,8.18,0,0,0,.47-2.79,7.83,7.83,0,0,0-.54-2.88A8.08,8.08,0,0,0,653.18,73,7.23,7.23,0,0,0,651,71.33a6.25,6.25,0,0,0-2.75-.61,5.65,5.65,0,0,0-2,.37,8.3,8.3,0,0,0-1.91,1,6.63,6.63,0,0,0-1.51,1.48,4,4,0,0,0-.78,1.78v5.76a8.75,8.75,0,0,0,1.1,1.87,7.34,7.34,0,0,0,1.51,1.49,7,7,0,0,0,1.82,1A5.77,5.77,0,0,0,648.5,85.84Z"/><path d="M680.64,79.14a5.91,5.91,0,0,1,3.8,2.16,6.71,6.71,0,0,1,1.42,4.35,7.27,7.27,0,0,1-.59,3,6.64,6.64,0,0,1-1.69,2.3A7.74,7.74,0,0,1,681,92.4a10.41,10.41,0,0,1-3.4.53,10,10,0,0,1-4.79-1.1,7.39,7.39,0,0,1-3.1-3l1.7-1.55a5.77,5.77,0,0,0,2.3,2.52,7.44,7.44,0,0,0,3.89.93,6.36,6.36,0,0,0,4.25-1.31,4.67,4.67,0,0,0,1.54-3.76,5,5,0,0,0-1.62-3.93A6.88,6.88,0,0,0,677,80.26h-.9V78.17h1a6.3,6.3,0,0,0,4.24-1.28,4.18,4.18,0,0,0,1.48-3.33,4.29,4.29,0,0,0-.4-1.91,3.89,3.89,0,0,0-1.09-1.38,4.74,4.74,0,0,0-1.66-.85,7.24,7.24,0,0,0-2.07-.29,7.06,7.06,0,0,0-3.62.92,5.91,5.91,0,0,0-2.36,2.54l-1.58-1.51a5.77,5.77,0,0,1,1.22-1.71,7.88,7.88,0,0,1,1.8-1.32,9.62,9.62,0,0,1,2.24-.84,10,10,0,0,1,2.52-.31,9.55,9.55,0,0,1,3,.47,7.35,7.35,0,0,1,2.39,1.31,5.91,5.91,0,0,1,1.57,2,6.09,6.09,0,0,1,.56,2.62,6.5,6.5,0,0,1-.33,2.07,5.75,5.75,0,0,1-.93,1.77,5.34,5.34,0,0,1-1.5,1.29A5.2,5.2,0,0,1,680.64,79.14Z"/><path d="M1100,71.24a7.69,7.69,0,0,0-2.88-2,10.42,10.42,0,0,0-4.11-.76c-2.25,0-3.9.43-4.93,1.28a4.27,4.27,0,0,0-1.55,3.47,3.78,3.78,0,0,0,.42,1.89,3.61,3.61,0,0,0,1.27,1.28,9.31,9.31,0,0,0,2.22.94c.9.26,2,.52,3.18.79a34.88,34.88,0,0,1,3.69,1,10.35,10.35,0,0,1,2.79,1.35,5.59,5.59,0,0,1,1.77,2,6.08,6.08,0,0,1,.61,2.88,6.52,6.52,0,0,1-.68,3.06,6.1,6.1,0,0,1-1.91,2.16,8.55,8.55,0,0,1-2.92,1.28,16.29,16.29,0,0,1-14-3.29l1.26-2.06a10.34,10.34,0,0,0,1.64,1.37,12.64,12.64,0,0,0,2.13,1.14,13.73,13.73,0,0,0,2.5.75,14.1,14.1,0,0,0,2.81.27,8.73,8.73,0,0,0,4.77-1.1,3.68,3.68,0,0,0,1.71-3.33,3.83,3.83,0,0,0-.49-2,4.21,4.21,0,0,0-1.46-1.41,10.27,10.27,0,0,0-2.41-1c-1-.29-2.08-.58-3.35-.87s-2.52-.63-3.53-1a9.63,9.63,0,0,1-2.55-1.26,4.86,4.86,0,0,1-1.57-1.82,5.84,5.84,0,0,1-.52-2.61,7.14,7.14,0,0,1,.67-3.15,6.12,6.12,0,0,1,1.89-2.3,9,9,0,0,1,2.88-1.41,13.1,13.1,0,0,1,3.67-.48,12.65,12.65,0,0,1,4.55.77,12.27,12.27,0,0,1,3.62,2.18Z"/><path d="M1115.23,91.11l-.63.29q-.42.18-1,.36a11.83,11.83,0,0,1-1.22.32,6.77,6.77,0,0,1-1.44.14,5.35,5.35,0,0,1-1.51-.21,3.63,3.63,0,0,1-1.26-.67,3.39,3.39,0,0,1-.87-1.13,3.79,3.79,0,0,1-.32-1.59V75.2h-2.59v-2H1107V66.92h2.45v6.33h4.32v2h-4.32V87.94a1.92,1.92,0,0,0,.74,1.53,2.54,2.54,0,0,0,1.53.49,4.56,4.56,0,0,0,1.83-.35,7.72,7.72,0,0,0,1-.48Z"/><path d="M1125.92,92.37a8.94,8.94,0,0,1-3.76-.78,9.12,9.12,0,0,1-3-2.12,9.77,9.77,0,0,1-2-3.11,10.12,10.12,0,0,1-.71-3.78,9.9,9.9,0,0,1,.71-3.73,9.55,9.55,0,0,1,1.94-3.06,9.28,9.28,0,0,1,3-2.09,9.13,9.13,0,0,1,10.44,2.11,9.85,9.85,0,0,1,2.59,6.73v.58a1.67,1.67,0,0,1,0,.39h-16.06a7.83,7.83,0,0,0,2.23,5,6.76,6.76,0,0,0,2.14,1.45,6.4,6.4,0,0,0,2.58.53,6.58,6.58,0,0,0,1.8-.26,6.73,6.73,0,0,0,1.65-.68,6.13,6.13,0,0,0,1.37-1.06,4.55,4.55,0,0,0,.94-1.39l2.12.58a6.25,6.25,0,0,1-1.22,1.89,8.62,8.62,0,0,1-1.84,1.47,9.11,9.11,0,0,1-2.3,1A10.36,10.36,0,0,1,1125.92,92.37Zm6.91-10.73a7.57,7.57,0,0,0-2.21-4.9,6.68,6.68,0,0,0-2.13-1.4,6.51,6.51,0,0,0-2.57-.5,6.64,6.64,0,0,0-2.59.5,6.77,6.77,0,0,0-2.15,1.4,6.88,6.88,0,0,0-1.47,2.16,8.48,8.48,0,0,0-.67,2.74Z"/><path d="M1148.53,92.37a7.37,7.37,0,0,1-4.2-1.21,9.55,9.55,0,0,1-2.93-3V99.68H1139V73.25h2.2v3.64a8.9,8.9,0,0,1,3-2.86,7.54,7.54,0,0,1,4-1.1,7.83,7.83,0,0,1,3.56.81,9.15,9.15,0,0,1,2.81,2.16,10.05,10.05,0,0,1,1.86,3.11,10.32,10.32,0,0,1,.66,3.64,11.24,11.24,0,0,1-.61,3.74,9.69,9.69,0,0,1-1.74,3.1,8.35,8.35,0,0,1-2.7,2.1A7.65,7.65,0,0,1,1148.53,92.37Zm-.69-2.16a5.91,5.91,0,0,0,2.76-.65,6.78,6.78,0,0,0,2.12-1.71,7.61,7.61,0,0,0,1.35-2.41,8.51,8.51,0,0,0,.47-2.79,7.92,7.92,0,0,0-2-5.29,7,7,0,0,0-2.21-1.66,6.25,6.25,0,0,0-2.75-.61,5.54,5.54,0,0,0-2,.38,8.09,8.09,0,0,0-1.91,1,7.07,7.07,0,0,0-1.51,1.48,3.9,3.9,0,0,0-.77,1.78v5.76a8.35,8.35,0,0,0,1.1,1.87,7.4,7.4,0,0,0,1.51,1.5,7.15,7.15,0,0,0,1.82,1A5.76,5.76,0,0,0,1147.84,90.21Z"/><path d="M1177.61,80.78a8.81,8.81,0,0,1,3.28.59,8.17,8.17,0,0,1,2.65,1.67,7.83,7.83,0,0,1,1.78,2.58,8.19,8.19,0,0,1,.65,3.29,8.55,8.55,0,0,1-.7,3.48,8,8,0,0,1-1.91,2.66,8.89,8.89,0,0,1-2.83,1.71,10.15,10.15,0,0,1-6.07.27,8.8,8.8,0,0,1-2.28-1,9.08,9.08,0,0,1-1.89-1.55,8.2,8.2,0,0,1-1.39-2l1.62-1.23a7.85,7.85,0,0,0,2.76,2.85,7.13,7.13,0,0,0,3.83,1.08,6.8,6.8,0,0,0,2.49-.45,6.21,6.21,0,0,0,2-1.28,5.71,5.71,0,0,0,1.35-2,6.51,6.51,0,0,0,.49-2.52,6.16,6.16,0,0,0-.47-2.43,5.7,5.7,0,0,0-1.3-1.89,5.83,5.83,0,0,0-1.94-1.23,6.83,6.83,0,0,0-2.41-.43,7.15,7.15,0,0,0-3.19.74,6.12,6.12,0,0,0-2.43,2.14h-2.27c0-.14.09-.47.18-1l.36-1.8c.15-.7.3-1.47.47-2.32s.34-1.71.5-2.58c.41-2,.86-4.26,1.34-6.73h12.35v2.27h-10.52l-1.76,9.18a6.5,6.5,0,0,1,2.28-1.57A7.74,7.74,0,0,1,1177.61,80.78Z"/><path d="M355.35,169.33a7.92,7.92,0,0,0-2.88-2,10.59,10.59,0,0,0-4.1-.75q-3.39,0-4.93,1.27a4.26,4.26,0,0,0-1.55,3.48,3.89,3.89,0,0,0,.41,1.89,3.64,3.64,0,0,0,1.28,1.28,8.84,8.84,0,0,0,2.21.93c.9.27,2,.53,3.19.79a34.76,34.76,0,0,1,3.69,1,10.65,10.65,0,0,1,2.79,1.35,5.59,5.59,0,0,1,1.77,2,6.2,6.2,0,0,1,.61,2.88,6.46,6.46,0,0,1-.69,3.06,6.14,6.14,0,0,1-1.9,2.16,8.75,8.75,0,0,1-2.92,1.28,16,16,0,0,1-3.71.41,15.25,15.25,0,0,1-10.26-3.71l1.26-2.05a9.91,9.91,0,0,0,1.64,1.37,11.5,11.5,0,0,0,2.12,1.13,13.22,13.22,0,0,0,2.5.76,14.18,14.18,0,0,0,2.81.27,8.81,8.81,0,0,0,4.77-1.1,3.68,3.68,0,0,0,1.71-3.33,3.87,3.87,0,0,0-.48-2,4.19,4.19,0,0,0-1.46-1.4,10.26,10.26,0,0,0-2.41-1c-1-.29-2.08-.57-3.35-.86s-2.52-.64-3.53-1a9.7,9.7,0,0,1-2.56-1.26,5,5,0,0,1-1.56-1.82,5.87,5.87,0,0,1-.52-2.61,7.21,7.21,0,0,1,.66-3.15,6.34,6.34,0,0,1,1.89-2.31,9,9,0,0,1,2.88-1.4,13.19,13.19,0,0,1,3.67-.49,12.45,12.45,0,0,1,4.56.78,12.06,12.06,0,0,1,3.62,2.18Z"/><path d="M370.54,189.2c-.14.08-.35.17-.63.29s-.59.24-1,.36a12.42,12.42,0,0,1-1.22.33,7.48,7.48,0,0,1-1.44.14,5.08,5.08,0,0,1-1.52-.22,3.45,3.45,0,0,1-1.26-.66,3.3,3.3,0,0,1-.86-1.14,3.57,3.57,0,0,1-.32-1.58V173.29h-2.6v-1.94h2.6V165h2.44v6.34h4.32v1.94h-4.32V186a2,2,0,0,0,.74,1.53,2.58,2.58,0,0,0,1.53.48,4.58,4.58,0,0,0,1.84-.34,8,8,0,0,0,1-.49Z"/><path d="M381.24,190.46a9,9,0,0,1-3.77-.77,9.27,9.27,0,0,1-3-2.12,9.88,9.88,0,0,1-2-3.12,10,10,0,0,1-.7-3.78,9.81,9.81,0,0,1,.7-3.72,9.53,9.53,0,0,1,1.95-3.06A9.34,9.34,0,0,1,385,171.8a9,9,0,0,1,2.94,2.1,10,10,0,0,1,2.59,6.74v.57a1.24,1.24,0,0,1,0,.4H374.4a7.75,7.75,0,0,0,.7,2.79,7.4,7.4,0,0,0,1.53,2.21,6.79,6.79,0,0,0,2.14,1.46,6.35,6.35,0,0,0,2.57.52,6.57,6.57,0,0,0,1.8-.25,7.7,7.7,0,0,0,1.66-.68,6.41,6.41,0,0,0,1.37-1.07,4.42,4.42,0,0,0,.93-1.38l2.13.57a6.16,6.16,0,0,1-1.23,1.89,8.3,8.3,0,0,1-1.83,1.48,9.16,9.16,0,0,1-2.31,1A9.86,9.86,0,0,1,381.24,190.46Zm6.91-10.72a7.69,7.69,0,0,0-.7-2.76,7.4,7.4,0,0,0-1.52-2.14,6.58,6.58,0,0,0-2.12-1.4,6.51,6.51,0,0,0-2.57-.51,6.7,6.7,0,0,0-2.6.51,6.56,6.56,0,0,0-2.14,1.4A6.88,6.88,0,0,0,375,177a7.94,7.94,0,0,0-.67,2.74Z"/><path d="M403.84,190.46a7.43,7.43,0,0,1-4.19-1.2,9.66,9.66,0,0,1-2.93-3v11.55h-2.45V171.35h2.19V175a9.19,9.19,0,0,1,3-2.86,7.7,7.7,0,0,1,4-1.1,7.86,7.86,0,0,1,3.56.81,9.15,9.15,0,0,1,2.81,2.16,10,10,0,0,1,1.85,3.12,10.06,10.06,0,0,1,.67,3.63,11.34,11.34,0,0,1-.61,3.75,9.48,9.48,0,0,1-1.75,3.09,8.31,8.31,0,0,1-2.7,2.11A7.59,7.59,0,0,1,403.84,190.46Zm-.68-2.16a5.84,5.84,0,0,0,2.75-.64A7.11,7.11,0,0,0,408,186a7.66,7.66,0,0,0,1.35-2.42,8.51,8.51,0,0,0,.47-2.79,7.83,7.83,0,0,0-.54-2.88,8.11,8.11,0,0,0-1.48-2.41,6.92,6.92,0,0,0-2.21-1.65,6.3,6.3,0,0,0-2.76-.62,5.71,5.71,0,0,0-2,.38,8.13,8.13,0,0,0-1.91,1,6.63,6.63,0,0,0-1.51,1.48,3.85,3.85,0,0,0-.77,1.78v5.76a8.54,8.54,0,0,0,1.09,1.87,7.65,7.65,0,0,0,1.52,1.49,7.26,7.26,0,0,0,1.81,1A5.77,5.77,0,0,0,403.16,188.3Z"/><path d="M424.54,190.1a14.79,14.79,0,0,1,.22-2.46,8.53,8.53,0,0,1,.85-2.47,9.32,9.32,0,0,1,1.8-2.36,13.16,13.16,0,0,1,3.11-2.14c.7-.36,1.42-.71,2.18-1.06a15.5,15.5,0,0,0,2.09-1.17,6.64,6.64,0,0,0,1.56-1.46,3,3,0,0,0,.61-1.89,3.3,3.3,0,0,0-.3-1.35,3.79,3.79,0,0,0-.9-1.19,4.7,4.7,0,0,0-1.48-.84,5.91,5.91,0,0,0-2.07-.33,6.08,6.08,0,0,0-2.12.35,7,7,0,0,0-1.64.81,7.2,7.2,0,0,0-1.21,1c-.33.34-.58.63-.75.84l-1.62-1.76c.14-.15.42-.41.83-.79a8.51,8.51,0,0,1,1.6-1.16,12.91,12.91,0,0,1,2.32-1,9.3,9.3,0,0,1,3-.45,9,9,0,0,1,2.95.45,6.54,6.54,0,0,1,2.2,1.24,5.31,5.31,0,0,1,1.36,1.82,5,5,0,0,1,.47,2.14,4.83,4.83,0,0,1-.65,2.56,7.18,7.18,0,0,1-1.6,1.87,10.86,10.86,0,0,1-2,1.35c-.72.37-1.37.69-1.95.95q-1.14.51-2.25,1.14a12.64,12.64,0,0,0-2,1.38,7.29,7.29,0,0,0-1.42,1.69,4,4,0,0,0-.56,2.09H440v2.23Z"/><path d="M847.62,169.33a7.92,7.92,0,0,0-2.88-2,10.56,10.56,0,0,0-4.1-.75q-3.39,0-4.93,1.27a4.29,4.29,0,0,0-1.55,3.48,3.89,3.89,0,0,0,.41,1.89,3.73,3.73,0,0,0,1.28,1.28,8.93,8.93,0,0,0,2.22.93c.9.27,2,.53,3.18.79a34.76,34.76,0,0,1,3.69,1,10.65,10.65,0,0,1,2.79,1.35,5.59,5.59,0,0,1,1.77,2,6.2,6.2,0,0,1,.61,2.88,6.46,6.46,0,0,1-.69,3.06,6.14,6.14,0,0,1-1.9,2.16,8.75,8.75,0,0,1-2.92,1.28,15.91,15.91,0,0,1-3.71.41,15.25,15.25,0,0,1-10.26-3.71l1.26-2.05a9.91,9.91,0,0,0,1.64,1.37,11.83,11.83,0,0,0,2.12,1.13,13.1,13.1,0,0,0,2.51.76,14,14,0,0,0,2.8.27,8.81,8.81,0,0,0,4.77-1.1,3.68,3.68,0,0,0,1.71-3.33,3.87,3.87,0,0,0-.48-2,4.19,4.19,0,0,0-1.46-1.4,10.26,10.26,0,0,0-2.41-1c-1-.29-2.08-.57-3.35-.86s-2.52-.64-3.53-1a9.48,9.48,0,0,1-2.55-1.26,4.94,4.94,0,0,1-1.57-1.82,5.87,5.87,0,0,1-.52-2.61,7.21,7.21,0,0,1,.66-3.15,6.34,6.34,0,0,1,1.89-2.31,9,9,0,0,1,2.88-1.4,13.21,13.21,0,0,1,3.68-.49,12.44,12.44,0,0,1,4.55.78,12.06,12.06,0,0,1,3.62,2.18Z"/><path d="M862.82,189.2c-.15.08-.36.17-.63.29s-.6.24-1,.36a12.42,12.42,0,0,1-1.22.33,7.48,7.48,0,0,1-1.44.14,5,5,0,0,1-1.51-.22,3.45,3.45,0,0,1-1.26-.66,3.33,3.33,0,0,1-.87-1.14,3.71,3.71,0,0,1-.32-1.58V173.29H852v-1.94h2.59V165h2.45v6.34h4.32v1.94h-4.32V186a2,2,0,0,0,.73,1.53,2.58,2.58,0,0,0,1.53.48,4.58,4.58,0,0,0,1.84-.34,8,8,0,0,0,1-.49Z"/><path d="M873.51,190.46a8.94,8.94,0,0,1-3.76-.77,9.27,9.27,0,0,1-3-2.12,9.9,9.9,0,0,1-2-3.12,10.24,10.24,0,0,1-.7-3.78,10,10,0,0,1,.7-3.72,9.53,9.53,0,0,1,2-3.06,9.12,9.12,0,0,1,3-2.09,9.16,9.16,0,0,1,10.44,2.1,9.85,9.85,0,0,1,2.59,6.74v.57a1.24,1.24,0,0,1,0,.4H866.67a7.78,7.78,0,0,0,2.23,5,6.79,6.79,0,0,0,2.14,1.46,6.4,6.4,0,0,0,2.58.52,6.57,6.57,0,0,0,1.8-.25,7.62,7.62,0,0,0,1.65-.68,6.17,6.17,0,0,0,1.37-1.07,4.64,4.64,0,0,0,.94-1.38l2.12.57a6.32,6.32,0,0,1-1.22,1.89,8.36,8.36,0,0,1-1.84,1.48,9.09,9.09,0,0,1-2.3,1A9.93,9.93,0,0,1,873.51,190.46Zm6.91-10.72a7.69,7.69,0,0,0-.7-2.76,7.57,7.57,0,0,0-1.51-2.14,6.62,6.62,0,0,0-2.13-1.4,6.51,6.51,0,0,0-2.57-.51,6.84,6.84,0,0,0-4.74,1.91A6.88,6.88,0,0,0,867.3,177a8.17,8.17,0,0,0-.67,2.74Z"/><path d="M896.12,190.46a7.44,7.44,0,0,1-4.2-1.2,9.66,9.66,0,0,1-2.93-3v11.55h-2.45V171.35h2.2V175a9.06,9.06,0,0,1,3-2.86,7.7,7.7,0,0,1,4-1.1,7.83,7.83,0,0,1,3.56.81,9.15,9.15,0,0,1,2.81,2.16,10.29,10.29,0,0,1,2.52,6.75,11.34,11.34,0,0,1-.61,3.75,9.48,9.48,0,0,1-1.75,3.09,8.31,8.31,0,0,1-2.7,2.11A7.57,7.57,0,0,1,896.12,190.46Zm-.69-2.16a5.91,5.91,0,0,0,2.76-.64,7.2,7.2,0,0,0,2.12-1.71,7.66,7.66,0,0,0,1.35-2.42,8.51,8.51,0,0,0,.47-2.79,7.92,7.92,0,0,0-2-5.29,6.92,6.92,0,0,0-2.21-1.65,6.27,6.27,0,0,0-2.76-.62,5.76,5.76,0,0,0-2,.38,8.13,8.13,0,0,0-1.91,1,6.84,6.84,0,0,0-1.51,1.48,3.85,3.85,0,0,0-.77,1.78v5.76a8.58,8.58,0,0,0,1.1,1.87A7.35,7.35,0,0,0,891.6,187a7.15,7.15,0,0,0,1.82,1A5.72,5.72,0,0,0,895.43,188.3Z"/><path d="M928.05,194.68v-6.41h-12v-2.16l12.78-16.56h1.66V186h3.16v2.23H930.5v6.41Zm-9.4-8.64h9.65V173.4Z"/><path d="M1340.66,169.33a7.92,7.92,0,0,0-2.88-2,10.59,10.59,0,0,0-4.1-.75c-2.26,0-3.9.42-4.94,1.27a4.28,4.28,0,0,0-1.54,3.48,3.78,3.78,0,0,0,.41,1.89,3.64,3.64,0,0,0,1.28,1.28,8.84,8.84,0,0,0,2.21.93c.9.27,2,.53,3.19.79a34.76,34.76,0,0,1,3.69,1,10.65,10.65,0,0,1,2.79,1.35,5.56,5.56,0,0,1,1.76,2,6.08,6.08,0,0,1,.61,2.88,6.45,6.45,0,0,1-.68,3.06,6.17,6.17,0,0,1-1.91,2.16,8.6,8.6,0,0,1-2.91,1.28,16,16,0,0,1-3.71.41,15.25,15.25,0,0,1-10.26-3.71l1.26-2.05a9.52,9.52,0,0,0,1.64,1.37,11.5,11.5,0,0,0,2.12,1.13,13,13,0,0,0,2.5.76,14.18,14.18,0,0,0,2.81.27,8.81,8.81,0,0,0,4.77-1.1,3.68,3.68,0,0,0,1.71-3.33,3.78,3.78,0,0,0-.49-2,4.15,4.15,0,0,0-1.45-1.4,10.35,10.35,0,0,0-2.42-1c-1-.29-2.07-.57-3.34-.86s-2.52-.64-3.53-1a9.7,9.7,0,0,1-2.56-1.26,4.91,4.91,0,0,1-1.56-1.82,5.86,5.86,0,0,1-.53-2.61,7.22,7.22,0,0,1,.67-3.15,6.15,6.15,0,0,1,1.89-2.31,9,9,0,0,1,2.88-1.4,13.14,13.14,0,0,1,3.67-.49,12.49,12.49,0,0,1,4.56.78,12.06,12.06,0,0,1,3.62,2.18Z"/><path d="M1355.85,189.2c-.14.08-.35.17-.63.29s-.59.24-1,.36a11.93,11.93,0,0,1-1.23.33,7.33,7.33,0,0,1-1.44.14,5.06,5.06,0,0,1-1.51-.22,3.45,3.45,0,0,1-1.26-.66,3.18,3.18,0,0,1-.86-1.14,3.57,3.57,0,0,1-.33-1.58V173.29h-2.59v-1.94h2.59V165h2.45v6.34h4.32v1.94h-4.32V186a2,2,0,0,0,.74,1.53,2.53,2.53,0,0,0,1.53.48,4.58,4.58,0,0,0,1.84-.34,7.61,7.61,0,0,0,1-.49Z"/><path d="M1366.54,190.46a9,9,0,0,1-3.76-.77,9.27,9.27,0,0,1-3-2.12,9.88,9.88,0,0,1-2-3.12,10,10,0,0,1-.7-3.78,9.81,9.81,0,0,1,.7-3.72,9.67,9.67,0,0,1,1.94-3.06,9.12,9.12,0,0,1,3-2.09,9.43,9.43,0,0,1,7.51,0,8.88,8.88,0,0,1,2.93,2.1,9.69,9.69,0,0,1,1.91,3.06,9.87,9.87,0,0,1,.69,3.68v.57a1.62,1.62,0,0,1,0,.4H1359.7a8,8,0,0,0,.71,2.79,7.4,7.4,0,0,0,1.53,2.21,6.67,6.67,0,0,0,2.14,1.46,6.35,6.35,0,0,0,2.57.52,6.57,6.57,0,0,0,1.8-.25,7.92,7.92,0,0,0,1.66-.68,6.41,6.41,0,0,0,1.37-1.07,4.6,4.6,0,0,0,.93-1.38l2.13.57a6.16,6.16,0,0,1-1.23,1.89,8.54,8.54,0,0,1-1.83,1.48,9.16,9.16,0,0,1-2.31,1A9.88,9.88,0,0,1,1366.54,190.46Zm6.92-10.72a7.69,7.69,0,0,0-.71-2.76,7.38,7.38,0,0,0-1.51-2.14,6.7,6.7,0,0,0-4.7-1.91,6.68,6.68,0,0,0-2.59.51,6.56,6.56,0,0,0-2.14,1.4,7.08,7.08,0,0,0-1.48,2.16,8.16,8.16,0,0,0-.66,2.74Z"/><path d="M1389.15,190.46a7.43,7.43,0,0,1-4.19-1.2,9.8,9.8,0,0,1-2.94-3v11.55h-2.44V171.35h2.19V175a9.19,9.19,0,0,1,3-2.86,7.67,7.67,0,0,1,4-1.1,7.86,7.86,0,0,1,3.56.81,9.15,9.15,0,0,1,2.81,2.16,10,10,0,0,1,1.85,3.12,10.06,10.06,0,0,1,.67,3.63,11.61,11.61,0,0,1-.61,3.75,9.48,9.48,0,0,1-1.75,3.09,8.52,8.52,0,0,1-2.7,2.11A7.59,7.59,0,0,1,1389.15,190.46Zm-.68-2.16a5.87,5.87,0,0,0,2.75-.64,7.11,7.11,0,0,0,2.13-1.71,8.07,8.07,0,0,0,1.35-2.42,8.5,8.5,0,0,0,.46-2.79,7.83,7.83,0,0,0-.54-2.88,8.08,8.08,0,0,0-1.47-2.41,7,7,0,0,0-2.22-1.65,6.26,6.26,0,0,0-2.75-.62,5.71,5.71,0,0,0-2,.38,7.93,7.93,0,0,0-1.91,1,6.63,6.63,0,0,0-1.51,1.48,4,4,0,0,0-.78,1.78v5.76a9,9,0,0,0,1.1,1.87,7.88,7.88,0,0,0,1.51,1.49,7.32,7.32,0,0,0,1.82,1A5.77,5.77,0,0,0,1388.47,188.3Z"/><path d="M1428.39,181.68a8.47,8.47,0,0,1-.7,3.44,8.66,8.66,0,0,1-1.93,2.79,9,9,0,0,1-2.88,1.87,9.14,9.14,0,0,1-3.56.68,9.23,9.23,0,0,1-3.71-.73,8.35,8.35,0,0,1-2.9-2.11,9.9,9.9,0,0,1-1.89-3.37,13.91,13.91,0,0,1-.68-4.48,30.09,30.09,0,0,1,.68-6.78,15.46,15.46,0,0,1,1.93-4.83,8.24,8.24,0,0,1,3-2.86,8,8,0,0,1,3.85-.94,8.42,8.42,0,0,1,4.57,1.26,8,8,0,0,1,3.06,3.5l-1.58,1.44a6.45,6.45,0,0,0-6-4,5.68,5.68,0,0,0-2.88.76,6.56,6.56,0,0,0-2.21,2.18A11.81,11.81,0,0,0,1413,173a19.34,19.34,0,0,0-.52,4.71,6.77,6.77,0,0,1,2.71-3.38,7.85,7.85,0,0,1,4.38-1.26,8.87,8.87,0,0,1,6.23,2.5,8.69,8.69,0,0,1,1.87,2.76A8.5,8.5,0,0,1,1428.39,181.68Zm-9,6.62a6.43,6.43,0,0,0,2.58-.52,7,7,0,0,0,2.12-1.42,6.59,6.59,0,0,0,1.44-2.11,6.35,6.35,0,0,0,.52-2.57,6.2,6.2,0,0,0-.54-2.57,6.65,6.65,0,0,0-1.46-2.11,7,7,0,0,0-2.12-1.42,6.64,6.64,0,0,0-5.15,0,7,7,0,0,0-2.12,1.42,6.59,6.59,0,0,0-1.44,2.11,6.35,6.35,0,0,0-.52,2.57,6.16,6.16,0,0,0,.54,2.56,7.11,7.11,0,0,0,1.45,2.1,6.91,6.91,0,0,0,2.13,1.44A6.35,6.35,0,0,0,1419.39,188.3Z"/><path d="M235,48.59s.37,6.07-10.7,7.59c0,0,12.61,2.66,19.49-7.59S235,48.59,235,48.59Z" fill="#363347"/><ellipse cx="251.53" cy="30.7" rx="32.58" ry="23.12" fill="#363347"/><circle cx="243.14" cy="34.56" r="2.39" fill="#fff"/><circle cx="251.53" cy="34.56" r="2.39" fill="#fff"/><circle cx="259.97" cy="34.56" r="2.39" fill="#fff"/><path d="M337.57,75.58s-.36,6.08,10.7,7.6c0,0-12.6,2.66-19.48-7.6S337.57,75.58,337.57,75.58Z" fill="#363347"/><ellipse cx="321.04" cy="57.68" rx="32.58" ry="23.12" fill="#363347"/><circle cx="329.43" cy="61.54" r="2.39" fill="#fff"/><circle cx="321.04" cy="61.54" r="2.39" fill="#fff"/><circle cx="312.6" cy="61.54" r="2.39" fill="#fff"/><rect x="479.45" y="183.13" width="51.78" height="80.59" rx="3.93" ry="3.93" fill="#363347"/><path d="M488.13,201.13h34.74a.49.49,0,0,1,.5.49h0a.49.49,0,0,1-.5.49H488.13a.49.49,0,0,1-.49-.49h0A.49.49,0,0,1,488.13,201.13Z" fill="#fff"/><path d="M488.13,207h34.74a.49.49,0,0,1,.5.49h0a.49.49,0,0,1-.5.49H488.13a.49.49,0,0,1-.49-.49h0A.49.49,0,0,1,488.13,207Z" fill="#fff"/><path d="M488.13,212.27h34.74a.49.49,0,0,1,.5.49h0a.49.49,0,0,1-.5.49H488.13a.49.49,0,0,1-.49-.49h0A.49.49,0,0,1,488.13,212.27Z" fill="#fff"/><path d="M488.13,217.51h34.74a.5.5,0,0,1,.5.5h0a.49.49,0,0,1-.5.49H488.13a.49.49,0,0,1-.49-.49h0A.49.49,0,0,1,488.13,217.51Z" fill="#fff"/><path d="M488.13,222.76h34.74a.49.49,0,0,1,.5.49h0a.49.49,0,0,1-.5.49H488.13a.49.49,0,0,1-.49-.49h0A.49.49,0,0,1,488.13,222.76Z" fill="#fff"/><path d="M488.13,228h34.74a.49.49,0,0,1,.5.49h0a.49.49,0,0,1-.5.49H488.13a.49.49,0,0,1-.49-.49h0A.49.49,0,0,1,488.13,228Z" fill="#fff"/><path d="M488.13,233.25h34.74a.49.49,0,0,1,.5.49h0a.49.49,0,0,1-.5.49H488.13a.49.49,0,0,1-.49-.49h0A.49.49,0,0,1,488.13,233.25Z" fill="#fff"/><path d="M488.13,238.49h34.74a.49.49,0,0,1,.5.49h0a.49.49,0,0,1-.5.49H488.13a.49.49,0,0,1-.49-.49h0A.49.49,0,0,1,488.13,238.49Z" fill="#fff"/><path d="M488.13,243.73h34.74a.5.5,0,0,1,.5.5h0a.49.49,0,0,1-.5.49H488.13a.49.49,0,0,1-.49-.49h0A.49.49,0,0,1,488.13,243.73Z" fill="#fff"/><path d="M512.69,227.35l1.57-2.93a79.72,79.72,0,0,1,4.91-12.52l9.39-16.59a3.72,3.72,0,0,1,5.43-1.25c3.65,2.09,2.71,4.38,2.71,4.38l-11.17,20.12s-4.38,5.76-7.08,8.79l-1.46,2.5Z" fill="#bbb8d0"/><polygon points="512.17 228.08 508.42 230.9 508.42 239.24 508.89 239.56 516.14 235.12 516.56 230.48 512.17 228.08" fill="#bbb8d0"/><path d="M508.52,239.35l3.39-5.85s-1-1.77,1-1.51c0,0,1.32,1.36-.62,1.57l-3.45,6.1Z" fill="#fff"/><polygon points="512.12 227.97 512.59 227.45 516.87 229.85 516.61 230.53 512.12 227.97" fill="#fff"/><polygon points="515.3 222.71 517.75 216.39 523.75 219.83 519.53 225.16 515.3 222.71" fill="#fff"/><path d="M522.29,213.84l8.77-15.45a.83.83,0,0,1,1.08-.47h0c.84.26-.26,1.72-.26,1.72l-8.4,15a1.31,1.31,0,0,1-1.2.68S521.46,214.72,522.29,213.84Z" fill="#fff"/><rect x="691.05" y="33.05" width="76.28" height="15.17" transform="translate(349.65 664.59) rotate(-61.88)" fill="#363347"/><line x1="742.3" y1="9.07" x2="738.53" y2="7.05" fill="none" stroke="#fff" stroke-miterlimit="10" stroke-width="2"/><line x1="740.36" y1="12.69" x2="736.6" y2="10.68" fill="none" stroke="#fff" stroke-miterlimit="10" stroke-width="2"/><line x1="738.43" y1="16.32" x2="734.66" y2="14.31" fill="none" stroke="#fff" stroke-miterlimit="10" stroke-width="2"/><line x1="736.49" y1="19.95" x2="732.72" y2="17.94" fill="none" stroke="#fff" stroke-miterlimit="10" stroke-width="2"/><line x1="736.53" y1="24.63" x2="730.78" y2="21.56" fill="none" stroke="#fff" stroke-miterlimit="10" stroke-width="2"/><line x1="732.61" y1="27.2" x2="728.84" y2="25.19" fill="none" stroke="#fff" stroke-miterlimit="10" stroke-width="2"/><line x1="730.67" y1="30.83" x2="726.9" y2="28.82" fill="none" stroke="#fff" stroke-miterlimit="10" stroke-width="2"/><line x1="728.94" y1="34.08" x2="725.17" y2="32.06" fill="none" stroke="#fff" stroke-miterlimit="10" stroke-width="2"/><line x1="727.2" y1="37.32" x2="723.44" y2="35.3" fill="none" stroke="#fff" stroke-miterlimit="10" stroke-width="2"/><line x1="727.45" y1="41.62" x2="721.7" y2="38.55" fill="none" stroke="#fff" stroke-miterlimit="10" stroke-width="2"/><line x1="723.74" y1="43.8" x2="719.97" y2="41.79" fill="none" stroke="#fff" stroke-miterlimit="10" stroke-width="2"/><line x1="722.01" y1="47.05" x2="718.24" y2="45.03" fill="none" stroke="#fff" stroke-miterlimit="10" stroke-width="2"/><line x1="720.27" y1="50.29" x2="716.5" y2="48.28" fill="none" stroke="#fff" stroke-miterlimit="10" stroke-width="2"/><line x1="718.54" y1="53.53" x2="714.77" y2="51.52" fill="none" stroke="#fff" stroke-miterlimit="10" stroke-width="2"/><line x1="718.79" y1="57.83" x2="713.04" y2="54.76" fill="none" stroke="#fff" stroke-miterlimit="10" stroke-width="2"/><line x1="715.07" y1="60.02" x2="711.3" y2="58" fill="none" stroke="#fff" stroke-miterlimit="10" stroke-width="2"/><line x1="713.34" y1="63.26" x2="709.57" y2="61.25" fill="none" stroke="#fff" stroke-miterlimit="10" stroke-width="2"/><line x1="711.61" y1="66.5" x2="707.84" y2="64.49" fill="none" stroke="#fff" stroke-miterlimit="10" stroke-width="2"/><line x1="709.87" y1="69.75" x2="706.11" y2="67.73" fill="none" stroke="#fff" stroke-miterlimit="10" stroke-width="2"/><path d="M991.59,245.87v8.53a8.93,8.93,0,0,1-5.16,5.16c-4,1.57-2.92,2.25-2.92,2.25h14.11V245.87Z" fill="#363347"/><path d="M1003.56,245.87v8.53a8.87,8.87,0,0,0,5.16,5.16c4,1.57,2.92,2.25,2.92,2.25H997.5V245.87Z" fill="#363347"/><rect x="951.96" y="184.69" width="92.17" height="63.89" rx="6.61" ry="6.61" fill="#363347"/><path d="M952,239.22h92.18v4.88s0,3.5-5.33,4.5H958.57s-6.61.63-6.61-4.5Z" fill="#fff"/><rect x="956.92" y="190.2" width="82.44" height="45.9" fill="#585757"/><polygon points="992.35 190.2 1036.79 236.1 1039.36 236.1 1039.36 190.2 992.35 190.2" fill="#404040"/><circle cx="997.64" cy="243.77" r="2.71" fill="#363347"/><circle cx="1246.27" cy="27.73" r="19.77" fill="#363347"/><path d="M1239.57,10.23a11.73,11.73,0,0,1,2.78-7.78S1244.52.22,1246,0l-.58,9Z" fill="#363347"/><path d="M1245.54,9.18a11.76,11.76,0,0,1,4.59-6.89s2.64-1.63,4.18-1.47l-2.75,8.6Z" fill="#363347"/><path d="M1251.15,9.69a11.72,11.72,0,0,1,6.92-4.53s3.07-.47,4.42.28l-5.9,6.83Z" fill="#363347"/><path d="M1256.6,12.51a11.69,11.69,0,0,1,8-2.18s3.07.5,4.13,1.62L1261,16.64Z" fill="#363347"/><path d="M1234.12,13.08a11.72,11.72,0,0,1,.88-8.23s1.59-2.67,3-3.24l1.54,8.89Z" fill="#363347"/><path d="M1230,17.74a11.8,11.8,0,0,1-1.79-8.08s.66-3,1.83-4l4.3,7.94Z" fill="#363347"/><path d="M1264.21,33.53a11.72,11.72,0,0,1,4.62,6.86s.5,3.07-.23,4.43L1261.7,39Z" fill="#363347"/><path d="M1261.52,39a11.73,11.73,0,0,1,2.81,7.77s-.26,3.1-1.3,4.24l-5.28-7.32Z" fill="#363347"/><path d="M1257.77,43.17a11.75,11.75,0,0,1-.45,8.26s-1.45,2.75-2.86,3.4l-2-8.81Z" fill="#363347"/><path d="M1252.27,45.89a11.76,11.76,0,0,1-3,7.72s-2.22,2.17-3.76,2.35l.81-9Z" fill="#363347"/><path d="M1265.16,27.46a11.71,11.71,0,0,1,6.1,5.59s1.2,2.86.81,4.37l-8.07-4Z" fill="#363347"/><path d="M1263.87,21.36a11.71,11.71,0,0,1,7.55,3.36s2.06,2.33,2.17,3.86l-8.95-1.25Z" fill="#363347"/><path d="M1260.7,16.37a11.74,11.74,0,0,1,8.26-.1s2.85,1.26,3.59,2.62l-8.65,2.58Z" fill="#363347"/><path d="M1230.65,38.89a11.72,11.72,0,0,1-8.26-.4s-2.76-1.43-3.41-2.83l8.79-2Z" fill="#363347"/><path d="M1227.9,33.48a11.72,11.72,0,0,1-7.91-2.39s-2.33-2.06-2.62-3.57l9,.14Z" fill="#363347"/><path d="M1226.77,28a11.7,11.7,0,0,1-6.34-5.31s-1.35-2.8-1-4.31l8.26,3.66Z" fill="#363347"/><path d="M1227.88,21.93a11.76,11.76,0,0,1-4.41-7s-.41-3.08.36-4.42l6.73,6Z" fill="#363347"/><path d="M1235,43.28a11.76,11.76,0,0,1-8.12,1.55s-3-.75-4-1.95l8.05-4.06Z" fill="#363347"/><path d="M1240.61,45.89a11.7,11.7,0,0,1-7.2,4s-3.1.26-4.4-.58l6.35-6.41Z" fill="#363347"/><path d="M1246.51,46.33a11.72,11.72,0,0,1-4.87,6.69s-2.71,1.52-4.24,1.31l3.1-8.49Z" fill="#363347"/><circle cx="1245.87" cy="28.78" r="17.1" fill="#fff"/><circle cx="1245.87" cy="28.7" r="3.73"/><rect x="1196.08" y="27.97" width="92.43" height="13.97" rx="1.76" ry="1.76"/><rect x="1199.93" y="12.8" width="45.83" height="18.26" rx="1.98" ry="1.98"/><rect x="1198.97" y="29.3" width="87.98" height="11" rx="1.38" ry="1.38" fill="#363347"/><path d="M1205.75,18v4.08H1215a3.64,3.64,0,0,0,3.42-4.08Z" fill="#363347"/><path d="M1205.75,25.2v2.5h36.54V26.45h-11.51s-2.42-1.5,0-3.42h11.51V17.27h-20.35s-.51,7.43-6.26,7.51l-9.93-.08Z" fill="#363347"/><rect x="1207.09" y="41.93" width="5.01" height="41.16" fill="#070102"/><rect x="1271.16" y="41.93" width="5.01" height="41.16" fill="#070102"/><rect x="1209.59" y="62.51" width="64" height="2.23" fill="#070102"/><rect x="1444.34" y="186.74" width="79.64" height="22.88" transform="translate(-1.25 9.6) rotate(-0.37)"/><rect x="1451.15" y="186.74" width="66.02" height="22.88" transform="translate(-1.25 9.6) rotate(-0.37)" fill="#363347"/><rect x="1468.79" y="194.77" width="32.31" height="7.07" rx="1.31" ry="1.31" transform="translate(-1.25 9.6) rotate(-0.37)"/><circle cx="1508.56" cy="198.15" r="3.54"/><circle cx="1461.32" cy="198.45" r="3.54"/><circle cx="1508.51" cy="198.19" r="1.48" fill="#fff"/><circle cx="1461.32" cy="198.45" r="1.48" fill="#fff"/><polygon points="1489.12 196.83 1489.14 199.76 1480.76 199.81 1480.74 196.84 1489.12 196.83" fill="#fff"/><path d="M1493.05,196.81l0,2.92h4.6s2.24-1.71,0-3Z" fill="#fff"/><path d="M1508.51,198.19H1510s0-1.13-1.5-1.47a1.6,1.6,0,0,0-1.47,1.49Z" fill="#bbb8d0"/><path d="M1461.36,198.49h1.48s0-1.13-1.49-1.47a1.6,1.6,0,0,0-1.47,1.49Z" fill="#bbb8d0"/><path d="M1493.06,198.29l5.59,0s.29-.78-1-1.48l-4.6,0Z" fill="#bbb8d0"/><polygon points="1489.13 198.28 1489.12 196.83 1480.74 196.84 1480.74 198.2 1489.13 198.28" fill="#bbb8d0"/><path d="M1477.42,196.91l0,2.92-4.6.07s-2.26-1.69,0-3Z" fill="#fff"/><path d="M1477.45,198.39l-5.59,0s-.3-.78,1-1.49l4.6,0Z" fill="#bbb8d0"/></g></g></svg>
