<svg xmlns="http://www.w3.org/2000/svg" viewBox="0 0 98.23 99.33"><title>facebook</title><g id="Layer_2" data-name="Layer 2"><g id="Layer_2-2" data-name="Layer 2"><path d="M2.54,80V19.88S4.17,5.47,18,3.41s63.49,0,63.49,0a16.32,16.32,0,0,1,5.62,2c7.1,4.18,8.41,12.56,8.62,14V80A18.77,18.77,0,0,1,79.45,96.83H22.07a33.31,33.31,0,0,1-8.83-1.14,17.32,17.32,0,0,1-6.16-2.51C2.16,89.48,2.44,81.67,2.54,80Z" fill="none" stroke="#fffdf7" stroke-miterlimit="10" stroke-width="5"/><path d="M39.15,59.42V45.13H52.6V32S51.48,17.37,68.3,16.81H82V29.7H72.23S68,30,68,33.91l.1,10.46L82,44.58,79.39,59.91H67.69l.53,35.87L51,96.11l.11-36.52Z" fill="none" stroke="#fffdf7" stroke-miterlimit="10" stroke-width="5"/></g></g></svg>
