<?xml version="1.0" encoding="utf-8"?>
<!-- Generator: Adobe Illustrator 22.1.0, SVG Export Plug-In . SVG Version: 6.00 Build 0)  -->
<svg version="1.1" id="Layer_1" xmlns="http://www.w3.org/2000/svg" xmlns:xlink="http://www.w3.org/1999/xlink" x="0px" y="0px"
	 viewBox="0 0 412 412" style="enable-background:new 0 0 412 412;" xml:space="preserve">
<style type="text/css">
	.st0{fill:#3F434D;}
</style>
<title>up</title>
<path id="arrow-28-icon" class="st0" d="M206,372c91.7,0,166-74.3,166-166S297.7,40,206,40S40,114.3,40,206
	c0,91.6,74.2,166,165.8,166C205.9,372,205.9,372,206,372z M206,0c113.8,0,206,92.2,206,206s-92.2,206-206,206S0,319.8,0,206
	S92.2,0,206,0z M118.6,262l-32.1-32.3L207,109.9l120.5,119.9L295.4,262L207,174L118.6,262z"/>
</svg>
